<?xml version="1.0" encoding="UTF-8" standalone="no"?>
<!-- Created with Inkscape (http://www.inkscape.org/) -->

<svg
   xmlns:dc="http://purl.org/dc/elements/1.1/"
   xmlns:cc="http://creativecommons.org/ns#"
   xmlns:rdf="http://www.w3.org/1999/02/22-rdf-syntax-ns#"
   xmlns:svg="http://www.w3.org/2000/svg"
   xmlns="http://www.w3.org/2000/svg"
   xmlns:sodipodi="http://sodipodi.sourceforge.net/DTD/sodipodi-0.dtd"
   xmlns:inkscape="http://www.inkscape.org/namespaces/inkscape"
   width="650"
   height="45"
   viewBox="0 0 650.00001 45.000001"
   id="svg3521"
   version="1.1"
   inkscape:version="0.91 r13725"
   sodipodi:docname="logotype.svg">
  <defs
     id="defs3523" />
  <sodipodi:namedview
     id="base"
     pagecolor="#ffffff"
     bordercolor="#666666"
     borderopacity="1.0"
     inkscape:pageopacity="0.0"
     inkscape:pageshadow="2"
     inkscape:zoom="0.35"
     inkscape:cx="-347.85714"
     inkscape:cy="520"
     inkscape:document-units="px"
     inkscape:current-layer="layer1"
     showgrid="false"
     units="px"
     inkscape:window-width="3200"
     inkscape:window-height="1689"
     inkscape:window-x="0"
     inkscape:window-y="0"
     inkscape:window-maximized="1" />
  <metadata
     id="metadata3526">
    <rdf:RDF>
      <cc:Work
         rdf:about="">
        <dc:format>image/svg+xml</dc:format>
        <dc:type
           rdf:resource="http://purl.org/dc/dcmitype/StillImage" />
        <dc:title></dc:title>
      </cc:Work>
    </rdf:RDF>
  </metadata>
  <g
     inkscape:label="Layer 1"
     inkscape:groupmode="layer"
     id="layer1"
     transform="translate(0,-1007.3622)">
    <g
       style="font-style:normal;font-variant:normal;font-weight:normal;font-stretch:normal;font-size:60px;line-height:125%;font-family:Optima;-inkscape-font-specification:'Optima, Normal';text-align:start;letter-spacing:46;writing-mode:lr-tb;text-anchor:start;fill:#09d1aa"
       id="text32">
      <path
         d="m 8.1706249,1008.4722 q 4.1400001,8.52 8.3400001,16.56 4.26,8.04 8.88,16.5 0.6,-1.14 1.74,-3.24 1.14,-2.16 2.64,-4.92 1.5,-2.76 3.18,-5.94 1.74,-3.24 3.48,-6.54 1.8,-3.3 3.54,-6.48 1.74,-3.18 3.24,-5.94 l 0.78,0 q 0.66,5.76 1.2,11.16 0.6,5.34 1.2,10.56 0.6,5.16 1.2,10.26 0.6,5.04 1.32,10.02 -0.72,-0.12 -1.44,-0.12 -0.66,0 -1.38,0 -0.72,0 -1.44,0 -0.66,0 -1.38,0.12 -0.66,-7.98 -1.32,-15.48 -0.66,-7.5 -1.62,-15.3 l -0.12,0 q -4.14,7.56 -8.16,15.06 -3.96,7.44 -7.56,15.6 l -0.54,0 q -3.6,-7.56 -7.56,-15.12 -3.9,-7.62 -7.8600001,-15.54 l -0.12,0 q -0.42,3.72 -0.96,8.1 -0.48,4.32 -0.9,8.58 -0.42,4.2 -0.72,7.98 -0.3,3.72 -0.3,6.12 -0.96,-0.12 -2.1,-0.12 -1.14,0 -2.1,0.12 0.78,-4.86 1.62,-10.26 0.84,-5.4 1.62,-10.86 0.78,-5.46 1.44,-10.74 0.66,-5.34 1.14,-10.14 l 1.02,0 0,0 z"
         style="font-style:normal;font-variant:normal;font-weight:normal;font-stretch:normal;font-size:60px;line-height:125%;font-family:Optima;-inkscape-font-specification:'Optima, Normal';text-align:start;letter-spacing:46;writing-mode:lr-tb;text-anchor:start;fill:#09d1aa"
         id="path3583" />
      <path
         d="m 110.19094,1031.8122 q 1.56,0 3.24,0.06 1.68,0.06 3.24,0.06 1.68,0 3.36,0 1.68,-0.06 3.36,-0.12 l -6.66,-15.24 -6.54,15.24 z m 26.58,18.66 q -0.84,-0.12 -1.62,-0.12 -0.72,0 -1.56,0 -0.84,0 -1.62,0 -0.72,0 -1.56,0.12 -0.42,-1.38 -1.14,-3.3 -0.72,-1.98 -1.62,-4.08 -0.84,-2.16 -1.74,-4.32 -0.9,-2.22 -1.68,-4.2 -1.92,-0.06 -3.9,-0.06 -1.98,-0.06 -3.96,-0.06 -1.86,0 -3.66,0.06 -1.8,0 -3.66,0.06 -1.92,4.68 -3.48,8.94 -1.56,4.2 -2.34,6.96 -1.02,-0.12 -2.22,-0.12 -1.200003,0 -2.220003,0.12 4.860003,-10.5 9.480003,-20.88 4.62,-10.38 9.3,-21.12 l 1.14,0 q 1.44,3.48 3.12,7.56 1.68,4.02 3.42,8.16 1.74,4.14 3.48,8.22 1.74,4.08 3.24,7.62 1.56,3.48 2.76,6.24 1.26,2.76 2.04,4.2 z"
         style="font-style:normal;font-variant:normal;font-weight:normal;font-stretch:normal;font-size:60px;line-height:125%;font-family:Optima;-inkscape-font-specification:'Optima, Normal';text-align:start;letter-spacing:46;writing-mode:lr-tb;text-anchor:start;fill:#09d1aa"
         id="path3585" />
      <path
         d="m 223.50906,1051.2522 q -6.9,-7.98 -14.7,-16.32 -7.8,-8.4 -15.6,-16.68 -0.06,1.68 -0.12,4.5 -0.06,2.82 -0.06,7.68 0,1.26 0,3.12 0.06,1.86 0.06,3.9 0.06,2.04 0.12,4.14 0.06,2.1 0.12,3.9 0.06,1.8 0.12,3.18 0.06,1.32 0.12,1.8 -0.96,-0.12 -2.1,-0.12 -1.2,0 -2.22,0.12 0.12,-0.6 0.24,-2.22 0.18,-1.62 0.3,-3.84 0.12,-2.28 0.24,-4.92 0.18,-2.64 0.24,-5.28 0.12,-2.64 0.18,-5.16 0.06,-2.52 0.06,-4.5 0,-5.76 -0.06,-9.9 0,-4.14 -0.12,-6.18 l 0.96,0 q 3.66,3.96 7.8,8.52 4.2,4.5 8.28,8.94 4.14,4.38 7.8,8.34 3.72,3.9 6.48,6.66 l 0,-8.16 q 0,-6.3 -0.12,-12.24 -0.06,-6 -0.36,-11.28 1.2,0.3 2.04,0.3 0.72,0 1.92,-0.3 -0.12,1.32 -0.3,3.96 -0.12,2.64 -0.3,5.64 -0.12,3 -0.24,5.88 -0.12,2.88 -0.12,4.62 0,1.5 0,3.6 0,2.04 0,4.26 0.06,2.22 0.06,4.5 0.06,2.22 0.06,4.2 0.06,1.92 0.06,3.36 0,1.32 0,1.98 l -0.84,0 0,0 z"
         style="font-style:normal;font-variant:normal;font-weight:normal;font-stretch:normal;font-size:60px;line-height:125%;font-family:Optima;-inkscape-font-specification:'Optima, Normal';text-align:start;letter-spacing:46;writing-mode:lr-tb;text-anchor:start;fill:#09d1aa"
         id="path3587" />
      <path
         d="m 287.855,1031.8122 q 1.56,0 3.24,0.06 1.68,0.06 3.24,0.06 1.68,0 3.36,0 1.68,-0.06 3.36,-0.12 l -6.66,-15.24 -6.54,15.24 z m 26.58,18.66 q -0.84,-0.12 -1.62,-0.12 -0.72,0 -1.56,0 -0.84,0 -1.62,0 -0.72,0 -1.56,0.12 -0.42,-1.38 -1.14,-3.3 -0.72,-1.98 -1.62,-4.08 -0.84,-2.16 -1.74,-4.32 -0.9,-2.22 -1.68,-4.2 -1.92,-0.06 -3.9,-0.06 -1.98,-0.06 -3.96,-0.06 -1.86,0 -3.66,0.06 -1.8,0 -3.66,0.06 -1.92,4.68 -3.48,8.94 -1.56,4.2 -2.34,6.96 -1.02,-0.12 -2.22,-0.12 -1.2,0 -2.22,0.12 4.86,-10.5 9.48,-20.88 4.62,-10.38 9.3,-21.12 l 1.14,0 q 1.44,3.48 3.12,7.56 1.68,4.02 3.42,8.16 1.74,4.14 3.48,8.22 1.74,4.08 3.24,7.62 1.56,3.48 2.76,6.24 1.26,2.76 2.04,4.2 z"
         style="font-style:normal;font-variant:normal;font-weight:normal;font-stretch:normal;font-size:60px;line-height:125%;font-family:Optima;-inkscape-font-specification:'Optima, Normal';text-align:start;letter-spacing:46;writing-mode:lr-tb;text-anchor:start;fill:#09d1aa"
         id="path3589" />
      <path
         d="m 375.99187,1050.4722 q -1.38,-3.54 -3.36,-8.52 -1.98,-4.98 -4.26,-10.5 -2.22,-5.52 -4.62,-11.28 -2.34,-5.76 -4.5,-10.92 0.84,0.12 1.62,0.24 0.78,0.06 1.5,0.06 0.72,0 1.5,-0.06 0.78,-0.12 1.62,-0.24 1.32,3.96 2.88,8.34 1.62,4.32 3.36,8.82 1.8,4.5 3.66,9.12 1.86,4.62 3.78,9.18 1.08,-2.46 2.34,-5.46 1.26,-3.06 2.52,-6.3 1.32,-3.3 2.58,-6.66 1.26,-3.42 2.4,-6.54 1.2,-3.12 2.16,-5.82 0.96,-2.7 1.62,-4.68 1.32,0.3 2.22,0.3 0.9,0 2.22,-0.3 -4.68,10.44 -9,20.7 -4.32,10.26 -8.28,20.52 -0.96,-0.12 -1.98,-0.12 -1.2,0 -1.98,0.12 z"
         style="font-style:normal;font-variant:normal;font-weight:normal;font-stretch:normal;font-size:60px;line-height:125%;font-family:Optima;-inkscape-font-specification:'Optima, Normal';text-align:start;letter-spacing:46;writing-mode:lr-tb;text-anchor:start;fill:#09d1aa"
         id="path3591" />
      <path
         d="m 450.19,1024.7322 q 0,-3.96 -0.18,-7.8 -0.12,-3.84 -0.3,-7.68 2.7,0.12 5.34,0.24 2.7,0.06 5.4,0.06 2.7,0 5.34,-0.06 2.64,-0.12 5.34,-0.24 -0.18,0.9 -0.18,1.8 0,0.9 0.18,1.8 -1.92,-0.12 -3.54,-0.24 -1.56,-0.12 -3.36,-0.24 -1.74,-0.12 -3.84,-0.18 -2.1,-0.12 -5.04,-0.12 -0.06,1.92 -0.18,3.66 -0.06,1.74 -0.06,3.96 0,2.34 0,4.56 0.06,2.22 0.06,3.36 2.64,0 4.74,-0.06 2.1,-0.06 3.84,-0.12 1.74,-0.12 3.18,-0.18 1.5,-0.12 2.82,-0.24 -0.18,0.9 -0.18,1.86 0,0.9 0.18,1.8 -1.56,-0.18 -3.66,-0.3 -2.04,-0.12 -4.14,-0.12 -2.04,-0.06 -3.9,-0.06 -1.8,-0.06 -2.88,-0.06 0,0.54 -0.06,1.2 0,0.6 0,1.56 l 0,2.34 0,3.6 q 0,3.42 0,5.64 0.06,2.22 0.12,3.36 1.98,0 4.2,0 2.28,0 4.44,-0.06 2.22,-0.12 4.14,-0.24 1.98,-0.18 3.42,-0.48 -0.12,0.42 -0.18,0.96 0,0.48 0,0.9 0,0.96 0.18,1.56 -2.7,-0.12 -5.4,-0.12 -2.64,0 -5.4,0 -2.76,0 -5.46,0 -2.7,0 -5.46,0.12 0.18,-3.84 0.3,-7.62 0.18,-3.84 0.18,-7.8 l 0,-10.32 0,0 z"
         style="font-style:normal;font-variant:normal;font-weight:normal;font-stretch:normal;font-size:60px;line-height:125%;font-family:Optima;-inkscape-font-specification:'Optima, Normal';text-align:start;letter-spacing:46;writing-mode:lr-tb;text-anchor:start;fill:#09d1aa"
         id="path3593" />
      <path
         d="m 526.19,1024.7922 q 0,-3.96 -0.18,-7.74 -0.12,-3.84 -0.3,-7.8 2.28,0.12 4.5,0.24 2.28,0.06 4.56,0.06 2.28,0 4.5,-0.12 2.28,-0.18 4.56,-0.18 5.28,0 9,1.38 3.78,1.38 6.18,3.96 2.4,2.52 3.48,6.24 1.14,3.66 1.14,8.28 0,6 -2.1,10.14 -2.04,4.08 -5.28,6.6 -3.18,2.52 -7.08,3.6 -3.84,1.02 -7.38,1.02 -2.04,0 -4.02,-0.06 -1.98,-0.06 -4.02,-0.06 -2.04,0 -4.02,0 -1.98,0 -4.02,0.12 0.18,-3.72 0.3,-7.56 0.18,-3.84 0.18,-7.8 l 0,-10.32 z m 4.92,10.32 q 0,6.48 0.36,12.72 1.26,0.3 3.42,0.48 2.16,0.12 4.44,0.12 3.3,0 6.6,-0.78 3.3,-0.78 5.88,-2.94 2.64,-2.16 4.26,-5.88 1.68,-3.78 1.68,-9.72 0,-5.22 -1.32,-8.58 -1.26,-3.36 -3.54,-5.28 -2.22,-1.98 -5.34,-2.7 -3.12,-0.78 -6.84,-0.78 -2.7,0 -5.04,0.18 -2.34,0.18 -4.2,0.42 -0.18,2.88 -0.3,6.06 -0.06,3.12 -0.06,6.36 l 0,10.32 z"
         style="font-style:normal;font-variant:normal;font-weight:normal;font-stretch:normal;font-size:60px;line-height:125%;font-family:Optima;-inkscape-font-specification:'Optima, Normal';text-align:start;letter-spacing:46;writing-mode:lr-tb;text-anchor:start;fill:#09d1aa"
         id="path3595" />
      <path
         d="m 622.08937,1031.8122 q 1.56,0 3.24,0.06 1.68,0.06 3.24,0.06 1.68,0 3.36,0 1.68,-0.06 3.36,-0.12 l -6.66,-15.24 -6.54,15.24 z m 26.58,18.66 q -0.84,-0.12 -1.62,-0.12 -0.72,0 -1.56,0 -0.84,0 -1.62,0 -0.72,0 -1.56,0.12 -0.42,-1.38 -1.14,-3.3 -0.72,-1.98 -1.62,-4.08 -0.84,-2.16 -1.74,-4.32 -0.9,-2.22 -1.68,-4.2 -1.92,-0.06 -3.9,-0.06 -1.98,-0.06 -3.96,-0.06 -1.86,0 -3.66,0.06 -1.8,0 -3.66,0.06 -1.92,4.68 -3.48,8.94 -1.56,4.2 -2.34,6.96 -1.02,-0.12 -2.22,-0.12 -1.2,0 -2.22,0.12 4.86,-10.5 9.48,-20.88 4.62,-10.38 9.3,-21.12 l 1.14,0 q 1.44,3.48 3.12,7.56 1.68,4.02 3.42,8.16 1.74,4.14 3.48,8.22 1.74,4.08 3.24,7.62 1.56,3.48 2.76,6.24 1.26,2.76 2.04,4.2 z"
         style="font-style:normal;font-variant:normal;font-weight:normal;font-stretch:normal;font-size:60px;line-height:125%;font-family:Optima;-inkscape-font-specification:'Optima, Normal';text-align:start;letter-spacing:46;writing-mode:lr-tb;text-anchor:start;fill:#09d1aa"
         id="path3597" />
    </g>
  </g>
</svg>
