<?xml version="1.0" encoding="UTF-8" standalone="no"?>
<svg
   xmlns:dc="http://purl.org/dc/elements/1.1/"
   xmlns:cc="http://creativecommons.org/ns#"
   xmlns:rdf="http://www.w3.org/1999/02/22-rdf-syntax-ns#"
   xmlns:svg="http://www.w3.org/2000/svg"
   xmlns="http://www.w3.org/2000/svg"
   xmlns:xlink="http://www.w3.org/1999/xlink"
   height="810"
   width="810"
   id="svg2"
   xml:space="preserve"
   preserveAspectRatio="xMinYMin meet"
   viewBox="0 0 810 810"
   y="0px"
   x="0px"
   version="1.1"><metadata
     id="metadata72"><rdf:RDF><cc:Work
         rdf:about=""><dc:format>image/svg+xml</dc:format><dc:type
           rdf:resource="http://purl.org/dc/dcmitype/StillImage" /><dc:title></dc:title></cc:Work></rdf:RDF></metadata><defs
     id="defs70" /><style
     id="style4"
     type="text/css">
	.st0{display:none;}
	.st1{display:inline;}
	.st2{fill:url(#SVGID_1_);}
	.st3{fill:url(#SVGID_2_);}
	.st4{fill:url(#SVGID_3_);}
	.st5{fill:url(#SVGID_4_);}
	.st6{fill:url(#SVGID_5_);}
	.st7{fill:url(#SVGID_6_);}
	.st8{display:inline;fill:none;}
	.st9{display:inline;fill:none;stroke:#FFFFFF;stroke-width:2.126;stroke-miterlimit:10;}
	.st10{fill:url(#SVGID_7_);}
	.st11{fill:url(#SVGID_8_);}
	.st12{fill:url(#SVGID_9_);}
	.st13{fill:url(#SVGID_10_);}
	.st14{fill:url(#SVGID_11_);}
	.st15{fill:url(#SVGID_12_);}
	.st16{fill:#958757;}
	.st17{opacity:0.48;}
	.st18{fill:none;}
	.st19{fill:#09D1AA;}
	.st20{font-family:'Optima-Regular';}
	.st21{font-size:60px;}
	.st22{letter-spacing:46;}
	.st23{fill:#2B2B2B;}
	.st24{fill:url(#SVGID_13_);}
	.st25{fill:url(#SVGID_14_);}
	.st26{fill:url(#SVGID_15_);}
	.st27{fill:url(#SVGID_16_);}
	.st28{fill:url(#SVGID_17_);}
	.st29{fill:url(#SVGID_18_);}
	.st30{fill:url(#SVGID_19_);}
	.st31{fill:url(#SVGID_20_);}
	.st32{fill:url(#SVGID_21_);}
	.st33{fill:url(#SVGID_22_);}
	.st34{fill:url(#SVGID_23_);}
	.st35{fill:url(#SVGID_24_);}
	.st36{fill:url(#SVGID_25_);}
	.st37{fill:url(#SVGID_26_);}
	.st38{fill:url(#SVGID_27_);}
	.st39{fill:url(#SVGID_28_);}
	.st40{fill:url(#SVGID_29_);}
	.st41{fill:url(#SVGID_30_);}
	.st42{fill:url(#SVGID_31_);}
	.st43{fill:#FFFFFF;}
	.st44{fill:url(#SVGID_32_);}
	.st45{clip-path:url(#SVGID_34_);}
	.st46{opacity:0.48;clip-path:url(#SVGID_36_);}
	.st47{fill:url(#SVGID_37_);}
	.st48{fill:url(#SVGID_38_);}
	.st49{fill:url(#SVGID_39_);}
	.st50{fill:url(#SVGID_40_);}
	.st51{fill:url(#SVGID_41_);}
	.st52{fill:url(#SVGID_42_);}
	.st53{fill:url(#SVGID_43_);}
	.st54{fill:url(#SVGID_44_);}
	.st55{fill:url(#SVGID_45_);}
	.st56{fill:url(#SVGID_46_);}
	.st57{fill:url(#SVGID_47_);}
	.st58{fill:url(#SVGID_48_);}
	.st59{fill:url(#SVGID_49_);}
	.st60{fill:url(#SVGID_50_);}
	.st61{fill:url(#SVGID_51_);}
	.st62{fill:url(#SVGID_52_);}
	.st63{fill:url(#SVGID_53_);}
	.st64{fill:url(#SVGID_54_);}
</style><g
     transform="translate(0,-301)"
     id="Layer_13" /><g
     transform="translate(0,-301)"
     id="mandala"><g
       id="ROUND_BG" /><g
       style="display:none"
       class="st0"
       id="OG" /><g
       id="Layer_6_copy" /><g
       id="gradient" /><g
       style="display:none"
       class="st0"
       id="GREEN" /><g
       style="display:none"
       class="st0"
       id="Layer_8" /><g
       id="Layer_9" /></g><g
     transform="translate(0,-301)"
     id="mandala_copy"><g
       id="ROUND_BG_copy" /><g
       style="display:none"
       class="st0"
       id="OG_copy" /><g
       id="Layer_6_copy_2" /><g
       id="gradient_copy" /><g
       style="display:none"
       class="st0"
       id="GREEN_copy" /><g
       style="display:none"
       class="st0"
       id="Layer_8_copy" /><g
       id="Layer_9_copy" /></g><g
     transform="translate(0,-301)"
     id="Layer_7" /><g
     transform="translate(0,-301)"
     id="Layer_20" /><g
     transform="translate(0,-301)"
     id="Layer_19"><path
       style="fill:#958757"
       id="path26"
       d="m 777.3,548.65 c -20.3,-48.1 -49.5,-91.3 -86.6,-128.4 -37.1,-37.1 -80.3,-66.2 -128.4,-86.6 -49.9,-21.1 -102.8,-31.7 -157.3,-31.7 -54.5,0 -107.4,10.6 -157.3,31.7 -48.1,20.3 -91.3,49.5 -128.4,86.6 -37.1,37.1 -66.2,80.3 -86.6,128.4 -21.1,49.8 -31.8,102.7 -31.8,157.3 0,54.6 10.7,107.4 31.8,157.3 20.3,48.1 49.5,91.3 86.6,128.4 37.1,37.1 80.3,66.2 128.4,86.6 49.8,21.1 102.7,31.8 157.3,31.8 54.6,0 107.4,-10.7 157.3,-31.8 48.1,-20.3 91.3,-49.5 128.4,-86.6 37.1,-37.1 66.2,-80.3 86.6,-128.4 21.1,-49.8 31.8,-102.7 31.8,-157.3 0,-54.6 -10.8,-107.5 -31.8,-157.3 z m -68,323.4 c -2.2,-69.9 -39.8,-131 -95.4,-166.1 55.3,-34.8 92.7,-95.5 95.4,-164.8 54.7,34.8 91.1,96 91.1,165.5 -0.1,69.4 -36.4,130.6 -91.1,165.4 z m -203.9,202.6 c -33.2,0 -64.6,-8.3 -92,-23 55.4,-34.7 93,-95.3 95.8,-164.6 28.4,15 60.8,23.6 95.1,23.6 35.1,0 68.1,-8.9 97,-24.6 -3.9,104.7 -90.3,188.6 -195.9,188.6 z M 109.6,886.15 c 28.5,15.1 61,23.7 95.4,23.7 34.9,0 67.8,-8.8 96.6,-24.3 2.3,70 40.1,131.2 95.9,166.1 -27.5,14.7 -58.8,23 -92,23 -105.6,0 -191.9,-83.9 -195.9,-188.5 z M 9,705.95 c 0,-70.1 37,-131.8 92.5,-166.4 2.1,70.1 39.7,131.3 95.4,166.4 -55.7,35.1 -93.3,96.3 -95.4,166.4 C 46,837.65 9,776.05 9,705.95 Z m 296.4,-368.7 c 33.2,0 64.6,8.3 92,23 -55.8,34.9 -93.5,96.1 -95.9,166 -28.8,-15.5 -61.7,-24.3 -96.6,-24.3 -34.4,0 -66.9,8.6 -95.4,23.7 4.1,-104.6 90.4,-188.4 195.9,-188.4 z m 395.9,189.9 c -28.9,-15.7 -61.9,-24.6 -97,-24.6 -34.3,0 -66.6,8.5 -95,23.5 -2.4,-69.9 -40.2,-131 -95.9,-165.9 27.5,-14.7 58.8,-23 92,-23 106.1,0.1 192.7,84.7 195.9,190 z m -488.5,178.8 c 27.6,-14.9 59.1,-23.3 92.6,-23.3 31.4,0 61,7.4 87.3,20.6 1.4,0.9 2.8,1.8 4.2,2.7 -1.4,0.9 -2.8,1.8 -4.2,2.7 0,0 -15.1,10.2 -23.7,18.4 -41,36.9 -67,90.2 -67.6,149.4 -28.5,16.2 -61.4,25.4 -96.5,25.4 -34.7,0 -67.3,-9.1 -95.5,-24.9 0.6,-70.6 38.7,-132.4 95.2,-166.4 l 8.2,-4.6 z m 96.8,165.7 c 2.3,-65 36.4,-122 87.2,-156 1.2,-0.6 2.5,-1.3 3.7,-1.9 0,1.3 0.1,2.6 0.2,3.9 0,0 0.9,17.8 4,30.5 11.8,57.2 47.8,105.8 96.7,134.5 -1.4,69.9 -39.6,131 -95.9,164.5 -56.8,-33.8 -95.1,-95.5 -96,-166.1 l 0.1,-9.4 z m 191.8,1.6 c -52.8,-32.8 -89,-89.9 -92.7,-155.6 0.1,-1.6 0.2,-3.2 0.2,-4.8 1.7,0.9 3.5,1.8 5.3,2.7 0,0 9,5.4 27.7,11.4 20,6.6 41.4,10.2 63.6,10.2 36.6,0 71,-9.7 100.7,-26.7 56.5,34 94.6,95.7 95.2,166.2 -28.6,16.4 -61.8,25.8 -97.1,25.8 -34.4,0 -66.8,-8.9 -94.9,-24.6 l -8,-4.6 z M 598,705.95 c -27.6,14.9 -59.1,23.3 -92.6,23.3 -31.4,0 -61,-7.4 -87.3,-20.6 -1.4,-0.9 -2.8,-1.8 -4.2,-2.7 1.4,-0.9 2.8,-1.8 4.2,-2.7 0,0 20,-14.3 23.7,-18.4 41.1,-37 67.1,-90.3 67.6,-149.7 28.1,-15.6 60.5,-24.6 94.9,-24.6 35.3,0 68.4,9.4 97.1,25.8 -1.1,70 -39,131.2 -95.2,165 l -8.2,4.6 z m -193.3,-41.6 c -11.8,-56.7 -47.1,-104.8 -95.3,-133.6 0.9,-70.5 39.2,-132.2 96,-166 56.7,33.8 95,95.3 96,165.8 l -0.1,9.4 c -2.2,65.2 -36.3,122.3 -87.2,156.4 -1.8,0.9 -3.5,1.8 -5.3,2.7 0,-1.4 -0.1,-2.8 -0.2,-4.2 0.1,0 -0.6,-17.2 -3.9,-30.5 z m -35.6,20.5 c -20,-6.6 -41.4,-10.2 -63.6,-10.2 -36.6,0 -71,9.7 -100.7,26.7 -56.6,-34.1 -94.7,-95.9 -95.2,-166.5 28.3,-15.9 60.9,-24.9 95.5,-24.9 35,0 68,9.3 96.5,25.4 l 8.1,4.9 c 52,32.9 87.5,89.6 91.1,154.6 -0.1,1.1 -0.1,2.3 -0.2,3.4 -1.2,-0.7 -2.5,-1.3 -3.8,-1.9 0,-0.1 -12.1,-6.4 -27.7,-11.5 z m 400.8,-133.1 c 10.9,25.8 19,52.5 24.2,79.9 -16.6,-41.8 -46.6,-76.9 -84.6,-99.8 -0.3,-46 -16,-88.5 -42.1,-122.5 6,5.3 11.9,10.9 17.7,16.6 36.3,36.3 64.8,78.7 84.8,125.8 z M 533.3,331.15 c -9.1,-1.3 -18.4,-1.9 -27.9,-1.9 -36.3,0 -70.4,9.5 -100,26.2 -29.6,-16.7 -63.7,-26.2 -100,-26.2 -10,0 -19.8,0.7 -29.4,2.1 41.3,-14.3 84.6,-21.5 128.9,-21.5 44.2,0.1 87.3,7.2 128.4,21.3 z M 40.1,551.75 c 19.9,-47.2 48.5,-89.5 84.9,-125.9 6.6,-6.6 13.5,-13 20.5,-19.1 -27,34 -43.3,76.9 -44,123.4 -37.7,22.3 -67.6,56.3 -84.7,97 5.2,-25.7 13,-50.9 23.3,-75.4 z m 0,308.3 c -10.3,-24.5 -18.1,-49.7 -23.3,-75.5 17.1,40.7 47,74.8 84.7,97 0.7,46.4 16.9,89.2 43.8,123.2 -6.9,-6 -13.7,-12.3 -20.2,-18.9 -36.5,-36.3 -65,-78.6 -85,-125.8 z m 236.4,220.6 c 9.5,1.3 19.1,2.1 28.9,2.1 36.3,0 70.4,-9.5 100,-26.2 29.6,16.7 63.7,26.2 100,26.2 9.3,0 18.5,-0.6 27.5,-1.9 -41,14 -83.9,21.1 -127.9,21.1 -44.2,0 -87.3,-7.2 -128.5,-21.3 z m 493.4,-220.6 c -19.9,47.2 -48.5,89.5 -84.9,125.9 -5.7,5.7 -11.5,11.1 -17.5,16.4 25.7,-33.7 41.3,-75.5 41.8,-121 37.7,-22.8 67.5,-57.4 84.2,-98.6 -5.1,26.4 -13,52.3 -23.6,77.3 z"
       class="st16" /><g
       style="opacity:0.47999998"
       id="g28"
       class="st17"><path
         style="fill:none"
         id="path30"
         d="M 927.8,307.3 C 907.5,259.2 878.3,216 841.2,178.9 804.1,141.8 760.9,112.7 712.8,92.3 662.9,71.2 610,60.6 555.5,60.6 501,60.6 448.1,71.2 398.2,92.3 c -48.1,20.3 -91.3,49.5 -128.4,86.6 -37.1,37.1 -66.2,80.3 -86.6,128.4 -21.1,49.8 -31.8,102.7 -31.8,157.3 0,54.6 10.7,107.4 31.8,157.3 20.3,48.1 49.5,91.3 86.6,128.4 37.1,37.1 80.3,66.2 128.4,86.6 49.8,21.1 102.7,31.8 157.3,31.8 54.6,0 107.4,-10.7 157.3,-31.8 48.1,-20.3 91.3,-49.5 128.4,-86.6 37.1,-37.1 66.2,-80.3 86.6,-128.4 21.1,-49.8 31.8,-102.7 31.8,-157.3 0,-54.6 -10.8,-107.5 -31.8,-157.3 z m -68,323.4 c -2.2,-69.9 -39.8,-131 -95.4,-166.1 55.3,-34.8 92.7,-95.5 95.4,-164.8 54.7,34.8 91.1,96 91.1,165.5 -0.1,69.4 -36.4,130.6 -91.1,165.4 z M 655.9,833.3 c -33.2,0 -64.6,-8.3 -92,-23 55.4,-34.7 93,-95.3 95.8,-164.6 28.4,15 60.8,23.6 95.1,23.6 35.1,0 68.1,-8.9 97,-24.6 -3.9,104.7 -90.3,188.6 -195.9,188.6 z M 260.1,644.8 c 28.5,15.1 61,23.7 95.4,23.7 34.9,0 67.8,-8.8 96.6,-24.3 2.3,70 40.1,131.2 95.9,166.1 -27.5,14.7 -58.8,23 -92,23 -105.6,0 -191.9,-83.9 -195.9,-188.5 z M 159.5,464.6 c 0,-70.1 37,-131.8 92.5,-166.4 2.1,70.1 39.7,131.3 95.4,166.4 C 291.7,499.7 254.1,560.9 252,631 196.5,596.3 159.5,534.7 159.5,464.6 Z M 455.9,95.9 c 33.2,0 64.6,8.3 92,23 -55.8,34.9 -93.5,96.1 -95.9,166 -28.8,-15.5 -61.7,-24.3 -96.6,-24.3 -34.4,0 -66.9,8.6 -95.4,23.7 4.1,-104.6 90.4,-188.4 195.9,-188.4 z m 395.9,189.9 c -28.9,-15.7 -61.9,-24.6 -97,-24.6 -34.3,0 -66.6,8.5 -95,23.5 -2.4,-69.9 -40.2,-131 -95.9,-165.9 27.5,-14.7 58.8,-23 92,-23 106.1,0.1 192.7,84.7 195.9,190 z M 363.3,464.6 c 27.6,-14.9 59.1,-23.3 92.6,-23.3 31.4,0 61,7.4 87.3,20.6 1.4,0.9 2.8,1.8 4.2,2.7 -1.4,0.9 -2.8,1.8 -4.2,2.7 0,0 -15.1,10.2 -23.7,18.4 -41,36.9 -67,90.2 -67.6,149.4 -28.5,16.2 -61.4,25.4 -96.5,25.4 -34.7,0 -67.3,-9.1 -95.5,-24.9 0.6,-70.6 38.7,-132.4 95.2,-166.4 l 8.2,-4.6 z m 96.8,165.7 c 2.3,-65 36.4,-122 87.2,-156 1.2,-0.6 2.5,-1.3 3.7,-1.9 0,1.3 0.1,2.6 0.2,3.9 0,0 0.9,17.8 4,30.5 C 567,564 603,612.6 651.9,641.3 650.5,711.2 612.3,772.3 556,805.8 499.2,772 460.9,710.3 460,639.7 l 0.1,-9.4 z m 191.8,1.6 c -52.8,-32.8 -89,-89.9 -92.7,-155.6 0.1,-1.6 0.2,-3.2 0.2,-4.8 1.7,0.9 3.5,1.8 5.3,2.7 0,0 9,5.4 27.7,11.4 20,6.6 41.4,10.2 63.6,10.2 36.6,0 71,-9.7 100.7,-26.7 56.5,34 94.6,95.7 95.2,166.2 -28.6,16.4 -61.8,25.8 -97.1,25.8 -34.4,0 -66.8,-8.9 -94.9,-24.6 l -8,-4.6 z m 96.6,-167.3 c -27.6,14.9 -59.1,23.3 -92.6,23.3 -31.4,0 -61,-7.4 -87.3,-20.6 -1.4,-0.9 -2.8,-1.8 -4.2,-2.7 1.4,-0.9 2.8,-1.8 4.2,-2.7 0,0 20,-14.3 23.7,-18.4 41.1,-37 67.1,-90.3 67.6,-149.7 28.1,-15.6 60.5,-24.6 94.9,-24.6 35.3,0 68.4,9.4 97.1,25.8 -1.1,70 -39,131.2 -95.2,165 l -8.2,4.6 z M 555.2,423 c -11.8,-56.7 -47.1,-104.8 -95.3,-133.6 0.9,-70.5 39.2,-132.2 96,-166 56.7,33.8 95,95.3 96,165.8 l -0.1,9.4 c -2.2,65.2 -36.3,122.3 -87.2,156.4 -1.8,0.9 -3.5,1.8 -5.3,2.7 0,-1.4 -0.1,-2.8 -0.2,-4.2 0.1,0 -0.6,-17.2 -3.9,-30.5 z m -35.6,20.5 c -20,-6.6 -41.4,-10.2 -63.6,-10.2 -36.6,0 -71,9.7 -100.7,26.7 -56.6,-34.1 -94.7,-95.9 -95.2,-166.5 28.3,-15.9 60.9,-24.9 95.5,-24.9 35,0 68,9.3 96.5,25.4 l 8.1,4.9 c 52,32.9 87.5,89.6 91.1,154.6 -0.1,1.1 -0.1,2.3 -0.2,3.4 -1.2,-0.7 -2.5,-1.3 -3.8,-1.9 0,-0.1 -12.1,-6.4 -27.7,-11.5 z M 920.4,310.4 c 10.9,25.8 19,52.5 24.2,79.9 C 928,348.5 898,313.4 860,290.5 859.7,244.5 844,202 817.9,168 c 6,5.3 11.9,10.9 17.7,16.6 36.3,36.3 64.8,78.7 84.8,125.8 z M 683.8,89.8 c -9.1,-1.3 -18.4,-1.9 -27.9,-1.9 -36.3,0 -70.4,9.5 -100,26.2 -29.6,-16.7 -63.7,-26.2 -100,-26.2 -10,0 -19.8,0.7 -29.4,2.1 41.3,-14.3 84.6,-21.5 128.9,-21.5 44.2,0.1 87.3,7.2 128.4,21.3 z M 190.6,310.4 c 19.9,-47.2 48.5,-89.5 84.9,-125.9 6.6,-6.6 13.5,-13 20.5,-19.1 -27,34 -43.3,76.9 -44,123.4 -37.7,22.3 -67.6,56.3 -84.7,97 5.2,-25.7 13,-50.9 23.3,-75.4 z m 0,308.3 c -10.3,-24.5 -18.1,-49.7 -23.3,-75.5 17.1,40.7 47,74.8 84.7,97 0.7,46.4 16.9,89.2 43.8,123.2 -6.9,-6 -13.7,-12.3 -20.2,-18.9 -36.5,-36.3 -65,-78.6 -85,-125.8 z M 427,839.3 c 9.5,1.3 19.1,2.1 28.9,2.1 36.3,0 70.4,-9.5 100,-26.2 29.6,16.7 63.7,26.2 100,26.2 9.3,0 18.5,-0.6 27.5,-1.9 -41,14 -83.9,21.1 -127.9,21.1 -44.2,0 -87.3,-7.2 -128.5,-21.3 z M 920.4,618.7 c -19.9,47.2 -48.5,89.5 -84.9,125.9 -5.7,5.7 -11.5,11.1 -17.5,16.4 25.7,-33.7 41.3,-75.5 41.8,-121 37.7,-22.8 67.5,-57.4 84.2,-98.6 -5.1,26.4 -13,52.3 -23.6,77.3 z"
         class="st18" /></g><g
       transform="translate(-151.45,239.65)"
       id="g34"><path
         style="fill:#09d1aa"
         id="path36"
         d="m 512.3,311.5 c 28.5,30.4 48.2,68.6 55.8,109.7 0.7,3.2 1.3,6.9 1.8,11.1 C 609.6,400.2 634,352.8 637,302 l 0.3,-9.1 c 0,-3.7 -0.1,-7.3 -0.2,-11 -36,23.5 -62.7,53.8 -78.6,91.8 -13.3,-30.2 -31.4,-48.8 -46.1,-62.6 0,0.1 -0.1,0.3 -0.1,0.4 z"
         class="st19" /><path
         style="fill:#09d1aa"
         id="path38"
         d="m 668.1,350.5 c -11.7,40 -34.6,76.4 -66.2,103.8 -2.4,2.2 -5.3,4.6 -8.6,7.2 47.8,17.9 101.1,14.8 146.3,-8.4 l 8,-4.4 c 3.2,-1.8 6.3,-3.8 9.4,-5.8 -38.6,-19.1 -78.2,-26.7 -119,-21.1 19.2,-26.8 26.1,-51.9 30.6,-71.5 -0.2,0.2 -0.3,0.2 -0.5,0.2 z"
         class="st19" /><g
         id="g40"><path
           style="fill:#09d1aa"
           id="path42"
           d="m 599.1,618.4 c -29.2,-29.7 -49.7,-67.5 -58.3,-108.5 -0.8,-3.2 -1.5,-6.9 -2.1,-11 -38.9,33 -62.3,81 -64.1,131.8 l -0.1,9.1 c 0,3.7 0.2,7.3 0.5,11 35.5,-24.3 61.5,-55.2 76.5,-93.5 14,29.9 32.5,48.1 47.5,61.6 0,-0.2 0.1,-0.4 0.1,-0.5 z"
           class="st19" /></g><path
         style="fill:#09d1aa"
         id="path44"
         d="m 710.1,504.1 c -40.5,9.9 -83.4,8.2 -123,-5.4 -3.1,-1 -6.7,-2.3 -10.5,-3.8 8.4,50.4 37.7,95 80.4,122.5 l 7.8,4.8 c 3.2,1.8 6.4,3.6 9.7,5.2 -2.8,-42.9 -16,-81.1 -41.2,-113.6 32.8,3.2 58,-3.3 77.2,-9.3 -0.2,-0.2 -0.3,-0.3 -0.4,-0.4 z"
         class="st19" /><path
         style="fill:#09d1aa"
         id="path46"
         d="m 401.1,425.4 c 40.4,-10.4 83.3,-9.3 123.1,3.8 3.1,0.9 6.7,2.2 10.6,3.7 -9.1,-50.2 -39,-94.5 -82,-121.4 l -7.8,-4.6 c -3.2,-1.8 -6.5,-3.5 -9.8,-5.1 3.3,42.9 17.1,80.8 42.8,113 -32.9,-2.8 -57.9,4.1 -77.1,10.3 0,0 0.1,0.1 0.2,0.3 z"
         class="st19" /><path
         style="fill:#09d1aa"
         id="path48"
         d="m 444.3,578.4 c 11.9,-39.9 35.1,-76.2 66.8,-103.4 2.4,-2.2 5.3,-4.6 8.6,-7.1 -47.7,-18.1 -101,-15.4 -146.4,7.5 l -8,4.3 c -3.2,1.8 -6.3,3.7 -9.4,5.7 38.5,19.3 78,27.1 118.8,21.8 -19.4,26.7 -26.4,51.7 -31,71.3 0.3,-0.1 0.4,-0.1 0.6,-0.1 z"
         class="st19" /></g></g><g
     transform="translate(0,-301)"
     id="Layer_21" /><g
     transform="translate(0,-301)"
     id="Layer_22" /><g
     transform="translate(0,-301)"
     id="Layer_23" /><g
     transform="translate(0,-301)"
     id="Layer_24"><defs
       id="defs54"><rect
         height="1111"
         width="1111"
         y="1131"
         x="-9918.7998"
         id="SVGID_33_" /></defs><clipPath
       id="SVGID_1_"><use
         height="100%"
         width="100%"
         y="0"
         x="0"
         id="use58"
         style="overflow:visible"
         xlink:href="#SVGID_33_" /></clipPath></g><g
     transform="translate(0,-301)"
     id="Layer_25" /><g
     transform="translate(0,-301)"
     id="Layer_26"><defs
       id="defs62"><path
         d="m 4311.4,320.4 c -20.3,-48.1 -49.5,-91.3 -86.6,-128.4 -37.1,-37.1 -80.3,-66.2 -128.4,-86.6 -49.8,-21.1 -102.7,-31.8 -157.3,-31.8 -54.6,0 -107.4,10.7 -157.3,31.8 -48.1,20.3 -91.3,49.5 -128.4,86.6 -37.1,37.1 -66.2,80.3 -86.6,128.4 -21.1,49.8 -31.8,102.7 -31.8,157.3 0,54.6 10.7,107.4 31.8,157.3 20.3,48.1 49.5,91.3 86.6,128.4 37.1,37.1 80.3,66.2 128.4,86.6 49.8,21.1 102.7,31.8 157.3,31.8 54.6,0 107.4,-10.7 157.3,-31.8 48.1,-20.3 91.3,-49.5 128.4,-86.6 37.1,-37.1 66.2,-80.3 86.6,-128.4 21.1,-49.8 31.8,-102.7 31.8,-157.3 0,-54.6 -10.7,-107.5 -31.8,-157.3 z m -67.9,323.3 c -2.2,-69.9 -39.8,-131 -95.4,-166.1 55.3,-34.8 92.7,-95.5 95.4,-164.8 54.7,34.8 91.1,96 91.1,165.5 -0.1,69.5 -36.4,130.6 -91.1,165.4 z m -203.9,202.7 c -33.2,0 -64.6,-8.3 -92,-23 55.4,-34.7 93,-95.3 95.8,-164.6 28.4,15 60.8,23.6 95.1,23.6 35.1,0 68.1,-8.9 97,-24.6 -3.9,104.6 -90.3,188.6 -195.9,188.6 z M 3643.8,657.9 c 28.5,15.1 61,23.7 95.4,23.7 34.9,0 67.8,-8.8 96.6,-24.3 2.3,70 40.1,131.2 95.9,166.1 -27.5,14.7 -58.8,23 -92,23 -105.6,0 -192,-83.9 -195.9,-188.5 z M 3543.2,477.6 c 0,-70.1 37,-131.8 92.5,-166.4 2.1,70.1 39.7,131.3 95.4,166.4 -55.7,35.1 -93.3,96.3 -95.4,166.4 -55.5,-34.6 -92.5,-96.2 -92.5,-166.4 z M 3839.6,109 c 33.2,0 64.6,8.3 92,23 -55.8,34.9 -93.5,96.1 -95.9,166 -28.8,-15.5 -61.7,-24.3 -96.6,-24.3 -34.4,0 -66.9,8.6 -95.4,23.7 4.1,-104.6 90.4,-188.4 195.9,-188.4 z m 395.9,189.9 c -28.9,-15.7 -61.9,-24.6 -97,-24.6 -34.3,0 -66.6,8.5 -95,23.5 -2.4,-69.9 -40.2,-131 -95.9,-165.9 27.5,-14.7 58.8,-23 92,-23 106,0.1 192.7,84.7 195.9,190 z M 3747,477.7 c 27.6,-14.9 59.1,-23.3 92.6,-23.3 31.4,0 61,7.4 87.3,20.6 1.4,0.9 2.8,1.8 4.2,2.7 -1.4,0.9 -2.8,1.8 -4.2,2.7 0,0 -15.1,10.2 -23.7,18.4 -41,36.9 -67,90.2 -67.6,149.4 -28.5,16.2 -61.4,25.4 -96.5,25.4 -34.7,0 -67.3,-9.1 -95.5,-24.9 0.6,-70.6 38.7,-132.4 95.2,-166.4 l 8.2,-4.6 z m 96.8,165.6 c 2.3,-65 36.4,-122 87.2,-156 1.2,-0.6 2.5,-1.3 3.7,-1.9 0,1.3 0.1,2.6 0.2,3.9 0,0 0.9,17.8 4,30.5 11.9,57.2 47.9,105.8 96.8,134.5 -1.4,69.9 -39.6,131 -95.9,164.5 -56.8,-33.8 -95.1,-95.5 -96,-166.1 l 0,-9.4 z m 191.7,1.7 c -52.8,-32.8 -89,-89.9 -92.7,-155.6 0.1,-1.6 0.2,-3.2 0.2,-4.8 1.7,0.9 3.5,1.8 5.3,2.7 0,0 9,5.4 27.7,11.4 20,6.6 41.4,10.2 63.6,10.2 36.6,0 71,-9.7 100.7,-26.7 56.5,34 94.6,95.7 95.2,166.2 -28.6,16.4 -61.8,25.8 -97.1,25.8 -34.4,0 -66.8,-8.9 -94.9,-24.6 l -8,-4.6 z m 96.7,-167.3 c -27.6,14.9 -59.1,23.3 -92.6,23.3 -31.4,0 -61,-7.4 -87.3,-20.6 -1.4,-0.9 -2.8,-1.8 -4.2,-2.7 1.4,-0.9 2.8,-1.8 4.2,-2.7 0,0 20,-14.3 23.7,-18.4 41.1,-37 67.1,-90.3 67.6,-149.7 28.1,-15.6 60.5,-24.6 94.9,-24.6 35.3,0 68.4,9.4 97.1,25.8 -1.1,70 -39,131.2 -95.2,165 l -8.2,4.6 z m -193.3,-41.6 c -11.8,-56.7 -47.1,-104.8 -95.3,-133.6 0.9,-70.5 39.2,-132.2 96,-166 56.7,33.8 95,95.3 96,165.8 l -0.1,9.4 c -2.2,65.2 -36.3,122.3 -87.2,156.4 -1.8,0.9 -3.5,1.8 -5.3,2.7 0,-1.4 -0.1,-2.8 -0.2,-4.2 0.1,-0.1 -0.7,-17.3 -3.9,-30.5 z m -35.7,20.4 c -20,-6.6 -41.4,-10.2 -63.6,-10.2 -36.6,0 -71,9.7 -100.7,26.7 -56.6,-34.1 -94.7,-95.9 -95.2,-166.5 28.3,-15.9 60.9,-24.9 95.5,-24.9 35,0 68,9.3 96.5,25.4 l 8.1,4.9 c 52,32.9 87.5,89.6 91.1,154.6 -0.1,1.1 -0.1,2.3 -0.2,3.4 -1.2,-0.7 -2.5,-1.3 -3.8,-1.9 0,0 -12.1,-6.3 -27.7,-11.5 z m 400.9,-133 c 10.9,25.8 19,52.5 24.2,79.9 -16.6,-41.8 -46.6,-76.9 -84.6,-99.8 -0.3,-46 -16,-88.5 -42.1,-122.5 6,5.3 11.9,10.9 17.7,16.6 36.3,36.3 64.8,78.6 84.8,125.8 z M 4067.5,102.9 c -9.1,-1.3 -18.4,-1.9 -27.9,-1.9 -36.3,0 -70.4,9.5 -100,26.2 -29.6,-16.7 -63.7,-26.2 -100,-26.2 -10,0 -19.8,0.7 -29.4,2.1 41.3,-14.3 84.6,-21.5 128.9,-21.5 44.2,0 87.3,7.2 128.4,21.3 z m -493.2,220.6 c 19.9,-47.2 48.5,-89.5 84.9,-125.9 6.6,-6.6 13.5,-13 20.5,-19.1 -27,34 -43.3,76.9 -44,123.4 -37.7,22.3 -67.6,56.3 -84.7,97 5.2,-25.7 12.9,-51 23.3,-75.4 z m 0,308.3 c -10.3,-24.5 -18.1,-49.7 -23.3,-75.5 17.1,40.7 47,74.8 84.7,97 0.7,46.4 16.9,89.2 43.8,123.2 -6.9,-6 -13.7,-12.3 -20.2,-18.9 -36.5,-36.3 -65.1,-78.7 -85,-125.8 z m 236.4,220.5 c 9.5,1.3 19.1,2.1 28.9,2.1 36.3,0 70.4,-9.5 100,-26.2 29.6,16.7 63.7,26.2 100,26.2 9.3,0 18.5,-0.6 27.5,-1.9 -41,14 -83.9,21.1 -127.9,21.1 -44.2,0 -87.3,-7.1 -128.5,-21.3 z m 493.4,-220.5 c -19.9,47.2 -48.5,89.5 -84.9,125.9 -5.7,5.7 -11.5,11.1 -17.5,16.4 25.7,-33.7 41.3,-75.5 41.8,-121 37.7,-22.8 67.5,-57.4 84.2,-98.6 -5.2,26.4 -13.1,52.2 -23.6,77.3 z"
         id="SVGID_35_" /></defs><clipPath
       id="SVGID_2_"><use
         height="100%"
         width="100%"
         y="0"
         x="0"
         id="use66"
         style="overflow:visible"
         xlink:href="#SVGID_35_" /></clipPath></g></svg>
