<?xml version="1.0" encoding="utf-8"?>
<!-- Generator: Adobe Illustrator 22.1.0, SVG Export Plug-In . SVG Version: 6.00 Build 0)  -->
<svg version="1.1" xmlns="http://www.w3.org/2000/svg" xmlns:xlink="http://www.w3.org/1999/xlink" x="0px" y="0px"
	 viewBox="0 0 1111 1111" style="enable-background:new 0 0 1111 1111;" xml:space="preserve">
<style type="text/css">
	.st0{display:none;}
	.st1{display:inline;}
	.st2{fill:url(#SVGID_1_);}
	.st3{fill:url(#SVGID_2_);}
	.st4{fill:url(#SVGID_3_);}
	.st5{fill:url(#SVGID_4_);}
	.st6{fill:url(#SVGID_5_);}
	.st7{fill:url(#SVGID_6_);}
	.st8{display:inline;fill:none;}
	.st9{display:inline;fill:none;stroke:#FFFFFF;stroke-width:2.126;stroke-miterlimit:10;}
	.st10{fill:url(#SVGID_7_);}
	.st11{fill:url(#SVGID_8_);}
	.st12{fill:url(#SVGID_9_);}
	.st13{fill:url(#SVGID_10_);}
	.st14{fill:url(#SVGID_11_);}
	.st15{fill:url(#SVGID_12_);}
	.st16{fill:#958757;}
	.st17{opacity:0.48;}
	.st18{fill:none;}
	.st19{fill:#09D1AA;}
	.st20{fill:#2B2B2B;}
	.st21{fill:url(#SVGID_13_);}
	.st22{fill:url(#SVGID_14_);}
	.st23{fill:url(#SVGID_15_);}
	.st24{fill:url(#SVGID_16_);}
	.st25{fill:url(#SVGID_17_);}
	.st26{fill:url(#SVGID_18_);}
	.st27{fill:url(#SVGID_19_);}
	.st28{fill:url(#SVGID_20_);}
	.st29{fill:url(#SVGID_21_);}
	.st30{fill:url(#SVGID_22_);}
	.st31{fill:url(#SVGID_23_);}
	.st32{fill:url(#SVGID_24_);}
	.st33{fill:url(#SVGID_25_);}
	.st34{fill:url(#SVGID_26_);}
	.st35{fill:url(#SVGID_27_);}
	.st36{fill:url(#SVGID_28_);}
	.st37{fill:url(#SVGID_29_);}
	.st38{fill:url(#SVGID_30_);}
	.st39{fill:url(#SVGID_31_);}
	.st40{fill:#FFFFFF;}
	.st41{fill:url(#SVGID_32_);}
	.st42{font-family:'Optima-Regular';}
	.st43{font-size:60px;}
	.st44{letter-spacing:46;}
	.st45{clip-path:url(#SVGID_34_);}
	.st46{opacity:0.48;clip-path:url(#SVGID_36_);}
	.st47{fill:url(#SVGID_37_);}
	.st48{fill:url(#SVGID_38_);}
	.st49{fill:url(#SVGID_39_);}
	.st50{fill:url(#SVGID_40_);}
	.st51{fill:url(#SVGID_41_);}
	.st52{fill:url(#SVGID_42_);}
	.st53{fill:url(#SVGID_43_);}
	.st54{fill:url(#SVGID_44_);}
	.st55{fill:url(#SVGID_45_);}
	.st56{fill:url(#SVGID_46_);}
	.st57{fill:url(#SVGID_47_);}
	.st58{fill:url(#SVGID_48_);}
	.st59{fill:url(#SVGID_49_);}
	.st60{fill:url(#SVGID_50_);}
	.st61{fill:url(#SVGID_51_);}
	.st62{fill:url(#SVGID_52_);}
	.st63{fill:url(#SVGID_53_);}
	.st64{fill:url(#SVGID_54_);}
</style>
<g id="Layer_13">
</g>
<g id="mandala">
	<g id="ROUND_BG">
	</g>
	<g id="OG" class="st0">
	</g>
	<g id="Layer_6_copy">
	</g>
	<g id="gradient">
	</g>
	<g id="GREEN" class="st0">
	</g>
	<g id="Layer_8" class="st0">
	</g>
	<g id="Layer_9">
	</g>
</g>
<g id="mandala_copy">
	<g id="ROUND_BG_copy">
	</g>
	<g id="OG_copy" class="st0">
	</g>
	<g id="Layer_6_copy_2">
	</g>
	<g id="gradient_copy">
	</g>
	<g id="GREEN_copy" class="st0">
	</g>
	<g id="Layer_8_copy" class="st0">
	</g>
	<g id="Layer_9_copy">
	</g>
</g>
<g id="Layer_7">
</g>
<g id="Layer_20">
</g>
<g id="Layer_19">
</g>
<g id="Layer_21">
</g>
<g id="Layer_22">
	<g>
		<text transform="matrix(1 0 0 1 361.4414 572.9249)" class="st19 st42 st43 st44">MANAVEDA</text>
		<g>
			<path class="st16" d="M288.7,506.6c-6.3-14.9-15.4-28.4-26.9-39.9c-11.5-11.5-25-20.6-39.9-26.9c-15.5-6.5-31.9-9.9-48.9-9.9
				s-33.4,3.3-48.9,9.9c-14.9,6.3-28.4,15.4-39.9,26.9c-11.5,11.5-20.6,25-26.9,39.9c-6.5,15.5-9.9,31.9-9.9,48.9s3.3,33.4,9.9,48.9
				c6.3,15,15.4,28.4,26.9,39.9c11.5,11.5,25,20.6,39.9,26.9c15.5,6.5,31.9,9.9,48.9,9.9s33.4-3.3,48.9-9.9
				c15-6.3,28.4-15.4,39.9-26.9c11.5-11.5,20.6-25,26.9-39.9c6.5-15.5,9.9-31.9,9.9-48.9S295.3,522.1,288.7,506.6z M267.6,607.1
				c-0.7-21.7-12.4-40.7-29.7-51.6c17.2-10.8,28.8-29.7,29.6-51.2c17,10.8,28.3,29.8,28.3,51.4C295.9,577.3,284.6,596.3,267.6,607.1
				z M204.3,670.1c-10.3,0-20.1-2.6-28.6-7.1c17.2-10.8,28.9-29.6,29.8-51.2c8.8,4.7,18.9,7.3,29.5,7.3c10.9,0,21.2-2.8,30.1-7.6
				C263.9,644,237.1,670.1,204.3,670.1z M81.2,611.5c8.9,4.7,18.9,7.4,29.6,7.4c10.8,0,21.1-2.7,30-7.6
				c0.7,21.8,12.5,40.8,29.8,51.6c-8.5,4.6-18.3,7.1-28.6,7.1C109.3,670.1,82.5,644,81.2,611.5z M50,555.5
				c0-21.8,11.5-40.9,28.8-51.7c0.7,21.8,12.3,40.8,29.7,51.7c-17.3,10.9-29,29.9-29.7,51.7C61.5,596.4,50,577.3,50,555.5z
				 M142.1,440.9c10.3,0,20.1,2.6,28.6,7.1c-17.3,10.9-29.1,29.9-29.8,51.6c-8.9-4.8-19.2-7.6-30-7.6c-10.7,0-20.8,2.7-29.6,7.4
				C82.5,467,109.3,440.9,142.1,440.9z M265.1,500c-9-4.9-19.2-7.6-30.1-7.6c-10.7,0-20.7,2.6-29.5,7.3
				c-0.8-21.7-12.5-40.7-29.8-51.5c8.5-4.6,18.3-7.1,28.6-7.1C237.2,440.9,264.1,467.2,265.1,500z M113.3,555.5
				c8.6-4.6,18.4-7.2,28.8-7.2c9.7,0,19,2.3,27.1,6.4c0.4,0.3,0.9,0.6,1.3,0.8c-0.4,0.3-0.9,0.6-1.3,0.8c0,0-4.7,3.2-7.4,5.7
				c-12.7,11.5-20.8,28-21,46.4c-8.9,5-19.1,7.9-30,7.9c-10.8,0-20.9-2.8-29.7-7.7c0.2-21.9,12-41.1,29.6-51.7L113.3,555.5z
				 M143.4,607c0.7-20.2,11.3-37.9,27.1-48.5c0.4-0.2,0.8-0.4,1.2-0.6c0,0.4,0,0.8,0.1,1.2c0,0,0.3,5.5,1.2,9.5
				c3.7,17.8,14.9,32.9,30.1,41.8c-0.4,21.7-12.3,40.7-29.8,51.1c-17.6-10.5-29.6-29.7-29.8-51.6L143.4,607z M203,607.5
				c-16.4-10.2-27.7-27.9-28.8-48.4c0-0.5,0-1,0.1-1.5c0.5,0.3,1.1,0.6,1.6,0.8c0,0,2.8,1.7,8.6,3.6c6.2,2,12.9,3.2,19.8,3.2
				c11.4,0,22.1-3,31.3-8.3c17.6,10.6,29.4,29.7,29.6,51.6c-8.9,5.1-19.2,8-30.2,8c-10.7,0-20.7-2.8-29.5-7.6L203,607.5z M233,555.5
				c-8.6,4.6-18.4,7.2-28.8,7.2c-9.7,0-19-2.3-27.1-6.4c-0.4-0.3-0.9-0.6-1.3-0.8c0.4-0.3,0.9-0.6,1.3-0.8c0,0,6.2-4.4,7.4-5.7
				c12.8-11.5,20.8-28.1,21-46.5c8.7-4.9,18.8-7.6,29.5-7.6c11,0,21.3,2.9,30.2,8c-0.3,21.7-12.1,40.8-29.6,51.3L233,555.5z
				 M173,542.6c-3.7-17.6-14.6-32.6-29.6-41.5c0.3-21.9,12.2-41.1,29.8-51.6c17.6,10.5,29.5,29.6,29.8,51.5l0,2.9
				c-0.7,20.2-11.3,38-27.1,48.6c-0.5,0.3-1.1,0.6-1.6,0.8c0-0.4,0-0.9-0.1-1.3C174.2,552.1,174,546.7,173,542.6z M161.9,549
				c-6.2-2-12.9-3.2-19.8-3.2c-11.4,0-22.1,3-31.3,8.3c-17.6-10.6-29.4-29.8-29.6-51.7c8.8-4.9,18.9-7.7,29.7-7.7
				c10.9,0,21.1,2.9,30,7.9l2.5,1.5c16.1,10.2,27.2,27.8,28.3,48c0,0.4,0,0.7-0.1,1.1c-0.4-0.2-0.8-0.4-1.2-0.6
				C170.5,552.5,166.7,550.6,161.9,549z M286.4,507.6c3.4,8,5.9,16.3,7.5,24.8c-5.1-13-14.5-23.9-26.3-31
				c-0.1-14.3-5-27.5-13.1-38.1c1.9,1.7,3.7,3.4,5.5,5.2C271.4,479.8,280.2,492.9,286.4,507.6z M212.9,439c-2.8-0.4-5.7-0.6-8.7-0.6
				c-11.3,0-21.9,3-31.1,8.2c-9.2-5.2-19.8-8.2-31.1-8.2c-3.1,0-6.1,0.2-9.1,0.7c12.8-4.4,26.3-6.7,40.1-6.7
				C186.8,432.4,200.1,434.7,212.9,439z M59.7,507.6c6.2-14.7,15.1-27.8,26.4-39.1c2.1-2.1,4.2-4,6.4-5.9
				c-8.4,10.6-13.5,23.9-13.7,38.4c-11.7,6.9-21,17.5-26.3,30.2C54,523,56.4,515.2,59.7,507.6z M59.7,603.4
				c-3.2-7.6-5.6-15.4-7.2-23.4c5.3,12.7,14.6,23.2,26.3,30.2c0.2,14.4,5.3,27.7,13.6,38.3c-2.2-1.9-4.3-3.8-6.3-5.9
				C74.7,631.2,65.9,618.1,59.7,603.4z M133.1,671.9c2.9,0.4,5.9,0.6,9,0.6c11.3,0,21.9-3,31.1-8.2c9.2,5.2,19.8,8.2,31.1,8.2
				c2.9,0,5.7-0.2,8.5-0.6c-12.7,4.4-26.1,6.6-39.7,6.6C159.3,678.6,145.9,676.3,133.1,671.9z M286.4,603.4
				c-6.2,14.7-15.1,27.8-26.4,39.1c-1.8,1.8-3.6,3.5-5.4,5.1c8-10.5,12.8-23.5,13-37.6c11.7-7.1,21-17.8,26.2-30.6
				C292.2,587.6,289.7,595.6,286.4,603.4z"/>
			<g class="st17">
				<path class="st18" d="M288.7,506.6c-6.3-14.9-15.4-28.4-26.9-39.9c-11.5-11.5-25-20.6-39.9-26.9c-15.5-6.5-31.9-9.9-48.9-9.9
					s-33.4,3.3-48.9,9.9c-14.9,6.3-28.4,15.4-39.9,26.9c-11.5,11.5-20.6,25-26.9,39.9c-6.5,15.5-9.9,31.9-9.9,48.9
					s3.3,33.4,9.9,48.9c6.3,15,15.4,28.4,26.9,39.9c11.5,11.5,25,20.6,39.9,26.9c15.5,6.5,31.9,9.9,48.9,9.9s33.4-3.3,48.9-9.9
					c15-6.3,28.4-15.4,39.9-26.9c11.5-11.5,20.6-25,26.9-39.9c6.5-15.5,9.9-31.9,9.9-48.9S295.3,522.1,288.7,506.6z M267.6,607.1
					c-0.7-21.7-12.4-40.7-29.7-51.6c17.2-10.8,28.8-29.7,29.6-51.2c17,10.8,28.3,29.8,28.3,51.4
					C295.9,577.3,284.6,596.3,267.6,607.1z M204.3,670.1c-10.3,0-20.1-2.6-28.6-7.1c17.2-10.8,28.9-29.6,29.8-51.2
					c8.8,4.7,18.9,7.3,29.5,7.3c10.9,0,21.2-2.8,30.1-7.6C263.9,644,237.1,670.1,204.3,670.1z M81.2,611.5
					c8.9,4.7,18.9,7.4,29.6,7.4c10.8,0,21.1-2.7,30-7.6c0.7,21.8,12.5,40.8,29.8,51.6c-8.5,4.6-18.3,7.1-28.6,7.1
					C109.3,670.1,82.5,644,81.2,611.5z M50,555.5c0-21.8,11.5-40.9,28.8-51.7c0.7,21.8,12.3,40.8,29.7,51.7
					c-17.3,10.9-29,29.9-29.7,51.7C61.5,596.4,50,577.3,50,555.5z M142.1,440.9c10.3,0,20.1,2.6,28.6,7.1
					c-17.3,10.9-29.1,29.9-29.8,51.6c-8.9-4.8-19.2-7.6-30-7.6c-10.7,0-20.8,2.7-29.6,7.4C82.5,467,109.3,440.9,142.1,440.9z
					 M265.1,500c-9-4.9-19.2-7.6-30.1-7.6c-10.7,0-20.7,2.6-29.5,7.3c-0.8-21.7-12.5-40.7-29.8-51.5c8.5-4.6,18.3-7.1,28.6-7.1
					C237.2,440.9,264.1,467.2,265.1,500z M113.3,555.5c8.6-4.6,18.4-7.2,28.8-7.2c9.7,0,19,2.3,27.1,6.4c0.4,0.3,0.9,0.6,1.3,0.8
					c-0.4,0.3-0.9,0.6-1.3,0.8c0,0-4.7,3.2-7.4,5.7c-12.7,11.5-20.8,28-21,46.4c-8.9,5-19.1,7.9-30,7.9c-10.8,0-20.9-2.8-29.7-7.7
					c0.2-21.9,12-41.1,29.6-51.7L113.3,555.5z M143.4,607c0.7-20.2,11.3-37.9,27.1-48.5c0.4-0.2,0.8-0.4,1.2-0.6
					c0,0.4,0,0.8,0.1,1.2c0,0,0.3,5.5,1.2,9.5c3.7,17.8,14.9,32.9,30.1,41.8c-0.4,21.7-12.3,40.7-29.8,51.1
					c-17.6-10.5-29.6-29.7-29.8-51.6L143.4,607z M203,607.5c-16.4-10.2-27.7-27.9-28.8-48.4c0-0.5,0-1,0.1-1.5
					c0.5,0.3,1.1,0.6,1.6,0.8c0,0,2.8,1.7,8.6,3.6c6.2,2,12.9,3.2,19.8,3.2c11.4,0,22.1-3,31.3-8.3c17.6,10.6,29.4,29.7,29.6,51.6
					c-8.9,5.1-19.2,8-30.2,8c-10.7,0-20.7-2.8-29.5-7.6L203,607.5z M233,555.5c-8.6,4.6-18.4,7.2-28.8,7.2c-9.7,0-19-2.3-27.1-6.4
					c-0.4-0.3-0.9-0.6-1.3-0.8c0.4-0.3,0.9-0.6,1.3-0.8c0,0,6.2-4.4,7.4-5.7c12.8-11.5,20.8-28.1,21-46.5c8.7-4.9,18.8-7.6,29.5-7.6
					c11,0,21.3,2.9,30.2,8c-0.3,21.7-12.1,40.8-29.6,51.3L233,555.5z M173,542.6c-3.7-17.6-14.6-32.6-29.6-41.5
					c0.3-21.9,12.2-41.1,29.8-51.6c17.6,10.5,29.5,29.6,29.8,51.5l0,2.9c-0.7,20.2-11.3,38-27.1,48.6c-0.5,0.3-1.1,0.6-1.6,0.8
					c0-0.4,0-0.9-0.1-1.3C174.2,552.1,174,546.7,173,542.6z M161.9,549c-6.2-2-12.9-3.2-19.8-3.2c-11.4,0-22.1,3-31.3,8.3
					c-17.6-10.6-29.4-29.8-29.6-51.7c8.8-4.9,18.9-7.7,29.7-7.7c10.9,0,21.1,2.9,30,7.9l2.5,1.5c16.1,10.2,27.2,27.8,28.3,48
					c0,0.4,0,0.7-0.1,1.1c-0.4-0.2-0.8-0.4-1.2-0.6C170.5,552.5,166.7,550.6,161.9,549z M286.4,507.6c3.4,8,5.9,16.3,7.5,24.8
					c-5.1-13-14.5-23.9-26.3-31c-0.1-14.3-5-27.5-13.1-38.1c1.9,1.7,3.7,3.4,5.5,5.2C271.4,479.8,280.2,492.9,286.4,507.6z
					 M212.9,439c-2.8-0.4-5.7-0.6-8.7-0.6c-11.3,0-21.9,3-31.1,8.2c-9.2-5.2-19.8-8.2-31.1-8.2c-3.1,0-6.1,0.2-9.1,0.7
					c12.8-4.4,26.3-6.7,40.1-6.7C186.8,432.4,200.1,434.7,212.9,439z M59.7,507.6c6.2-14.7,15.1-27.8,26.4-39.1
					c2.1-2.1,4.2-4,6.4-5.9c-8.4,10.6-13.5,23.9-13.7,38.4c-11.7,6.9-21,17.5-26.3,30.2C54,523,56.4,515.2,59.7,507.6z M59.7,603.4
					c-3.2-7.6-5.6-15.4-7.2-23.4c5.3,12.7,14.6,23.2,26.3,30.2c0.2,14.4,5.3,27.7,13.6,38.3c-2.2-1.9-4.3-3.8-6.3-5.9
					C74.7,631.2,65.9,618.1,59.7,603.4z M133.1,671.9c2.9,0.4,5.9,0.6,9,0.6c11.3,0,21.9-3,31.1-8.2c9.2,5.2,19.8,8.2,31.1,8.2
					c2.9,0,5.7-0.2,8.5-0.6c-12.7,4.4-26.1,6.6-39.7,6.6C159.3,678.6,145.9,676.3,133.1,671.9z M286.4,603.4
					c-6.2,14.7-15.1,27.8-26.4,39.1c-1.8,1.8-3.6,3.5-5.4,5.1c8-10.5,12.8-23.5,13-37.6c11.7-7.1,21-17.8,26.2-30.6
					C292.2,587.6,289.7,595.6,286.4,603.4z"/>
			</g>
			<g>
				<path class="st19" d="M159.6,507.9c8.9,9.4,15,21.3,17.3,34.1c0.2,1,0.4,2.1,0.6,3.4c12.3-10,19.9-24.7,20.8-40.5l0.1-2.8
					c0-1.1,0-2.3-0.1-3.4c-11.2,7.3-19.5,16.7-24.4,28.5c-4.1-9.4-9.8-15.2-14.3-19.5C159.6,507.9,159.6,507.9,159.6,507.9z"/>
				<path class="st19" d="M208,520.1c-3.6,12.4-10.8,23.7-20.6,32.3c-0.7,0.7-1.6,1.4-2.7,2.2c14.9,5.5,31.4,4.6,45.5-2.6l2.5-1.4
					c1-0.6,2-1.2,2.9-1.8c-12-5.9-24.3-8.3-37-6.5c6-8.3,8.1-16.1,9.5-22.2C208.1,520,208.1,520,208,520.1z"/>
				<g>
					<path class="st19" d="M186.6,603.3c-9.1-9.2-15.5-21-18.1-33.7c-0.2-1-0.5-2.1-0.6-3.4c-12.1,10.3-19.4,25.2-19.9,40.9l0,2.8
						c0,1.1,0.1,2.3,0.2,3.4c11-7.6,19.1-17.2,23.8-29.1c4.4,9.3,10.1,15,14.8,19.1C186.6,603.4,186.6,603.3,186.6,603.3z"/>
				</g>
				<path class="st19" d="M221.1,567.8c-12.6,3.1-25.9,2.5-38.2-1.7c-1-0.3-2.1-0.7-3.3-1.2c2.6,15.6,11.7,29.5,25,38.1l2.4,1.5
					c1,0.6,2,1.1,3,1.6c-0.9-13.3-5-25.2-12.8-35.3c10.2,1,18-1,24-2.9C221.2,567.9,221.1,567.8,221.1,567.8z"/>
				<path class="st19" d="M125.1,543.3c12.5-3.2,25.9-2.9,38.2,1.2c1,0.3,2.1,0.7,3.3,1.2c-2.8-15.6-12.1-29.4-25.5-37.7l-2.4-1.4
					c-1-0.6-2-1.1-3-1.6c1,13.3,5.3,25.1,13.3,35.1c-10.2-0.9-18,1.3-24,3.2C125,543.2,125,543.3,125.1,543.3z"/>
				<path class="st19" d="M138.5,590.9c3.7-12.4,10.9-23.7,20.8-32.1c0.7-0.7,1.7-1.4,2.7-2.2c-14.8-5.6-31.4-4.8-45.5,2.3l-2.5,1.3
					c-1,0.6-2,1.2-2.9,1.8c12,6,24.2,8.4,36.9,6.8c-6,8.3-8.2,16.1-9.6,22.2C138.4,590.9,138.4,590.9,138.5,590.9z"/>
			</g>
		</g>
	</g>
</g>
<g id="Layer_23">
</g>
<g id="Layer_24">
	<defs>
		<rect id="SVGID_33_" x="-3393" width="1111" height="1111"/>
	</defs>
	<clipPath id="SVGID_1_">
		<use xlink:href="#SVGID_33_"  style="overflow:visible;"/>
	</clipPath>
</g>
<g id="Layer_25">
</g>
<g id="Layer_26">
	<defs>
		<path id="SVGID_35_" d="M10837.2-810.6c-20.3-48.1-49.5-91.3-86.6-128.4c-37.1-37.1-80.3-66.2-128.4-86.6
			c-49.8-21.1-102.7-31.8-157.3-31.8s-107.4,10.7-157.3,31.8c-48.1,20.3-91.3,49.5-128.4,86.6c-37.1,37.1-66.2,80.3-86.6,128.4
			c-21.1,49.8-31.8,102.7-31.8,157.3s10.7,107.4,31.8,157.3c20.3,48.1,49.5,91.3,86.6,128.4c37.1,37.1,80.3,66.2,128.4,86.6
			c49.8,21.1,102.7,31.8,157.3,31.8s107.4-10.7,157.3-31.8c48.1-20.3,91.3-49.5,128.4-86.6c37.1-37.1,66.2-80.3,86.6-128.4
			c21.1-49.8,31.8-102.7,31.8-157.3S10858.3-760.8,10837.2-810.6z M10769.3-487.3c-2.2-69.9-39.8-131-95.4-166.1
			c55.3-34.8,92.7-95.5,95.4-164.8c54.7,34.8,91.1,96,91.1,165.5C10860.3-583.2,10824-522.1,10769.3-487.3z M10565.4-284.6
			c-33.2,0-64.6-8.3-92-23c55.4-34.7,93-95.3,95.8-164.6c28.4,15,60.8,23.6,95.1,23.6c35.1,0,68.1-8.9,97-24.6
			C10757.4-368.6,10671-284.6,10565.4-284.6z M10169.6-473.1c28.5,15.1,61,23.7,95.4,23.7c34.9,0,67.8-8.8,96.6-24.3
			c2.3,70,40.1,131.2,95.9,166.1c-27.5,14.7-58.8,23-92,23C10259.9-284.6,10173.5-368.5,10169.6-473.1z M10069-653.4
			c0-70.1,37-131.8,92.5-166.4c2.1,70.1,39.7,131.3,95.4,166.4c-55.7,35.1-93.3,96.3-95.4,166.4
			C10106-521.6,10069-583.2,10069-653.4z M10365.4-1022c33.2,0,64.6,8.3,92,23c-55.8,34.9-93.5,96.1-95.9,166
			c-28.8-15.5-61.7-24.3-96.6-24.3c-34.4,0-66.9,8.6-95.4,23.7C10173.6-938.2,10259.9-1022,10365.4-1022z M10761.3-832.1
			c-28.9-15.7-61.9-24.6-97-24.6c-34.3,0-66.6,8.5-95,23.5c-2.4-69.9-40.2-131-95.9-165.9c27.5-14.7,58.8-23,92-23
			C10671.4-1022,10758.1-937.4,10761.3-832.1z M10272.8-653.3c27.6-14.9,59.1-23.3,92.6-23.3c31.4,0,61,7.4,87.3,20.6
			c1.4,0.9,2.8,1.8,4.2,2.7c-1.4,0.9-2.8,1.8-4.2,2.7c0,0-15.1,10.2-23.7,18.4c-41,36.9-67,90.2-67.6,149.4
			c-28.5,16.2-61.4,25.4-96.5,25.4c-34.7,0-67.3-9.1-95.5-24.9c0.6-70.6,38.7-132.4,95.2-166.4L10272.8-653.3z M10369.6-487.7
			c2.3-65,36.4-122,87.2-156c1.2-0.6,2.5-1.3,3.7-1.9c0,1.3,0.1,2.6,0.2,3.9c0,0,0.9,17.8,4,30.5c11.9,57.2,47.9,105.8,96.8,134.5
			c-1.4,69.9-39.6,131-96,164.5c-56.8-33.8-95.1-95.5-96-166.1L10369.6-487.7z M10561.3-486c-52.8-32.8-89-89.9-92.7-155.6
			c0.1-1.6,0.2-3.2,0.2-4.8c1.7,0.9,3.5,1.8,5.3,2.7c0,0,9,5.4,27.7,11.4c20,6.6,41.4,10.2,63.6,10.2c36.6,0,71-9.7,100.7-26.7
			c56.5,34,94.6,95.7,95.2,166.2c-28.6,16.4-61.8,25.8-97.1,25.8c-34.4,0-66.8-8.9-94.9-24.6L10561.3-486z M10658-653.3
			c-27.6,14.9-59.1,23.3-92.6,23.3c-31.4,0-61-7.4-87.3-20.6c-1.4-0.9-2.8-1.8-4.2-2.7c1.4-0.9,2.8-1.8,4.2-2.7
			c0,0,20-14.3,23.7-18.4c41.1-37,67.1-90.3,67.6-149.7c28.1-15.6,60.5-24.6,94.9-24.6c35.3,0,68.4,9.4,97.1,25.8
			c-1.1,70-39,131.2-95.2,165L10658-653.3z M10464.7-694.9c-11.8-56.7-47.1-104.8-95.3-133.6c0.9-70.5,39.2-132.2,96-166
			c56.7,33.8,95,95.3,96,165.8l-0.1,9.4c-2.2,65.2-36.3,122.3-87.2,156.4c-1.8,0.9-3.5,1.8-5.3,2.7c0-1.4-0.1-2.8-0.2-4.2
			C10468.7-664.5,10467.9-681.7,10464.7-694.9z M10429-674.5c-20-6.6-41.4-10.2-63.6-10.2c-36.6,0-71,9.7-100.7,26.7
			c-56.6-34.1-94.7-95.9-95.2-166.5c28.3-15.9,60.9-24.9,95.5-24.9c35,0,68,9.3,96.5,25.4l8.1,4.9c52,32.9,87.5,89.6,91.1,154.6
			c-0.1,1.1-0.1,2.3-0.2,3.4c-1.2-0.7-2.5-1.3-3.8-1.9C10456.7-663,10444.6-669.3,10429-674.5z M10829.9-807.5
			c10.9,25.8,19,52.5,24.2,79.9c-16.6-41.8-46.6-76.9-84.6-99.8c-0.3-46-16-88.5-42.1-122.5c6,5.3,11.9,10.9,17.7,16.6
			C10781.4-897,10809.9-854.7,10829.9-807.5z M10593.3-1028.1c-9.1-1.3-18.4-1.9-27.9-1.9c-36.3,0-70.4,9.5-100,26.2
			c-29.6-16.7-63.7-26.2-100-26.2c-10,0-19.8,0.7-29.4,2.1c41.3-14.3,84.6-21.5,128.9-21.5
			C10509.1-1049.4,10552.2-1042.2,10593.3-1028.1z M10100.1-807.5c19.9-47.2,48.5-89.5,84.9-125.9c6.6-6.6,13.5-13,20.5-19.1
			c-27,34-43.3,76.9-44,123.4c-37.7,22.3-67.6,56.3-84.7,97C10082-757.8,10089.8-783.1,10100.1-807.5z M10100.1-499.2
			c-10.3-24.5-18.1-49.7-23.3-75.5c17.1,40.7,47,74.8,84.7,97c0.7,46.4,16.9,89.2,43.8,123.2c-6.9-6-13.7-12.3-20.2-18.9
			C10148.6-409.7,10120-452.1,10100.1-499.2z M10336.5-278.7c9.5,1.3,19.1,2.1,28.9,2.1c36.3,0,70.4-9.5,100-26.2
			c29.6,16.7,63.7,26.2,100,26.2c9.3,0,18.5-0.6,27.5-1.9c-41,14-83.9,21.1-127.9,21.1C10420.8-257.4,10377.7-264.5,10336.5-278.7z
			 M10829.9-499.2c-19.9,47.2-48.5,89.5-84.9,125.9c-5.7,5.7-11.5,11.1-17.5,16.4c25.7-33.7,41.3-75.5,41.8-121
			c37.7-22.8,67.5-57.4,84.2-98.6C10848.3-550.1,10840.4-524.3,10829.9-499.2z"/>
	</defs>
	<clipPath id="SVGID_2_">
		<use xlink:href="#SVGID_35_"  style="overflow:visible;"/>
	</clipPath>
</g>
</svg>
