<?xml version="1.0" encoding="utf-8"?>
<!-- Generator: Adobe Illustrator 22.1.0, SVG Export Plug-In . SVG Version: 6.00 Build 0)  -->
<svg version="1.1" xmlns="http://www.w3.org/2000/svg" xmlns:xlink="http://www.w3.org/1999/xlink" x="0px" y="0px"
	 viewBox="0 0 1111 1111" style="enable-background:new 0 0 1111 1111;" xml:space="preserve">
<style type="text/css">
	.st0{display:none;}
	.st1{display:inline;}
	.st2{fill:url(#SVGID_1_);}
	.st3{fill:url(#SVGID_2_);}
	.st4{fill:url(#SVGID_3_);}
	.st5{fill:url(#SVGID_4_);}
	.st6{fill:url(#SVGID_5_);}
	.st7{fill:url(#SVGID_6_);}
	.st8{display:inline;fill:none;}
	.st9{display:inline;fill:none;stroke:#FFFFFF;stroke-width:2.126;stroke-miterlimit:10;}
	.st10{fill:url(#SVGID_7_);}
	.st11{fill:url(#SVGID_8_);}
	.st12{fill:url(#SVGID_9_);}
	.st13{fill:url(#SVGID_10_);}
	.st14{fill:url(#SVGID_11_);}
	.st15{fill:url(#SVGID_12_);}
	.st16{fill:#958757;}
	.st17{opacity:0.48;}
	.st18{fill:none;}
	.st19{fill:#09D1AA;}
	.st20{fill:#2B2B2B;}
	.st21{fill:url(#SVGID_13_);}
	.st22{fill:url(#SVGID_14_);}
	.st23{fill:url(#SVGID_15_);}
	.st24{fill:url(#SVGID_16_);}
	.st25{fill:url(#SVGID_17_);}
	.st26{fill:url(#SVGID_18_);}
	.st27{fill:url(#SVGID_19_);}
	.st28{fill:url(#SVGID_20_);}
	.st29{fill:url(#SVGID_21_);}
	.st30{fill:url(#SVGID_22_);}
	.st31{fill:url(#SVGID_23_);}
	.st32{fill:url(#SVGID_24_);}
	.st33{fill:url(#SVGID_25_);}
	.st34{fill:url(#SVGID_26_);}
	.st35{fill:url(#SVGID_27_);}
	.st36{fill:url(#SVGID_28_);}
	.st37{fill:url(#SVGID_29_);}
	.st38{fill:url(#SVGID_30_);}
	.st39{fill:url(#SVGID_31_);}
	.st40{fill:#FFFFFF;}
	.st41{fill:url(#SVGID_32_);}
	.st42{font-family:'Optima-Regular';}
	.st43{font-size:60px;}
	.st44{letter-spacing:46;}
	.st45{clip-path:url(#SVGID_34_);}
	.st46{opacity:0.48;clip-path:url(#SVGID_36_);}
	.st47{fill:url(#SVGID_37_);}
	.st48{fill:url(#SVGID_38_);}
	.st49{fill:url(#SVGID_39_);}
	.st50{fill:url(#SVGID_40_);}
	.st51{fill:url(#SVGID_41_);}
	.st52{fill:url(#SVGID_42_);}
	.st53{fill:url(#SVGID_43_);}
	.st54{fill:url(#SVGID_44_);}
	.st55{fill:url(#SVGID_45_);}
	.st56{fill:url(#SVGID_46_);}
	.st57{fill:url(#SVGID_47_);}
	.st58{fill:url(#SVGID_48_);}
	.st59{fill:url(#SVGID_49_);}
	.st60{fill:url(#SVGID_50_);}
	.st61{fill:url(#SVGID_51_);}
	.st62{fill:url(#SVGID_52_);}
	.st63{fill:url(#SVGID_53_);}
	.st64{fill:url(#SVGID_54_);}
</style>
<g id="Layer_13">
</g>
<g id="mandala">
	<g id="ROUND_BG">
	</g>
	<g id="OG" class="st0">
	</g>
	<g id="Layer_6_copy">
	</g>
	<g id="gradient">
	</g>
	<g id="GREEN" class="st0">
		<g class="st1">
			<radialGradient id="SVGID_1_" cx="515.6353" cy="397.2156" r="136.2758" gradientUnits="userSpaceOnUse">
				<stop  offset="0" style="stop-color:#FFFFFF"/>
				<stop  offset="1" style="stop-color:#01B36F"/>
			</radialGradient>
			<path class="st2" d="M518.9,560.2c0.1,1.4,0.1,2.8,0.2,4.2c1.7-0.9,3.5-1.8,5.3-2.7c50.9-34,85-91.2,87.2-156.4l0.1-9.4
				c-1-70.4-39.3-132-96-165.8c-56.8,33.8-95.1,95.5-96,166c48.2,28.8,83.5,76.9,95.3,133.6C518.2,543,518.9,560.2,518.9,560.2z
				 M432.9,388.9c3.2-60,35.3-112.4,82.7-143.5c47.3,31,79.5,83.3,82.7,143.1c-13.3,8.5-25.8,18.5-37.3,29.9
				c-19.8,19.8-35.3,42.8-46.1,67.9c-10.7-25.3-26.4-48.5-46.4-68.5C457.6,406.8,445.7,397.1,432.9,388.9z"/>
			<radialGradient id="SVGID_2_" cx="667.8444" cy="485.2534" r="127.7101" gradientUnits="userSpaceOnUse">
				<stop  offset="0" style="stop-color:#FFFFFF"/>
				<stop  offset="1" style="stop-color:#01B36F"/>
			</radialGradient>
			<path class="st3" d="M552,550.2c-3.7,4.1-23.7,18.4-23.7,18.4c-1.4,0.9-2.8,1.8-4.2,2.7c1.4,0.9,2.8,1.8,4.2,2.7
				c26.3,13.2,56,20.6,87.3,20.6c33.5,0,65-8.4,92.6-23.3l8.1-4.6c56.2-33.8,94.1-95,95.2-165c-28.6-16.4-61.8-25.8-97.1-25.8
				c-34.4,0-66.8,8.9-94.9,24.6C619.1,459.8,593.1,513.2,552,550.2z M632.4,408.4c24.7-12.5,52.6-19.5,82.1-19.5
				c30.2,0,58.7,7.3,83.8,20.3c-3.4,59.4-35.4,111.3-82.3,142.3c-30.6-16-64.9-24.5-100.4-24.5c-8.8,0-17.6,0.5-26.2,1.6
				C615.5,493.8,630.5,452.3,632.4,408.4z"/>
			<radialGradient id="SVGID_3_" cx="365.2667" cy="470.9546" r="123.2108" gradientUnits="userSpaceOnUse">
				<stop  offset="0" style="stop-color:#FFFFFF"/>
				<stop  offset="1" style="stop-color:#01B36F"/>
			</radialGradient>
			<path class="st4" d="M510.9,560.2c-3.6-65-39.1-121.7-91.1-154.6l-8.1-4.9c-28.5-16.2-61.4-25.4-96.5-25.4
				c-34.7,0-67.3,9.1-95.5,24.9c0.6,70.6,38.6,132.4,95.2,166.5c29.7-17,64.1-26.7,100.7-26.7c22.2,0,43.6,3.6,63.6,10.2
				c15.6,5.2,27.7,11.4,27.7,11.4c1.3,0.6,2.5,1.3,3.8,1.9C510.8,562.4,510.8,561.3,510.9,560.2z M415.6,527
				c-35.5,0-69.8,8.5-100.4,24.5c-47.3-31.2-79.4-83.6-82.4-143.7c24.8-12.5,52.7-19.6,82.3-19.6c30.1,0,58.6,7.3,83.7,20.3
				c2,43.8,16.9,85.3,43,120C433.2,527.5,424.5,527,415.6,527z"/>
			<radialGradient id="SVGID_4_" cx="665.2317" cy="671.9232" r="123.7786" gradientUnits="userSpaceOnUse">
				<stop  offset="0" style="stop-color:#FFFFFF"/>
				<stop  offset="1" style="stop-color:#01B36F"/>
			</radialGradient>
			<path class="st5" d="M714.5,767.9c35.3,0,68.4-9.4,97.1-25.8c-0.7-70.5-38.7-132.2-95.2-166.2c-29.7,17-64.1,26.7-100.7,26.7
				c-22.2,0-43.6-3.6-63.6-10.2c-18.7-6.1-27.7-11.4-27.7-11.4c-1.8-0.9-3.5-1.8-5.3-2.7c-0.1,1.6-0.1,3.2-0.2,4.8
				c3.7,65.7,39.9,122.9,92.7,155.6l8.1,4.7C647.8,759,680.1,767.9,714.5,767.9z M589.4,614c8.6,1,17.4,1.6,26.2,1.6
				c35.5,0,69.8-8.5,100.4-24.5c47.2,31.1,79.3,83.5,82.4,143.5c-25.1,13-53.7,20.4-83.9,20.4c-29.5,0-57.4-7-82.1-19.5
				C630.7,691.1,615.8,649.1,589.4,614z"/>
			<radialGradient id="SVGID_5_" cx="363.4201" cy="657.6242" r="127.8383" gradientUnits="userSpaceOnUse">
				<stop  offset="0" style="stop-color:#FFFFFF"/>
				<stop  offset="1" style="stop-color:#01B36F"/>
			</radialGradient>
			<path class="st6" d="M415.6,548c-33.5,0-65,8.4-92.6,23.3l-8.1,4.6c-56.6,34-94.6,95.8-95.2,166.4c28.3,15.9,60.9,24.9,95.5,24.9
				c35,0,68-9.3,96.5-25.4c0.6-59.2,26.6-112.5,67.6-149.4c8.6-8.2,23.7-18.4,23.7-18.4c1.4-0.9,2.8-1.8,4.2-2.7
				c-1.4-0.9-2.8-1.8-4.2-2.7C476.7,555.4,447,548,415.6,548z M398.9,734c-25.1,13-53.5,20.3-83.7,20.3c-29.6,0-57.6-7.1-82.3-19.6
				c3-60,35.1-112.4,82.4-143.6c30.6,16,64.9,24.5,100.4,24.5c8.8,0,17.6-0.5,26.2-1.6C415.8,648.7,400.9,690.2,398.9,734z"/>
			<radialGradient id="SVGID_6_" cx="515.8959" cy="746.7551" r="136.8376" gradientUnits="userSpaceOnUse">
				<stop  offset="0" style="stop-color:#FFFFFF"/>
				<stop  offset="1" style="stop-color:#01B36F"/>
			</radialGradient>
			<path class="st7" d="M446,843.6c17.8,30.5,42.7,54.3,71.3,70.8c60.5-36.2,94.5-100.2,95.3-166.1c-29.7-17.1-55.4-41.9-73.9-73.5
				c-11.2-19.2-18.9-39.4-23.4-60.1c-4.2-19.2-4.1-29.7-4.1-29.7c-0.1-2-0.2-3.9-0.3-5.9c-1.4,0.8-2.8,1.5-4.2,2.2
				c-54.8,36.4-85.9,96.5-87.5,158.6l0,9.4C419.9,781.5,428.6,813.9,446,843.6z M513,659.8c3.6,7.9,7.7,15.7,12.3,23.2
				c18.5,30.4,43.5,55.2,73.1,73.1c-2.1,56.5-30.2,111.1-79.8,144.9c-24.2-14.7-45.3-35.3-61-61.1c-15.3-25.2-23.8-52.7-26-80.3
				C468.6,735.1,496.7,700.5,513,659.8z"/>
		</g>
		<path class="st8" d="M515.2,985.2c-55.9,0-110.1-10.9-161.2-32.5c-49.3-20.9-93.6-50.7-131.6-88.7c-38-38-67.9-82.3-88.7-131.6
			c-21.6-51-32.5-105.3-32.5-161.2s10.9-110.1,32.5-161.2c20.9-49.3,50.7-93.6,88.7-131.6c38-38,82.3-67.9,131.6-88.7
			c51-21.6,105.3-32.5,161.2-32.5s110.1,10.9,161.2,32.5c49.3,20.9,93.6,50.7,131.6,88.7c38,38,67.9,82.3,88.7,131.6
			c21.6,51,32.5,105.3,32.5,161.2s-10.9,110.1-32.5,161.2C875.8,781.7,846,826,807.9,864c-38,38-82.3,67.9-131.6,88.7
			C625.3,974.3,571.1,985.2,515.2,985.2z M460,953.3c18.2,2.6,36.6,3.9,55.2,3.9c18.8,0,37.4-1.3,55.7-4
			c-19.2-4.1-37.9-10.9-55.3-20.1C498.1,942.4,479.3,949.2,460,953.3z M543.6,915.4c22.7,9.6,47.3,14.6,72.1,14.6
			c48.4,0,94.2-18.6,129.1-52.3c30.6-29.6,49.9-68.1,55.3-109.7c-26.9,11.7-56.1,17.9-85.5,17.9c-29.7,0-59.2-6.2-86.2-18.2
			C621.8,826.5,591.1,880,543.6,915.4z M231.2,768c5.4,41.7,24.7,80.1,55.4,109.7c34.9,33.7,80.7,52.2,129.1,52.2
			c24.7,0,49.4-5,72.1-14.6c-47.9-35.8-78.6-89.7-84.9-149c-27.4,12.3-57.4,18.8-87.6,18.8C286.3,785.2,257.6,779.3,231.2,768z
			 M429.7,746.4c0.4,32.3,9.3,64,25.6,91.8c14.9,25.3,35.7,46.8,60.3,62.6c24.5-15.7,45.1-37,60-62c15.4-25.8,24.2-55.2,25.8-85.3
			c-49.5-30.9-84.5-80.8-96.4-137.8c-1.4-6-2.4-12.9-3.1-18.8c-43.5,33.7-70.2,85.2-72.2,140.3L429.7,746.4z M156.8,714.9
			c0.9,2.2,1.8,4.4,2.7,6.6c13.5,32,31.2,61.8,52.6,88.8c-6-18.5-9.5-37.8-10.3-57.7C185.2,742.2,170,729.5,156.8,714.9z
			 M829.5,752.4c-0.7,19.3-4,38.1-9.7,56.1c20.8-26.6,37.9-55.7,51.1-87c0.9-2.2,1.9-4.4,2.7-6.7
			C860.7,729.2,845.8,741.9,829.5,752.4z M624.6,734.7c27.4,15.2,58.5,23.2,89.9,23.2c30.3,0,60.3-7.5,86.9-21.6
			c-1.3-30.2-9.9-59.8-25.2-85.9c-14.8-25.3-35.6-47-60.2-62.9c-30.8,16.4-65.4,25.1-100.4,25.1c-22.8,0-45.2-3.6-66.8-10.7
			c-7.9-2.6-14.2-5-18.9-7.1c6.9,55.5,38.7,105.4,86.8,135.2L624.6,734.7z M229.8,736.4c26.3,13.6,55.7,20.8,85.4,20.8
			c30.2,0,60-7.4,86.6-21.4c2.2-57.4,27.8-112,70.7-150.7c4.5-4.2,10.4-8.9,15.3-12.5c-22.8-9.7-47-14.6-72.1-14.6
			c-30.6,0-60.9,7.6-87.8,22l-7.9,4.5c-26.8,16.1-49.3,38.9-65,65.9C239.7,676.6,231,706.2,229.8,736.4z M203,423
			c-20.2,15.3-37.2,34.7-49.7,56.7c-15.8,27.8-24.1,59.5-24.1,91.6c0,32.1,8.4,63.8,24.1,91.6c12.5,22,29.5,41.4,49.7,56.7
			c6.8-59.2,38-112.9,86.4-148.2C241,535.9,209.8,482.2,203,423z M741.9,571.3c48.2,35.3,79.4,88.8,86.3,147.8
			c45.6-35.2,72.4-89,72.4-147.2c0-58.2-26.8-112.1-72.5-147.3C820.9,483.2,789.7,536.3,741.9,571.3z M543.4,570
			c22.9,9.7,47.1,14.6,72.3,14.6c30.6,0,60.9-7.6,87.8-22l7.9-4.5c26.6-16,49-38.6,64.7-65.4c15.2-25.8,23.9-55.2,25.4-85.2
			c-26.7-14.1-56.6-21.6-86.9-21.6c-29.6,0-58.9,7.1-85.1,20.6c-2.1,57.4-27.6,112.1-70.5,150.8C556.1,560.3,549.3,565.5,543.4,570z
			 M229.8,406.1c1.2,30.3,9.8,59.9,25.1,86c14.8,25.4,35.6,47.1,60.3,63C346,538.7,380.6,530,415.6,530c22.8,0,45.2,3.6,66.8,10.7
			c6.5,2.2,12.5,4.5,17.2,6.5c-7.1-54.3-38.2-103.4-85.1-133.1l-7.9-4.7c-27.8-15.8-59.4-24.1-91.4-24.1
			C285.5,385.2,256.1,392.4,229.8,406.1z M524.7,527.5c1.5,6.4,2.5,13.4,3.2,19.3c44.4-33.7,71.7-85.9,73.7-141.8l0.1-9.2
			c-0.5-32.2-9.3-63.9-25.7-91.6c-14.9-25.2-35.6-46.7-60.3-62.5c-24.7,15.8-45.4,37.3-60.3,62.6c-15.4,26.1-24.2,55.8-25.5,86.2
			C478.5,421.6,512.9,471.2,524.7,527.5z M829.5,391.5c16.8,10.7,31.9,23.7,45.1,38.5c-1.2-3-2.4-6-3.7-9
			c-13.2-31.3-30.4-60.4-51.2-87C825.6,352.4,828.9,371.7,829.5,391.5z M212.2,332.1c-21.4,27.1-39.1,56.9-52.6,88.9
			c-0.9,2.2-1.8,4.4-2.7,6.6c13.2-14.5,28.3-27.3,45-37.7C202.6,370,206.1,350.6,212.2,332.1z M315.2,357.2
			c30.2,0,60.2,6.5,87.6,18.8c6.3-59.3,37-113.1,84.9-148.9c-22.7-9.6-47.3-14.6-72.1-14.6c-48.3,0-94.2,18.5-129,52.2
			c-30.7,29.6-50,68-55.4,109.7C257.6,363.2,286.3,357.2,315.2,357.2z M543.6,227.1c47.9,35.7,78.6,89.6,84.9,148.9
			c27-11.9,56.5-18.1,86.1-18.1c29.5,0,58.8,6.2,85.7,17.9c-5.1-41.9-24.3-80.7-55.1-110.6c-34.9-34-80.9-52.6-129.5-52.6
			C590.9,212.6,566.3,217.6,543.6,227.1z M459.7,189.2c19.5,4.1,38.3,10.9,55.9,20.2c17.5-9.3,36.2-16.1,55.6-20.2
			c-18.4-2.7-37.1-4-56-4C496.5,185.2,478,186.6,459.7,189.2z"/>
		<path class="st8" d="M887.4,414c-20.3-48.1-49.5-91.3-86.6-128.4c-37.1-37.1-80.3-66.2-128.4-86.6
			c-49.8-21.1-102.7-31.8-157.3-31.8S407.7,177.9,357.9,199c-48.1,20.3-91.3,49.5-128.4,86.6c-37.1,37.1-66.2,80.3-86.6,128.4
			c-21.1,49.8-31.8,102.7-31.8,157.3s10.7,107.4,31.8,157.3c20.3,48.1,49.5,91.3,86.6,128.4c37.1,37.1,80.3,66.2,128.4,86.6
			c49.8,21.1,102.7,31.8,157.3,31.8s107.4-10.7,157.3-31.8c48.1-20.3,91.3-49.5,128.4-86.6c37.1-37.1,66.2-80.3,86.6-128.4
			c21.1-49.8,31.8-102.7,31.8-157.3S908.5,463.8,887.4,414z M819.5,737.4c-2.2-69.9-39.8-131-95.4-166.1
			c55.3-34.8,92.7-95.5,95.4-164.8c54.7,34.8,91.1,96,91.1,165.5C910.5,641.4,874.2,702.5,819.5,737.4z M615.6,940
			c-33.2,0-64.6-8.3-92-23c55.4-34.7,93-95.3,95.8-164.6c28.4,15,60.8,23.6,95.1,23.6c35.1,0,68.1-8.9,97-24.6
			C807.6,856,721.2,940,615.6,940z M219.8,751.5c28.5,15.1,61,23.7,95.4,23.7c34.9,0,67.8-8.8,96.6-24.3
			c2.3,70,40.1,131.2,95.9,166.1c-27.5,14.7-58.8,23-92,23C310.1,940,223.8,856.1,219.8,751.5z M119.2,571.2
			c0-70.1,37-131.8,92.5-166.4c2.1,70.1,39.7,131.3,95.4,166.4c-55.7,35.1-93.3,96.3-95.4,166.4C156.2,703,119.2,641.4,119.2,571.2z
			 M415.6,202.6c33.2,0,64.6,8.3,92,23c-55.8,34.9-93.5,96.1-95.9,166c-28.8-15.5-61.7-24.3-96.6-24.3c-34.4,0-66.9,8.6-95.4,23.7
			C223.8,286.4,310.1,202.6,415.6,202.6z M811.5,392.5c-28.9-15.7-61.9-24.6-97-24.6c-34.3,0-66.6,8.5-95,23.5
			c-2.4-69.9-40.2-131-95.9-165.9c27.5-14.7,58.8-23,92-23C721.7,202.6,808.3,287.2,811.5,392.5z M323,571.3
			c27.6-14.9,59.1-23.3,92.6-23.3c31.4,0,61,7.4,87.3,20.6c1.4,0.9,2.8,1.8,4.2,2.7c-1.4,0.9-2.8,1.8-4.2,2.7
			c0,0-15.1,10.2-23.7,18.4c-41,36.9-67,90.2-67.6,149.4c-28.5,16.2-61.4,25.4-96.5,25.4c-34.7,0-67.3-9.1-95.5-24.9
			c0.6-70.6,38.7-132.4,95.2-166.4L323,571.3z M419.8,736.9c2.3-65,36.4-122,87.2-156c1.2-0.6,2.5-1.3,3.7-1.9
			c0,1.3,0.1,2.6,0.2,3.9c0,0,0.9,17.8,4,30.5c11.9,57.2,47.9,105.8,96.8,134.5c-1.4,69.9-39.6,131-95.9,164.5
			c-56.8-33.8-95.1-95.5-96-166.1L419.8,736.9z M611.6,738.6c-52.8-32.8-89-89.9-92.7-155.6c0.1-1.6,0.2-3.2,0.2-4.8
			c1.7,0.9,3.5,1.8,5.3,2.7c0,0,9,5.4,27.7,11.4c20,6.6,41.4,10.2,63.6,10.2c36.6,0,71-9.7,100.7-26.7c56.5,34,94.6,95.7,95.2,166.2
			c-28.6,16.4-61.8,25.8-97.1,25.8c-34.4,0-66.8-8.9-94.9-24.6L611.6,738.6z M708.2,571.3c-27.6,14.9-59.1,23.3-92.6,23.3
			c-31.4,0-61-7.4-87.3-20.6c-1.4-0.9-2.8-1.8-4.2-2.7c1.4-0.9,2.8-1.8,4.2-2.7c0,0,20-14.3,23.7-18.4c41.1-37,67.1-90.3,67.6-149.7
			c28.1-15.6,60.5-24.6,94.9-24.6c35.3,0,68.4,9.4,97.1,25.8c-1.1,70-39,131.2-95.2,165L708.2,571.3z M514.9,529.7
			c-11.8-56.7-47.1-104.8-95.3-133.6c0.9-70.5,39.2-132.2,96-166c56.7,33.8,95,95.3,96,165.8l-0.1,9.4
			c-2.2,65.2-36.3,122.3-87.2,156.4c-1.8,0.9-3.5,1.8-5.3,2.7c0-1.4-0.1-2.8-0.2-4.2C518.9,560.2,518.2,543,514.9,529.7z
			 M479.3,550.2c-20-6.6-41.4-10.2-63.6-10.2c-36.6,0-71,9.7-100.7,26.7c-56.6-34.1-94.7-95.9-95.2-166.5
			c28.3-15.9,60.9-24.9,95.5-24.9c35,0,68,9.3,96.5,25.4l8.1,4.9c52,32.9,87.5,89.6,91.1,154.6c-0.1,1.1-0.1,2.3-0.2,3.4
			c-1.2-0.7-2.5-1.3-3.8-1.9C507,561.6,494.9,555.3,479.3,550.2z M880.1,417.1c10.9,25.8,19,52.5,24.2,79.9
			c-16.6-41.8-46.6-76.9-84.6-99.8c-0.3-46-16-88.5-42.1-122.5c6,5.3,11.9,10.9,17.7,16.6C831.6,327.6,860.1,370,880.1,417.1z
			 M643.5,196.5c-9.1-1.3-18.4-1.9-27.9-1.9c-36.3,0-70.4,9.5-100,26.2c-29.6-16.7-63.7-26.2-100-26.2c-10,0-19.8,0.7-29.4,2.1
			c41.3-14.3,84.6-21.5,128.9-21.5C559.3,175.2,602.4,182.4,643.5,196.5z M150.3,417.1c19.9-47.2,48.5-89.5,84.9-125.9
			c6.6-6.6,13.5-13,20.5-19.1c-27,34-43.3,76.9-44,123.4c-37.7,22.3-67.6,56.3-84.7,97C132.2,466.8,140,441.6,150.3,417.1z
			 M150.3,725.4c-10.3-24.5-18.1-49.7-23.3-75.5c17.1,40.7,47,74.8,84.7,97c0.7,46.4,16.9,89.2,43.8,123.2
			c-6.9-6-13.7-12.3-20.2-18.9C198.8,814.9,170.3,772.5,150.3,725.4z M386.7,945.9c9.5,1.3,19.1,2.1,28.9,2.1
			c36.3,0,70.4-9.5,100-26.2c29.6,16.7,63.7,26.2,100,26.2c9.3,0,18.5-0.6,27.5-1.9c-41,14-83.9,21.1-127.9,21.1
			C471,967.2,427.9,960.1,386.7,945.9z M880.1,725.4c-19.9,47.2-48.5,89.5-84.9,125.9c-5.7,5.7-11.5,11.1-17.5,16.4
			c25.7-33.7,41.3-75.5,41.8-121c37.7-22.8,67.5-57.4,84.2-98.6C898.6,674.5,890.7,700.4,880.1,725.4z"/>
	</g>
	<g id="Layer_8" class="st0">
		<path class="st9" d="M515.2,988.7c-56.4,0-111-11-162.5-32.8c-49.7-21-94.4-51.1-132.7-89.5c-38.3-38.3-68.4-83-89.5-132.7
			c-21.8-51.5-32.8-106.2-32.8-162.5c0-56.4,11-111,32.8-162.5c21-49.7,51.1-94.4,89.5-132.7s83-68.4,132.7-89.5
			c51.5-21.8,106.2-32.8,162.5-32.8c56.4,0,111,11,162.5,32.8c49.7,21,94.4,51.1,132.7,89.5c38.3,38.3,68.4,83,89.5,132.7
			c21.8,51.5,32.8,106.2,32.8,162.5s-11,111-32.8,162.5c-21,49.7-51.1,94.4-89.5,132.7c-38.3,38.3-83,68.4-132.7,89.5
			C626.2,977.7,571.5,988.7,515.2,988.7z M515.4,937.2c-10.9,5.6-22.3,10.4-34,14.1l0.1,1c11.2,1,22.5,1.5,33.7,1.5
			c11.4,0,23-0.5,34.4-1.5l0.1-1c-11.7-3.7-23.1-8.4-33.9-14l-0.2-0.1L515.4,937.2z M631.1,773.4c-7.5,54.7-36.6,105.9-79.9,140.5
			l-0.7,0.5l0.8,0.3c20.4,7.7,42.6,11.7,64.3,11.7c47.5,0,92.5-18.2,126.7-51.3c28.4-27.4,46.8-62.2,53.2-100.7l0.1-0.9l-0.8,0.3
			c-25.4,10.1-53.2,15.4-80.4,15.4c-28,0-56.7-5.7-82.7-16.4l-0.6-0.2L631.1,773.4z M235.7,774.5c6.4,38.5,24.9,73.4,53.3,100.8
			c34.2,33,79.2,51.2,126.6,51.2c21.6,0,43.8-4,64.2-11.7l0.8-0.3l-0.7-0.5c-43.6-34.9-72.8-86.5-80-141.7l-0.1-0.6l-0.6,0.3
			c-26.4,11.1-55.5,16.9-84.1,16.9c-26.6,0-53.9-5.1-78.8-14.8l-0.8-0.3L235.7,774.5z M498.6,604.1c-39.6,33.2-63.4,81.8-65.3,133.2
			l-0.1,9.1c0.4,31.6,9.1,62.7,25.1,89.9c14.1,23.9,33.8,44.7,57.1,60l0.3,0.2l0.3-0.2c23-15.2,42.6-35.8,56.7-59.4
			c14.6-24.6,23.3-52.7,25.1-81.3l0-0.3l-0.2-0.2c-49.1-31.5-84.1-82.1-95.9-138.8c-0.8-3.4-1.6-7.4-2.2-12l-0.1-0.9L498.6,604.1z
			 M168.4,732.8c9.5,20.5,21,40.2,33.9,58.6l0.9-0.4c-2.6-11.8-4.2-24-4.8-36.1l0-0.3l-0.2-0.1c-10.2-6.5-20-14-29-22.3L168.4,732.8
			z M861.1,732.4c-8.8,8-18.2,15.4-28.1,21.8l-0.2,0.1l0,0.3c-0.6,11.6-2.1,23.3-4.5,34.7l0.9,0.4c12.4-17.8,23.4-36.9,32.6-56.7
			L861.1,732.4z M534.4,601.3c4,24.3,13.1,48.1,26.4,68.9c14.7,22.9,34.6,42.6,57.8,56.9l7.8,4.6c26.8,14.9,57.3,22.8,88.2,22.8
			c28.8,0,57.5-6.9,83-20l0.3-0.1l0-0.3c-1.6-28.7-10.1-57-24.6-81.8c-14.1-24.1-33.9-45-57.2-60.4l-0.2-0.2l-0.3,0.1
			c-30.7,15.9-65.3,24.4-100,24.4c-23.1,0-46-3.6-67.8-10.8c-4.4-1.4-8.7-3-12.7-4.5l-0.8-0.3L534.4,601.3z M415.6,561.5
			c-30,0-59.8,7.5-86.1,21.6l-7.8,4.5c-26.2,15.8-48.3,38.2-63.8,64.6c-14.5,24.8-22.9,53-24.5,81.8l0,0.3l0.3,0.1
			c25.2,12.6,53.3,19.2,81.5,19.2c28.7,0,57.4-6.9,82.9-20l0.3-0.1l0-0.3c2.8-57.3,29-112.3,71.7-150.9c2.6-2.5,5.9-5.3,9.9-8.4
			l0.7-0.5l-0.8-0.3C459.5,565.4,437.8,561.5,415.6,561.5z M199.7,430.1c-17.3,14.3-32.3,32-43.3,51.3
			c-15.5,27.3-23.7,58.3-23.7,89.8c0,31.5,8.2,62.6,23.7,89.8c11,19.3,25.9,37.1,43.3,51.3l0.7,0.6l0.1-0.9
			c8.2-55.1,38.3-106.3,82.6-140.4l0.5-0.4l-0.5-0.4c-44.3-34.1-74.4-85.3-82.6-140.5l-0.1-0.9L199.7,430.1z M830.5,432.1
			c-8.5,54.4-38.5,105-82.3,138.8l-0.5,0.4l0.5,0.4c44.1,34,74.2,85,82.5,139.9l0.1,0.9l0.7-0.6c41.6-34.7,65.5-85.7,65.5-140
			c0-54.4-23.9-105.4-65.7-140.1l-0.7-0.6L830.5,432.1z M714.5,389.4c-28.1,0-56.3,6.6-81.4,19.2l-0.3,0.1l0,0.3
			c-2.8,57.3-28.9,112.3-71.5,150.9c-1.8,1.8-5.2,4.7-10.2,8.6l-0.7,0.5l0.8,0.3c20.5,7.8,42.2,11.7,64.4,11.7
			c30,0,59.8-7.5,86.1-21.6l7.8-4.5c26-15.7,48-37.9,63.4-64.1c14.4-24.5,23-52.5,24.8-81l0-0.3l-0.3-0.1
			C772,396.3,743.3,389.4,714.5,389.4z M315.2,388.7c-28.2,0-56.3,6.7-81.5,19.3l-0.3,0.1l0,0.3c1.6,28.8,10,57.1,24.5,81.8
			c14.1,24.1,33.9,45.1,57.2,60.5l0.2,0.2l0.3-0.1c30.7-16,65.3-24.4,100-24.4c23.1,0,46,3.7,67.8,10.9c3.6,1.2,7.3,2.5,11,4
			l0.8,0.3l-0.1-0.9c-8.6-50.9-38.7-96-82.5-123.7l-7.8-4.7C377.6,396.9,346.6,388.7,315.2,388.7z M515.4,246.2
			c-23.2,15.3-42.9,36.1-57,60c-14.7,24.9-23.3,53.3-24.9,82.3l0,0.3l0.2,0.2c48.3,31.5,82.8,81.8,94.5,137.9
			c0.9,3.7,1.7,7.9,2.3,12.6l0.1,0.9l0.7-0.6c19-15.6,35-35.3,46.3-57.1c12.5-24,19.6-50.8,20.5-77.7l0.1-9.1
			c-0.5-31.6-9.2-62.6-25.2-89.7c-14.1-23.9-33.8-44.6-57-59.9l-0.3-0.2L515.4,246.2z M828.4,353.2c2.5,11.8,4,23.9,4.5,36l0,0.3
			l0.2,0.1c10.2,6.7,20,14.3,29.1,22.7l0.8-0.6c-9.5-20.6-20.8-40.5-33.7-59L828.4,353.2z M202.4,351c-13,18.4-24.4,38.1-34,58.6
			l0.8,0.6c9.1-8.2,18.8-15.7,29-22.3l0.2-0.1l0-0.3c0.6-12.2,2.2-24.3,4.8-36.1L202.4,351z M615.6,216.1c-21.6,0-43.8,4-64.2,11.7
			l-0.8,0.3l0.7,0.5c43.6,34.9,72.8,86.5,80,141.7l0.1,0.6l0.6-0.2c26-10.7,54.6-16.3,82.6-16.3c27.3,0,55.1,5.4,80.6,15.5l0.8,0.3
			l-0.1-0.9c-6.2-38.8-24.6-73.9-53.1-101.6C708.4,234.4,663.3,216.1,615.6,216.1z M315.2,353.7c28.6,0,57.7,5.9,84.1,16.9l0.6,0.3
			l0.1-0.6c7.2-55.1,36.4-106.8,80-141.6l0.7-0.5l-0.8-0.3c-20.4-7.7-42.6-11.7-64.2-11.7c-47.4,0-92.4,18.2-126.6,51.2
			c-28.4,27.4-46.9,62.2-53.3,100.7l-0.1,0.9l0.8-0.3C261.3,358.9,288.6,353.7,315.2,353.7z M515.2,188.7c-11.3,0-22.7,0.5-34,1.5
			l-0.1,1c11.8,3.7,23.3,8.5,34.3,14.2l0.2,0.1l0.2-0.1c10.9-5.6,22.3-10.4,34.1-14.1l-0.1-1C538.3,189.3,526.7,188.7,515.2,188.7z"
			/>
	</g>
	<g id="Layer_9">
	</g>
</g>
<g id="mandala_copy">
	<g id="ROUND_BG_copy">
	</g>
	<g id="OG_copy" class="st0">
	</g>
	<g id="Layer_6_copy_2">
	</g>
	<g id="gradient_copy">
	</g>
	<g id="GREEN_copy" class="st0">
		<g class="st1">
			<radialGradient id="SVGID_7_" cx="515.6353" cy="397.2156" r="136.2758" gradientUnits="userSpaceOnUse">
				<stop  offset="0" style="stop-color:#FFFFFF"/>
				<stop  offset="1" style="stop-color:#01B36F"/>
			</radialGradient>
			<path class="st10" d="M518.9,560.2c0.1,1.4,0.1,2.8,0.2,4.2c1.7-0.9,3.5-1.8,5.3-2.7c50.9-34,85-91.2,87.2-156.4l0.1-9.4
				c-1-70.4-39.3-132-96-165.8c-56.8,33.8-95.1,95.5-96,166c48.2,28.8,83.5,76.9,95.3,133.6C518.2,543,518.9,560.2,518.9,560.2z
				 M432.9,388.9c3.2-60,35.3-112.4,82.7-143.5c47.3,31,79.5,83.3,82.7,143.1c-13.3,8.5-25.8,18.5-37.3,29.9
				c-19.8,19.8-35.3,42.8-46.1,67.9c-10.7-25.3-26.4-48.5-46.4-68.5C457.6,406.8,445.7,397.1,432.9,388.9z"/>
			<radialGradient id="SVGID_8_" cx="667.8444" cy="485.2534" r="127.7101" gradientUnits="userSpaceOnUse">
				<stop  offset="0" style="stop-color:#FFFFFF"/>
				<stop  offset="1" style="stop-color:#01B36F"/>
			</radialGradient>
			<path class="st11" d="M552,550.2c-3.7,4.1-23.7,18.4-23.7,18.4c-1.4,0.9-2.8,1.8-4.2,2.7c1.4,0.9,2.8,1.8,4.2,2.7
				c26.3,13.2,56,20.6,87.3,20.6c33.5,0,65-8.4,92.6-23.3l8.1-4.6c56.2-33.8,94.1-95,95.2-165c-28.6-16.4-61.8-25.8-97.1-25.8
				c-34.4,0-66.8,8.9-94.9,24.6C619.1,459.8,593.1,513.2,552,550.2z M632.4,408.4c24.7-12.5,52.6-19.5,82.1-19.5
				c30.2,0,58.7,7.3,83.8,20.3c-3.4,59.4-35.4,111.3-82.3,142.3c-30.6-16-64.9-24.5-100.4-24.5c-8.8,0-17.6,0.5-26.2,1.6
				C615.5,493.8,630.5,452.3,632.4,408.4z"/>
			<radialGradient id="SVGID_9_" cx="365.2667" cy="470.9546" r="123.2108" gradientUnits="userSpaceOnUse">
				<stop  offset="0" style="stop-color:#FFFFFF"/>
				<stop  offset="1" style="stop-color:#01B36F"/>
			</radialGradient>
			<path class="st12" d="M510.9,560.2c-3.6-65-39.1-121.7-91.1-154.6l-8.1-4.9c-28.5-16.2-61.4-25.4-96.5-25.4
				c-34.7,0-67.3,9.1-95.5,24.9c0.6,70.6,38.6,132.4,95.2,166.5c29.7-17,64.1-26.7,100.7-26.7c22.2,0,43.6,3.6,63.6,10.2
				c15.6,5.2,27.7,11.4,27.7,11.4c1.3,0.6,2.5,1.3,3.8,1.9C510.8,562.4,510.8,561.3,510.9,560.2z M415.6,527
				c-35.5,0-69.8,8.5-100.4,24.5c-47.3-31.2-79.4-83.6-82.4-143.7c24.8-12.5,52.7-19.6,82.3-19.6c30.1,0,58.6,7.3,83.7,20.3
				c2,43.8,16.9,85.3,43,120C433.2,527.5,424.5,527,415.6,527z"/>
			<radialGradient id="SVGID_10_" cx="665.2317" cy="671.9232" r="123.7786" gradientUnits="userSpaceOnUse">
				<stop  offset="0" style="stop-color:#FFFFFF"/>
				<stop  offset="1" style="stop-color:#01B36F"/>
			</radialGradient>
			<path class="st13" d="M714.5,767.9c35.3,0,68.4-9.4,97.1-25.8c-0.7-70.5-38.7-132.2-95.2-166.2c-29.7,17-64.1,26.7-100.7,26.7
				c-22.2,0-43.6-3.6-63.6-10.2c-18.7-6.1-27.7-11.4-27.7-11.4c-1.8-0.9-3.5-1.8-5.3-2.7c-0.1,1.6-0.1,3.2-0.2,4.8
				c3.7,65.7,39.9,122.9,92.7,155.6l8.1,4.7C647.8,759,680.1,767.9,714.5,767.9z M589.4,614c8.6,1,17.4,1.6,26.2,1.6
				c35.5,0,69.8-8.5,100.4-24.5c47.2,31.1,79.3,83.5,82.4,143.5c-25.1,13-53.7,20.4-83.9,20.4c-29.5,0-57.4-7-82.1-19.5
				C630.7,691.1,615.8,649.1,589.4,614z"/>
			<radialGradient id="SVGID_11_" cx="363.4201" cy="657.6242" r="127.8383" gradientUnits="userSpaceOnUse">
				<stop  offset="0" style="stop-color:#FFFFFF"/>
				<stop  offset="1" style="stop-color:#01B36F"/>
			</radialGradient>
			<path class="st14" d="M415.6,548c-33.5,0-65,8.4-92.6,23.3l-8.1,4.6c-56.6,34-94.6,95.8-95.2,166.4
				c28.3,15.9,60.9,24.9,95.5,24.9c35,0,68-9.3,96.5-25.4c0.6-59.2,26.6-112.5,67.6-149.4c8.6-8.2,23.7-18.4,23.7-18.4
				c1.4-0.9,2.8-1.8,4.2-2.7c-1.4-0.9-2.8-1.8-4.2-2.7C476.7,555.4,447,548,415.6,548z M398.9,734c-25.1,13-53.5,20.3-83.7,20.3
				c-29.6,0-57.6-7.1-82.3-19.6c3-60,35.1-112.4,82.4-143.6c30.6,16,64.9,24.5,100.4,24.5c8.8,0,17.6-0.5,26.2-1.6
				C415.8,648.7,400.9,690.2,398.9,734z"/>
			<radialGradient id="SVGID_12_" cx="515.8959" cy="746.7551" r="136.8376" gradientUnits="userSpaceOnUse">
				<stop  offset="0" style="stop-color:#FFFFFF"/>
				<stop  offset="1" style="stop-color:#01B36F"/>
			</radialGradient>
			<path class="st15" d="M446,843.6c17.8,30.5,42.7,54.3,71.3,70.8c60.5-36.2,94.5-100.2,95.3-166.1c-29.7-17.1-55.4-41.9-73.9-73.5
				c-11.2-19.2-18.9-39.4-23.4-60.1c-4.2-19.2-4.1-29.7-4.1-29.7c-0.1-2-0.2-3.9-0.3-5.9c-1.4,0.8-2.8,1.5-4.2,2.2
				c-54.8,36.4-85.9,96.5-87.5,158.6l0,9.4C419.9,781.5,428.6,813.9,446,843.6z M513,659.8c3.6,7.9,7.7,15.7,12.3,23.2
				c18.5,30.4,43.5,55.2,73.1,73.1c-2.1,56.5-30.2,111.1-79.8,144.9c-24.2-14.7-45.3-35.3-61-61.1c-15.3-25.2-23.8-52.7-26-80.3
				C468.6,735.1,496.7,700.5,513,659.8z"/>
		</g>
		<path class="st8" d="M515.2,985.2c-55.9,0-110.1-10.9-161.2-32.5c-49.3-20.9-93.6-50.7-131.6-88.7c-38-38-67.9-82.3-88.7-131.6
			c-21.6-51-32.5-105.3-32.5-161.2s10.9-110.1,32.5-161.2c20.9-49.3,50.7-93.6,88.7-131.6c38-38,82.3-67.9,131.6-88.7
			c51-21.6,105.3-32.5,161.2-32.5s110.1,10.9,161.2,32.5c49.3,20.9,93.6,50.7,131.6,88.7c38,38,67.9,82.3,88.7,131.6
			c21.6,51,32.5,105.3,32.5,161.2s-10.9,110.1-32.5,161.2C875.8,781.7,846,826,807.9,864c-38,38-82.3,67.9-131.6,88.7
			C625.3,974.3,571.1,985.2,515.2,985.2z M460,953.3c18.2,2.6,36.6,3.9,55.2,3.9c18.8,0,37.4-1.3,55.7-4
			c-19.2-4.1-37.9-10.9-55.3-20.1C498.1,942.4,479.3,949.2,460,953.3z M543.6,915.4c22.7,9.6,47.3,14.6,72.1,14.6
			c48.4,0,94.2-18.6,129.1-52.3c30.6-29.6,49.9-68.1,55.3-109.7c-26.9,11.7-56.1,17.9-85.5,17.9c-29.7,0-59.2-6.2-86.2-18.2
			C621.8,826.5,591.1,880,543.6,915.4z M231.2,768c5.4,41.7,24.7,80.1,55.4,109.7c34.9,33.7,80.7,52.2,129.1,52.2
			c24.7,0,49.4-5,72.1-14.6c-47.9-35.8-78.6-89.7-84.9-149c-27.4,12.3-57.4,18.8-87.6,18.8C286.3,785.2,257.6,779.3,231.2,768z
			 M429.7,746.4c0.4,32.3,9.3,64,25.6,91.8c14.9,25.3,35.7,46.8,60.3,62.6c24.5-15.7,45.1-37,60-62c15.4-25.8,24.2-55.2,25.8-85.3
			c-49.5-30.9-84.5-80.8-96.4-137.8c-1.4-6-2.4-12.9-3.1-18.8c-43.5,33.7-70.2,85.2-72.2,140.3L429.7,746.4z M156.8,714.9
			c0.9,2.2,1.8,4.4,2.7,6.6c13.5,32,31.2,61.8,52.6,88.8c-6-18.5-9.5-37.8-10.3-57.7C185.2,742.2,170,729.5,156.8,714.9z
			 M829.5,752.4c-0.7,19.3-4,38.1-9.7,56.1c20.8-26.6,37.9-55.7,51.1-87c0.9-2.2,1.9-4.4,2.7-6.7
			C860.7,729.2,845.8,741.9,829.5,752.4z M624.6,734.7c27.4,15.2,58.5,23.2,89.9,23.2c30.3,0,60.3-7.5,86.9-21.6
			c-1.3-30.2-9.9-59.8-25.2-85.9c-14.8-25.3-35.6-47-60.2-62.9c-30.8,16.4-65.4,25.1-100.4,25.1c-22.8,0-45.2-3.6-66.8-10.7
			c-7.9-2.6-14.2-5-18.9-7.1c6.9,55.5,38.7,105.4,86.8,135.2L624.6,734.7z M229.8,736.4c26.3,13.6,55.7,20.8,85.4,20.8
			c30.2,0,60-7.4,86.6-21.4c2.2-57.4,27.8-112,70.7-150.7c4.5-4.2,10.4-8.9,15.3-12.5c-22.8-9.7-47-14.6-72.1-14.6
			c-30.6,0-60.9,7.6-87.8,22l-7.9,4.5c-26.8,16.1-49.3,38.9-65,65.9C239.7,676.6,231,706.2,229.8,736.4z M203,423
			c-20.2,15.3-37.2,34.7-49.7,56.7c-15.8,27.8-24.1,59.5-24.1,91.6c0,32.1,8.4,63.8,24.1,91.6c12.5,22,29.5,41.4,49.7,56.7
			c6.8-59.2,38-112.9,86.4-148.2C241,535.9,209.8,482.2,203,423z M741.9,571.3c48.2,35.3,79.4,88.8,86.3,147.8
			c45.6-35.2,72.4-89,72.4-147.2c0-58.2-26.8-112.1-72.5-147.3C820.9,483.2,789.7,536.3,741.9,571.3z M543.4,570
			c22.9,9.7,47.1,14.6,72.3,14.6c30.6,0,60.9-7.6,87.8-22l7.9-4.5c26.6-16,49-38.6,64.7-65.4c15.2-25.8,23.9-55.2,25.4-85.2
			c-26.7-14.1-56.6-21.6-86.9-21.6c-29.6,0-58.9,7.1-85.1,20.6c-2.1,57.4-27.6,112.1-70.5,150.8C556.1,560.3,549.3,565.5,543.4,570z
			 M229.8,406.1c1.2,30.3,9.8,59.9,25.1,86c14.8,25.4,35.6,47.1,60.3,63C346,538.7,380.6,530,415.6,530c22.8,0,45.2,3.6,66.8,10.7
			c6.5,2.2,12.5,4.5,17.2,6.5c-7.1-54.3-38.2-103.4-85.1-133.1l-7.9-4.7c-27.8-15.8-59.4-24.1-91.4-24.1
			C285.5,385.2,256.1,392.4,229.8,406.1z M524.7,527.5c1.5,6.4,2.5,13.4,3.2,19.3c44.4-33.7,71.7-85.9,73.7-141.8l0.1-9.2
			c-0.5-32.2-9.3-63.9-25.7-91.6c-14.9-25.2-35.6-46.7-60.3-62.5c-24.7,15.8-45.4,37.3-60.3,62.6c-15.4,26.1-24.2,55.8-25.5,86.2
			C478.5,421.6,512.9,471.2,524.7,527.5z M829.5,391.5c16.8,10.7,31.9,23.7,45.1,38.5c-1.2-3-2.4-6-3.7-9
			c-13.2-31.3-30.4-60.4-51.2-87C825.6,352.4,828.9,371.7,829.5,391.5z M212.2,332.1c-21.4,27.1-39.1,56.9-52.6,88.9
			c-0.9,2.2-1.8,4.4-2.7,6.6c13.2-14.5,28.3-27.3,45-37.7C202.6,370,206.1,350.6,212.2,332.1z M315.2,357.2
			c30.2,0,60.2,6.5,87.6,18.8c6.3-59.3,37-113.1,84.9-148.9c-22.7-9.6-47.3-14.6-72.1-14.6c-48.3,0-94.2,18.5-129,52.2
			c-30.7,29.6-50,68-55.4,109.7C257.6,363.2,286.3,357.2,315.2,357.2z M543.6,227.1c47.9,35.7,78.6,89.6,84.9,148.9
			c27-11.9,56.5-18.1,86.1-18.1c29.5,0,58.8,6.2,85.7,17.9c-5.1-41.9-24.3-80.7-55.1-110.6c-34.9-34-80.9-52.6-129.5-52.6
			C590.9,212.6,566.3,217.6,543.6,227.1z M459.7,189.2c19.5,4.1,38.3,10.9,55.9,20.2c17.5-9.3,36.2-16.1,55.6-20.2
			c-18.4-2.7-37.1-4-56-4C496.5,185.2,478,186.6,459.7,189.2z"/>
		<path class="st8" d="M887.4,414c-20.3-48.1-49.5-91.3-86.6-128.4c-37.1-37.1-80.3-66.2-128.4-86.6
			c-49.8-21.1-102.7-31.8-157.3-31.8S407.7,177.9,357.9,199c-48.1,20.3-91.3,49.5-128.4,86.6c-37.1,37.1-66.2,80.3-86.6,128.4
			c-21.1,49.8-31.8,102.7-31.8,157.3s10.7,107.4,31.8,157.3c20.3,48.1,49.5,91.3,86.6,128.4c37.1,37.1,80.3,66.2,128.4,86.6
			c49.8,21.1,102.7,31.8,157.3,31.8s107.4-10.7,157.3-31.8c48.1-20.3,91.3-49.5,128.4-86.6c37.1-37.1,66.2-80.3,86.6-128.4
			c21.1-49.8,31.8-102.7,31.8-157.3S908.5,463.8,887.4,414z M819.5,737.4c-2.2-69.9-39.8-131-95.4-166.1
			c55.3-34.8,92.7-95.5,95.4-164.8c54.7,34.8,91.1,96,91.1,165.5C910.5,641.4,874.2,702.5,819.5,737.4z M615.6,940
			c-33.2,0-64.6-8.3-92-23c55.4-34.7,93-95.3,95.8-164.6c28.4,15,60.8,23.6,95.1,23.6c35.1,0,68.1-8.9,97-24.6
			C807.6,856,721.2,940,615.6,940z M219.8,751.5c28.5,15.1,61,23.7,95.4,23.7c34.9,0,67.8-8.8,96.6-24.3
			c2.3,70,40.1,131.2,95.9,166.1c-27.5,14.7-58.8,23-92,23C310.1,940,223.8,856.1,219.8,751.5z M119.2,571.2
			c0-70.1,37-131.8,92.5-166.4c2.1,70.1,39.7,131.3,95.4,166.4c-55.7,35.1-93.3,96.3-95.4,166.4C156.2,703,119.2,641.4,119.2,571.2z
			 M415.6,202.6c33.2,0,64.6,8.3,92,23c-55.8,34.9-93.5,96.1-95.9,166c-28.8-15.5-61.7-24.3-96.6-24.3c-34.4,0-66.9,8.6-95.4,23.7
			C223.8,286.4,310.1,202.6,415.6,202.6z M811.5,392.5c-28.9-15.7-61.9-24.6-97-24.6c-34.3,0-66.6,8.5-95,23.5
			c-2.4-69.9-40.2-131-95.9-165.9c27.5-14.7,58.8-23,92-23C721.7,202.6,808.3,287.2,811.5,392.5z M323,571.3
			c27.6-14.9,59.1-23.3,92.6-23.3c31.4,0,61,7.4,87.3,20.6c1.4,0.9,2.8,1.8,4.2,2.7c-1.4,0.9-2.8,1.8-4.2,2.7
			c0,0-15.1,10.2-23.7,18.4c-41,36.9-67,90.2-67.6,149.4c-28.5,16.2-61.4,25.4-96.5,25.4c-34.7,0-67.3-9.1-95.5-24.9
			c0.6-70.6,38.7-132.4,95.2-166.4L323,571.3z M419.8,736.9c2.3-65,36.4-122,87.2-156c1.2-0.6,2.5-1.3,3.7-1.9
			c0,1.3,0.1,2.6,0.2,3.9c0,0,0.9,17.8,4,30.5c11.9,57.2,47.9,105.8,96.8,134.5c-1.4,69.9-39.6,131-95.9,164.5
			c-56.8-33.8-95.1-95.5-96-166.1L419.8,736.9z M611.6,738.6c-52.8-32.8-89-89.9-92.7-155.6c0.1-1.6,0.2-3.2,0.2-4.8
			c1.7,0.9,3.5,1.8,5.3,2.7c0,0,9,5.4,27.7,11.4c20,6.6,41.4,10.2,63.6,10.2c36.6,0,71-9.7,100.7-26.7c56.5,34,94.6,95.7,95.2,166.2
			c-28.6,16.4-61.8,25.8-97.1,25.8c-34.4,0-66.8-8.9-94.9-24.6L611.6,738.6z M708.2,571.3c-27.6,14.9-59.1,23.3-92.6,23.3
			c-31.4,0-61-7.4-87.3-20.6c-1.4-0.9-2.8-1.8-4.2-2.7c1.4-0.9,2.8-1.8,4.2-2.7c0,0,20-14.3,23.7-18.4c41.1-37,67.1-90.3,67.6-149.7
			c28.1-15.6,60.5-24.6,94.9-24.6c35.3,0,68.4,9.4,97.1,25.8c-1.1,70-39,131.2-95.2,165L708.2,571.3z M514.9,529.7
			c-11.8-56.7-47.1-104.8-95.3-133.6c0.9-70.5,39.2-132.2,96-166c56.7,33.8,95,95.3,96,165.8l-0.1,9.4
			c-2.2,65.2-36.3,122.3-87.2,156.4c-1.8,0.9-3.5,1.8-5.3,2.7c0-1.4-0.1-2.8-0.2-4.2C518.9,560.2,518.2,543,514.9,529.7z
			 M479.3,550.2c-20-6.6-41.4-10.2-63.6-10.2c-36.6,0-71,9.7-100.7,26.7c-56.6-34.1-94.7-95.9-95.2-166.5
			c28.3-15.9,60.9-24.9,95.5-24.9c35,0,68,9.3,96.5,25.4l8.1,4.9c52,32.9,87.5,89.6,91.1,154.6c-0.1,1.1-0.1,2.3-0.2,3.4
			c-1.2-0.7-2.5-1.3-3.8-1.9C507,561.6,494.9,555.3,479.3,550.2z M880.1,417.1c10.9,25.8,19,52.5,24.2,79.9
			c-16.6-41.8-46.6-76.9-84.6-99.8c-0.3-46-16-88.5-42.1-122.5c6,5.3,11.9,10.9,17.7,16.6C831.6,327.6,860.1,370,880.1,417.1z
			 M643.5,196.5c-9.1-1.3-18.4-1.9-27.9-1.9c-36.3,0-70.4,9.5-100,26.2c-29.6-16.7-63.7-26.2-100-26.2c-10,0-19.8,0.7-29.4,2.1
			c41.3-14.3,84.6-21.5,128.9-21.5C559.3,175.2,602.4,182.4,643.5,196.5z M150.3,417.1c19.9-47.2,48.5-89.5,84.9-125.9
			c6.6-6.6,13.5-13,20.5-19.1c-27,34-43.3,76.9-44,123.4c-37.7,22.3-67.6,56.3-84.7,97C132.2,466.8,140,441.6,150.3,417.1z
			 M150.3,725.4c-10.3-24.5-18.1-49.7-23.3-75.5c17.1,40.7,47,74.8,84.7,97c0.7,46.4,16.9,89.2,43.8,123.2
			c-6.9-6-13.7-12.3-20.2-18.9C198.8,814.9,170.3,772.5,150.3,725.4z M386.7,945.9c9.5,1.3,19.1,2.1,28.9,2.1
			c36.3,0,70.4-9.5,100-26.2c29.6,16.7,63.7,26.2,100,26.2c9.3,0,18.5-0.6,27.5-1.9c-41,14-83.9,21.1-127.9,21.1
			C471,967.2,427.9,960.1,386.7,945.9z M880.1,725.4c-19.9,47.2-48.5,89.5-84.9,125.9c-5.7,5.7-11.5,11.1-17.5,16.4
			c25.7-33.7,41.3-75.5,41.8-121c37.7-22.8,67.5-57.4,84.2-98.6C898.6,674.5,890.7,700.4,880.1,725.4z"/>
	</g>
	<g id="Layer_8_copy" class="st0">
		<path class="st9" d="M515.2,988.7c-56.4,0-111-11-162.5-32.8c-49.7-21-94.4-51.1-132.7-89.5c-38.3-38.3-68.4-83-89.5-132.7
			c-21.8-51.5-32.8-106.2-32.8-162.5c0-56.4,11-111,32.8-162.5c21-49.7,51.1-94.4,89.5-132.7s83-68.4,132.7-89.5
			c51.5-21.8,106.2-32.8,162.5-32.8c56.4,0,111,11,162.5,32.8c49.7,21,94.4,51.1,132.7,89.5c38.3,38.3,68.4,83,89.5,132.7
			c21.8,51.5,32.8,106.2,32.8,162.5s-11,111-32.8,162.5c-21,49.7-51.1,94.4-89.5,132.7c-38.3,38.3-83,68.4-132.7,89.5
			C626.2,977.7,571.5,988.7,515.2,988.7z M515.4,937.2c-10.9,5.6-22.3,10.4-34,14.1l0.1,1c11.2,1,22.5,1.5,33.7,1.5
			c11.4,0,23-0.5,34.4-1.5l0.1-1c-11.7-3.7-23.1-8.4-33.9-14l-0.2-0.1L515.4,937.2z M631.1,773.4c-7.5,54.7-36.6,105.9-79.9,140.5
			l-0.7,0.5l0.8,0.3c20.4,7.7,42.6,11.7,64.3,11.7c47.5,0,92.5-18.2,126.7-51.3c28.4-27.4,46.8-62.2,53.2-100.7l0.1-0.9l-0.8,0.3
			c-25.4,10.1-53.2,15.4-80.4,15.4c-28,0-56.7-5.7-82.7-16.4l-0.6-0.2L631.1,773.4z M235.7,774.5c6.4,38.5,24.9,73.4,53.3,100.8
			c34.2,33,79.2,51.2,126.6,51.2c21.6,0,43.8-4,64.2-11.7l0.8-0.3l-0.7-0.5c-43.6-34.9-72.8-86.5-80-141.7l-0.1-0.6l-0.6,0.3
			c-26.4,11.1-55.5,16.9-84.1,16.9c-26.6,0-53.9-5.1-78.8-14.8l-0.8-0.3L235.7,774.5z M498.6,604.1c-39.6,33.2-63.4,81.8-65.3,133.2
			l-0.1,9.1c0.4,31.6,9.1,62.7,25.1,89.9c14.1,23.9,33.8,44.7,57.1,60l0.3,0.2l0.3-0.2c23-15.2,42.6-35.8,56.7-59.4
			c14.6-24.6,23.3-52.7,25.1-81.3l0-0.3l-0.2-0.2c-49.1-31.5-84.1-82.1-95.9-138.8c-0.8-3.4-1.6-7.4-2.2-12l-0.1-0.9L498.6,604.1z
			 M168.4,732.8c9.5,20.5,21,40.2,33.9,58.6l0.9-0.4c-2.6-11.8-4.2-24-4.8-36.1l0-0.3l-0.2-0.1c-10.2-6.5-20-14-29-22.3L168.4,732.8
			z M861.1,732.4c-8.8,8-18.2,15.4-28.1,21.8l-0.2,0.1l0,0.3c-0.6,11.6-2.1,23.3-4.5,34.7l0.9,0.4c12.4-17.8,23.4-36.9,32.6-56.7
			L861.1,732.4z M534.4,601.3c4,24.3,13.1,48.1,26.4,68.9c14.7,22.9,34.6,42.6,57.8,56.9l7.8,4.6c26.8,14.9,57.3,22.8,88.2,22.8
			c28.8,0,57.5-6.9,83-20l0.3-0.1l0-0.3c-1.6-28.7-10.1-57-24.6-81.8c-14.1-24.1-33.9-45-57.2-60.4l-0.2-0.2l-0.3,0.1
			c-30.7,15.9-65.3,24.4-100,24.4c-23.1,0-46-3.6-67.8-10.8c-4.4-1.4-8.7-3-12.7-4.5l-0.8-0.3L534.4,601.3z M415.6,561.5
			c-30,0-59.8,7.5-86.1,21.6l-7.8,4.5c-26.2,15.8-48.3,38.2-63.8,64.6c-14.5,24.8-22.9,53-24.5,81.8l0,0.3l0.3,0.1
			c25.2,12.6,53.3,19.2,81.5,19.2c28.7,0,57.4-6.9,82.9-20l0.3-0.1l0-0.3c2.8-57.3,29-112.3,71.7-150.9c2.6-2.5,5.9-5.3,9.9-8.4
			l0.7-0.5l-0.8-0.3C459.5,565.4,437.8,561.5,415.6,561.5z M199.7,430.1c-17.3,14.3-32.3,32-43.3,51.3
			c-15.5,27.3-23.7,58.3-23.7,89.8c0,31.5,8.2,62.6,23.7,89.8c11,19.3,25.9,37.1,43.3,51.3l0.7,0.6l0.1-0.9
			c8.2-55.1,38.3-106.3,82.6-140.4l0.5-0.4l-0.5-0.4c-44.3-34.1-74.4-85.3-82.6-140.5l-0.1-0.9L199.7,430.1z M830.5,432.1
			c-8.5,54.4-38.5,105-82.3,138.8l-0.5,0.4l0.5,0.4c44.1,34,74.2,85,82.5,139.9l0.1,0.9l0.7-0.6c41.6-34.7,65.5-85.7,65.5-140
			c0-54.4-23.9-105.4-65.7-140.1l-0.7-0.6L830.5,432.1z M714.5,389.4c-28.1,0-56.3,6.6-81.4,19.2l-0.3,0.1l0,0.3
			c-2.8,57.3-28.9,112.3-71.5,150.9c-1.8,1.8-5.2,4.7-10.2,8.6l-0.7,0.5l0.8,0.3c20.5,7.8,42.2,11.7,64.4,11.7
			c30,0,59.8-7.5,86.1-21.6l7.8-4.5c26-15.7,48-37.9,63.4-64.1c14.4-24.5,23-52.5,24.8-81l0-0.3l-0.3-0.1
			C772,396.3,743.3,389.4,714.5,389.4z M315.2,388.7c-28.2,0-56.3,6.7-81.5,19.3l-0.3,0.1l0,0.3c1.6,28.8,10,57.1,24.5,81.8
			c14.1,24.1,33.9,45.1,57.2,60.5l0.2,0.2l0.3-0.1c30.7-16,65.3-24.4,100-24.4c23.1,0,46,3.7,67.8,10.9c3.6,1.2,7.3,2.5,11,4
			l0.8,0.3l-0.1-0.9c-8.6-50.9-38.7-96-82.5-123.7l-7.8-4.7C377.6,396.9,346.6,388.7,315.2,388.7z M515.4,246.2
			c-23.2,15.3-42.9,36.1-57,60c-14.7,24.9-23.3,53.3-24.9,82.3l0,0.3l0.2,0.2c48.3,31.5,82.8,81.8,94.5,137.9
			c0.9,3.7,1.7,7.9,2.3,12.6l0.1,0.9l0.7-0.6c19-15.6,35-35.3,46.3-57.1c12.5-24,19.6-50.8,20.5-77.7l0.1-9.1
			c-0.5-31.6-9.2-62.6-25.2-89.7c-14.1-23.9-33.8-44.6-57-59.9l-0.3-0.2L515.4,246.2z M828.4,353.2c2.5,11.8,4,23.9,4.5,36l0,0.3
			l0.2,0.1c10.2,6.7,20,14.3,29.1,22.7l0.8-0.6c-9.5-20.6-20.8-40.5-33.7-59L828.4,353.2z M202.4,351c-13,18.4-24.4,38.1-34,58.6
			l0.8,0.6c9.1-8.2,18.8-15.7,29-22.3l0.2-0.1l0-0.3c0.6-12.2,2.2-24.3,4.8-36.1L202.4,351z M615.6,216.1c-21.6,0-43.8,4-64.2,11.7
			l-0.8,0.3l0.7,0.5c43.6,34.9,72.8,86.5,80,141.7l0.1,0.6l0.6-0.2c26-10.7,54.6-16.3,82.6-16.3c27.3,0,55.1,5.4,80.6,15.5l0.8,0.3
			l-0.1-0.9c-6.2-38.8-24.6-73.9-53.1-101.6C708.4,234.4,663.3,216.1,615.6,216.1z M315.2,353.7c28.6,0,57.7,5.9,84.1,16.9l0.6,0.3
			l0.1-0.6c7.2-55.1,36.4-106.8,80-141.6l0.7-0.5l-0.8-0.3c-20.4-7.7-42.6-11.7-64.2-11.7c-47.4,0-92.4,18.2-126.6,51.2
			c-28.4,27.4-46.9,62.2-53.3,100.7l-0.1,0.9l0.8-0.3C261.3,358.9,288.6,353.7,315.2,353.7z M515.2,188.7c-11.3,0-22.7,0.5-34,1.5
			l-0.1,1c11.8,3.7,23.3,8.5,34.3,14.2l0.2,0.1l0.2-0.1c10.9-5.6,22.3-10.4,34.1-14.1l-0.1-1C538.3,189.3,526.7,188.7,515.2,188.7z"
			/>
	</g>
	<g id="Layer_9_copy">
	</g>
</g>
<g id="Layer_7">
</g>
<g id="Layer_20">
</g>
<g id="Layer_19">
</g>
<g id="Layer_21">
</g>
<g id="Layer_22">
	<path class="st20" d="M942.8,313.3c-20.3-48.1-49.5-91.3-86.6-128.4c-37.1-37.1-80.3-66.2-128.4-86.6
		C677.9,77.2,625,66.6,570.5,66.6S463.1,77.2,413.2,98.3c-48.1,20.3-91.3,49.5-128.4,86.6c-37.1,37.1-66.2,80.3-86.6,128.4
		c-21.1,49.8-31.8,102.7-31.8,157.3s10.7,107.4,31.8,157.3c20.3,48.1,49.5,91.3,86.6,128.4c37.1,37.1,80.3,66.2,128.4,86.6
		c49.8,21.1,102.7,31.8,157.3,31.8s107.4-10.7,157.3-31.8c48.1-20.3,91.3-49.5,128.4-86.6c37.1-37.1,66.2-80.3,86.6-128.4
		c21.1-49.8,31.8-102.7,31.8-157.3S963.8,363.1,942.8,313.3z M874.8,636.7c-2.2-69.9-39.8-131-95.4-166.1
		c55.3-34.8,92.7-95.5,95.4-164.8c54.7,34.8,91.1,96,91.1,165.5C965.8,540.7,929.5,601.9,874.8,636.7z M670.9,839.3
		c-33.2,0-64.6-8.3-92-23c55.4-34.7,93-95.3,95.8-164.6c28.4,15,60.8,23.6,95.1,23.6c35.1,0,68.1-8.9,97-24.6
		C862.9,755.4,776.5,839.3,670.9,839.3z M275.1,650.8c28.5,15.1,61,23.7,95.4,23.7c34.9,0,67.8-8.8,96.6-24.3
		c2.3,70,40.1,131.2,95.9,166.1c-27.5,14.7-58.8,23-92,23C365.4,839.3,279.1,755.4,275.1,650.8z M174.5,470.6
		c0-70.1,37-131.8,92.5-166.4c2.1,70.1,39.7,131.3,95.4,166.4c-55.7,35.1-93.3,96.3-95.4,166.4C211.5,602.3,174.5,540.7,174.5,470.6
		z M470.9,101.9c33.2,0,64.6,8.3,92,23c-55.8,34.9-93.5,96.1-95.9,166c-28.8-15.5-61.7-24.3-96.6-24.3c-34.4,0-66.9,8.6-95.4,23.7
		C279.1,185.7,365.4,101.9,470.9,101.9z M866.8,291.8c-28.9-15.7-61.9-24.6-97-24.6c-34.3,0-66.6,8.5-95,23.5
		c-2.4-69.9-40.2-131-95.9-165.9c27.5-14.7,58.8-23,92-23C777,101.9,863.6,186.5,866.8,291.8z M378.3,470.6
		c27.6-14.9,59.1-23.3,92.6-23.3c31.4,0,61,7.4,87.3,20.6c1.4,0.9,2.8,1.8,4.2,2.7c-1.4,0.9-2.8,1.8-4.2,2.7
		c0,0-15.1,10.2-23.7,18.4c-41,36.9-67,90.2-67.6,149.4c-28.5,16.2-61.4,25.4-96.5,25.4c-34.7,0-67.3-9.1-95.5-24.9
		c0.6-70.6,38.7-132.4,95.2-166.4L378.3,470.6z M475.1,636.3c2.3-65,36.4-122,87.2-156c1.2-0.6,2.5-1.3,3.7-1.9
		c0,1.3,0.1,2.6,0.2,3.9c0,0,0.9,17.8,4,30.5C582,570,618,618.6,666.9,647.3c-1.4,69.9-39.6,131-95.9,164.5
		c-56.8-33.8-95.1-95.5-96-166.1L475.1,636.3z M666.9,637.9c-52.8-32.8-89-89.9-92.7-155.6c0.1-1.6,0.2-3.2,0.2-4.8
		c1.7,0.9,3.5,1.8,5.3,2.7c0,0,9,5.4,27.7,11.4c20,6.6,41.4,10.2,63.6,10.2c36.6,0,71-9.7,100.7-26.7c56.5,34,94.6,95.7,95.2,166.2
		c-28.6,16.4-61.8,25.8-97.1,25.8c-34.4,0-66.8-8.9-94.9-24.6L666.9,637.9z M763.5,470.6c-27.6,14.9-59.1,23.3-92.6,23.3
		c-31.4,0-61-7.4-87.3-20.6c-1.4-0.9-2.8-1.8-4.2-2.7c1.4-0.9,2.8-1.8,4.2-2.7c0,0,20-14.3,23.7-18.4c41.1-37,67.1-90.3,67.6-149.7
		c28.1-15.6,60.5-24.6,94.9-24.6c35.3,0,68.4,9.4,97.1,25.8c-1.1,70-39,131.2-95.2,165L763.5,470.6z M570.2,429
		c-11.8-56.7-47.1-104.8-95.3-133.6c0.9-70.5,39.2-132.2,96-166c56.7,33.8,95,95.3,96,165.8l-0.1,9.4
		c-2.2,65.2-36.3,122.3-87.2,156.4c-1.8,0.9-3.5,1.8-5.3,2.7c0-1.4-0.1-2.8-0.2-4.2C574.2,459.5,573.5,442.3,570.2,429z
		 M534.6,449.5c-20-6.6-41.4-10.2-63.6-10.2c-36.6,0-71,9.7-100.7,26.7c-56.6-34.1-94.7-95.9-95.2-166.5
		c28.3-15.9,60.9-24.9,95.5-24.9c35,0,68,9.3,96.5,25.4l8.1,4.9c52,32.9,87.5,89.6,91.1,154.6c-0.1,1.1-0.1,2.3-0.2,3.4
		c-1.2-0.7-2.5-1.3-3.8-1.9C562.3,460.9,550.2,454.7,534.6,449.5z M935.4,316.4c10.9,25.8,19,52.5,24.2,79.9
		c-16.6-41.8-46.6-76.9-84.6-99.8c-0.3-46-16-88.5-42.1-122.5c6,5.3,11.9,10.9,17.7,16.6C886.9,226.9,915.4,269.3,935.4,316.4z
		 M698.8,95.8c-9.1-1.3-18.4-1.9-27.9-1.9c-36.3,0-70.4,9.5-100,26.2c-29.6-16.7-63.7-26.2-100-26.2c-10,0-19.8,0.7-29.4,2.1
		c41.3-14.3,84.6-21.5,128.9-21.5C614.6,74.6,657.7,81.7,698.8,95.8z M205.6,316.4c19.9-47.2,48.5-89.5,84.9-125.9
		c6.6-6.6,13.5-13,20.5-19.1c-27,34-43.3,76.9-44,123.4c-37.7,22.3-67.6,56.3-84.7,97C187.5,366.1,195.3,340.9,205.6,316.4z
		 M205.6,624.7c-10.3-24.5-18.1-49.7-23.3-75.5c17.1,40.7,47,74.8,84.7,97c0.7,46.4,16.9,89.2,43.8,123.2
		c-6.9-6-13.7-12.3-20.2-18.9C254.1,714.2,225.6,671.9,205.6,624.7z M442,845.3c9.5,1.3,19.1,2.1,28.9,2.1c36.3,0,70.4-9.5,100-26.2
		c29.6,16.7,63.7,26.2,100,26.2c9.3,0,18.5-0.6,27.5-1.9c-41,14-83.9,21.1-127.9,21.1C526.3,866.6,483.2,859.4,442,845.3z
		 M935.4,624.7c-19.9,47.2-48.5,89.5-84.9,125.9c-5.7,5.7-11.5,11.1-17.5,16.4c25.7-33.7,41.3-75.5,41.8-121
		c37.7-22.8,67.5-57.4,84.2-98.6C953.9,573.8,946,599.7,935.4,624.7z"/>
	<g class="st17">
		<path class="st20" d="M942.8,313.3c-20.3-48.1-49.5-91.3-86.6-128.4c-37.1-37.1-80.3-66.2-128.4-86.6
			C677.9,77.2,625,66.6,570.5,66.6S463.1,77.2,413.2,98.3c-48.1,20.3-91.3,49.5-128.4,86.6c-37.1,37.1-66.2,80.3-86.6,128.4
			c-21.1,49.8-31.8,102.7-31.8,157.3s10.7,107.4,31.8,157.3c20.3,48.1,49.5,91.3,86.6,128.4c37.1,37.1,80.3,66.2,128.4,86.6
			c49.8,21.1,102.7,31.8,157.3,31.8s107.4-10.7,157.3-31.8c48.1-20.3,91.3-49.5,128.4-86.6c37.1-37.1,66.2-80.3,86.6-128.4
			c21.1-49.8,31.8-102.7,31.8-157.3S963.8,363.1,942.8,313.3z M874.8,636.7c-2.2-69.9-39.8-131-95.4-166.1
			c55.3-34.8,92.7-95.5,95.4-164.8c54.7,34.8,91.1,96,91.1,165.5C965.8,540.7,929.5,601.9,874.8,636.7z M670.9,839.3
			c-33.2,0-64.6-8.3-92-23c55.4-34.7,93-95.3,95.8-164.6c28.4,15,60.8,23.6,95.1,23.6c35.1,0,68.1-8.9,97-24.6
			C862.9,755.4,776.5,839.3,670.9,839.3z M275.1,650.8c28.5,15.1,61,23.7,95.4,23.7c34.9,0,67.8-8.8,96.6-24.3
			c2.3,70,40.1,131.2,95.9,166.1c-27.5,14.7-58.8,23-92,23C365.4,839.3,279.1,755.4,275.1,650.8z M174.5,470.6
			c0-70.1,37-131.8,92.5-166.4c2.1,70.1,39.7,131.3,95.4,166.4c-55.7,35.1-93.3,96.3-95.4,166.4
			C211.5,602.3,174.5,540.7,174.5,470.6z M470.9,101.9c33.2,0,64.6,8.3,92,23c-55.8,34.9-93.5,96.1-95.9,166
			c-28.8-15.5-61.7-24.3-96.6-24.3c-34.4,0-66.9,8.6-95.4,23.7C279.1,185.7,365.4,101.9,470.9,101.9z M866.8,291.8
			c-28.9-15.7-61.9-24.6-97-24.6c-34.3,0-66.6,8.5-95,23.5c-2.4-69.9-40.2-131-95.9-165.9c27.5-14.7,58.8-23,92-23
			C777,101.9,863.6,186.5,866.8,291.8z M378.3,470.6c27.6-14.9,59.1-23.3,92.6-23.3c31.4,0,61,7.4,87.3,20.6
			c1.4,0.9,2.8,1.8,4.2,2.7c-1.4,0.9-2.8,1.8-4.2,2.7c0,0-15.1,10.2-23.7,18.4c-41,36.9-67,90.2-67.6,149.4
			c-28.5,16.2-61.4,25.4-96.5,25.4c-34.7,0-67.3-9.1-95.5-24.9c0.6-70.6,38.7-132.4,95.2-166.4L378.3,470.6z M475.1,636.3
			c2.3-65,36.4-122,87.2-156c1.2-0.6,2.5-1.3,3.7-1.9c0,1.3,0.1,2.6,0.2,3.9c0,0,0.9,17.8,4,30.5C582,570,618,618.6,666.9,647.3
			c-1.4,69.9-39.6,131-95.9,164.5c-56.8-33.8-95.1-95.5-96-166.1L475.1,636.3z M666.9,637.9c-52.8-32.8-89-89.9-92.7-155.6
			c0.1-1.6,0.2-3.2,0.2-4.8c1.7,0.9,3.5,1.8,5.3,2.7c0,0,9,5.4,27.7,11.4c20,6.6,41.4,10.2,63.6,10.2c36.6,0,71-9.7,100.7-26.7
			c56.5,34,94.6,95.7,95.2,166.2c-28.6,16.4-61.8,25.8-97.1,25.8c-34.4,0-66.8-8.9-94.9-24.6L666.9,637.9z M763.5,470.6
			c-27.6,14.9-59.1,23.3-92.6,23.3c-31.4,0-61-7.4-87.3-20.6c-1.4-0.9-2.8-1.8-4.2-2.7c1.4-0.9,2.8-1.8,4.2-2.7
			c0,0,20-14.3,23.7-18.4c41.1-37,67.1-90.3,67.6-149.7c28.1-15.6,60.5-24.6,94.9-24.6c35.3,0,68.4,9.4,97.1,25.8
			c-1.1,70-39,131.2-95.2,165L763.5,470.6z M570.2,429c-11.8-56.7-47.1-104.8-95.3-133.6c0.9-70.5,39.2-132.2,96-166
			c56.7,33.8,95,95.3,96,165.8l-0.1,9.4c-2.2,65.2-36.3,122.3-87.2,156.4c-1.8,0.9-3.5,1.8-5.3,2.7c0-1.4-0.1-2.8-0.2-4.2
			C574.2,459.5,573.5,442.3,570.2,429z M534.6,449.5c-20-6.6-41.4-10.2-63.6-10.2c-36.6,0-71,9.7-100.7,26.7
			c-56.6-34.1-94.7-95.9-95.2-166.5c28.3-15.9,60.9-24.9,95.5-24.9c35,0,68,9.3,96.5,25.4l8.1,4.9c52,32.9,87.5,89.6,91.1,154.6
			c-0.1,1.1-0.1,2.3-0.2,3.4c-1.2-0.7-2.5-1.3-3.8-1.9C562.3,460.9,550.2,454.7,534.6,449.5z M935.4,316.4
			c10.9,25.8,19,52.5,24.2,79.9c-16.6-41.8-46.6-76.9-84.6-99.8c-0.3-46-16-88.5-42.1-122.5c6,5.3,11.9,10.9,17.7,16.6
			C886.9,226.9,915.4,269.3,935.4,316.4z M698.8,95.8c-9.1-1.3-18.4-1.9-27.9-1.9c-36.3,0-70.4,9.5-100,26.2
			c-29.6-16.7-63.7-26.2-100-26.2c-10,0-19.8,0.7-29.4,2.1c41.3-14.3,84.6-21.5,128.9-21.5C614.6,74.6,657.7,81.7,698.8,95.8z
			 M205.6,316.4c19.9-47.2,48.5-89.5,84.9-125.9c6.6-6.6,13.5-13,20.5-19.1c-27,34-43.3,76.9-44,123.4c-37.7,22.3-67.6,56.3-84.7,97
			C187.5,366.1,195.3,340.9,205.6,316.4z M205.6,624.7c-10.3-24.5-18.1-49.7-23.3-75.5c17.1,40.7,47,74.8,84.7,97
			c0.7,46.4,16.9,89.2,43.8,123.2c-6.9-6-13.7-12.3-20.2-18.9C254.1,714.2,225.6,671.9,205.6,624.7z M442,845.3
			c9.5,1.3,19.1,2.1,28.9,2.1c36.3,0,70.4-9.5,100-26.2c29.6,16.7,63.7,26.2,100,26.2c9.3,0,18.5-0.6,27.5-1.9
			c-41,14-83.9,21.1-127.9,21.1C526.3,866.6,483.2,859.4,442,845.3z M935.4,624.7c-19.9,47.2-48.5,89.5-84.9,125.9
			c-5.7,5.7-11.5,11.1-17.5,16.4c25.7-33.7,41.3-75.5,41.8-121c37.7-22.8,67.5-57.4,84.2-98.6C953.9,573.8,946,599.7,935.4,624.7z"
			/>
	</g>
	<text transform="matrix(1 0 0 1 228.8002 1040.3539)" class="st20 st42 st43 st44">MANAVEDA</text>
	<g>
		<path class="st20" d="M527.3,317.5c28.5,30.4,48.2,68.6,55.8,109.7c0.7,3.2,1.3,6.9,1.8,11.1C624.6,406.2,649,358.8,652,308
			l0.3-9.1c0-3.7-0.1-7.3-0.2-11c-36,23.5-62.7,53.8-78.6,91.8c-13.3-30.2-31.4-48.8-46.1-62.6C527.4,317.2,527.3,317.4,527.3,317.5
			z"/>
		<path class="st20" d="M683.1,356.5c-11.7,40-34.6,76.4-66.2,103.8c-2.4,2.2-5.3,4.6-8.6,7.2c47.8,17.9,101.1,14.8,146.3-8.4l8-4.4
			c3.2-1.8,6.3-3.8,9.4-5.8c-38.6-19.1-78.2-26.7-119-21.1c19.2-26.8,26.1-51.9,30.6-71.5C683.4,356.5,683.3,356.5,683.1,356.5z"/>
		<g>
			<path class="st20" d="M614.1,624.4c-29.2-29.7-49.7-67.5-58.3-108.5c-0.8-3.2-1.5-6.9-2.1-11c-38.9,33-62.3,81-64.1,131.8
				l-0.1,9.1c0,3.7,0.2,7.3,0.5,11c35.5-24.3,61.5-55.2,76.5-93.5c14,29.9,32.5,48.1,47.5,61.6C614,624.7,614.1,624.5,614.1,624.4z"
				/>
		</g>
		<path class="st20" d="M725.1,510.1c-40.5,9.9-83.4,8.2-123-5.4c-3.1-1-6.7-2.3-10.5-3.8c8.4,50.4,37.7,95,80.4,122.5l7.8,4.8
			c3.2,1.8,6.4,3.6,9.7,5.2c-2.8-42.9-16-81.1-41.2-113.6c32.8,3.2,58-3.3,77.2-9.3C725.3,510.3,725.2,510.2,725.1,510.1z"/>
		<path class="st20" d="M416.1,431.4c40.4-10.4,83.3-9.3,123.1,3.8c3.1,0.9,6.7,2.2,10.6,3.7c-9.1-50.2-39-94.5-82-121.4l-7.8-4.6
			c-3.2-1.8-6.5-3.5-9.8-5.1c3.3,42.9,17.1,80.8,42.8,113c-32.9-2.8-57.9,4.1-77.1,10.3C415.9,431.1,416,431.2,416.1,431.4z"/>
		<path class="st20" d="M459.3,584.4c11.9-39.9,35.1-76.2,66.8-103.4c2.4-2.2,5.3-4.6,8.6-7.1c-47.7-18.1-101-15.4-146.4,7.5l-8,4.3
			c-3.2,1.8-6.3,3.7-9.4,5.7c38.5,19.3,78,27.1,118.8,21.8c-19.4,26.7-26.4,51.7-31,71.3C459,584.4,459.1,584.4,459.3,584.4z"/>
	</g>
</g>
<g id="Layer_23">
</g>
<g id="Layer_24">
	<defs>
		<rect id="SVGID_33_" x="-7656.8" y="1131" width="1111" height="1111"/>
	</defs>
	<clipPath id="SVGID_13_">
		<use xlink:href="#SVGID_33_"  style="overflow:visible;"/>
	</clipPath>
</g>
<g id="Layer_25">
</g>
<g id="Layer_26">
	<defs>
		<path id="SVGID_35_" d="M6573.4,320.4c-20.3-48.1-49.5-91.3-86.6-128.4c-37.1-37.1-80.3-66.2-128.4-86.6
			c-49.8-21.1-102.7-31.8-157.3-31.8s-107.4,10.7-157.3,31.8c-48.1,20.3-91.3,49.5-128.4,86.6c-37.1,37.1-66.2,80.3-86.6,128.4
			c-21.1,49.8-31.8,102.7-31.8,157.3s10.7,107.4,31.8,157.3c20.3,48.1,49.5,91.3,86.6,128.4c37.1,37.1,80.3,66.2,128.4,86.6
			c49.8,21.1,102.7,31.8,157.3,31.8s107.4-10.7,157.3-31.8c48.1-20.3,91.3-49.5,128.4-86.6c37.1-37.1,66.2-80.3,86.6-128.4
			c21.1-49.8,31.8-102.7,31.8-157.3S6594.5,370.2,6573.4,320.4z M6505.5,643.7c-2.2-69.9-39.8-131-95.4-166.1
			c55.3-34.8,92.7-95.5,95.4-164.8c54.7,34.8,91.1,96,91.1,165.5C6596.5,547.8,6560.2,608.9,6505.5,643.7z M6301.6,846.4
			c-33.2,0-64.6-8.3-92-23c55.4-34.7,93-95.3,95.8-164.6c28.4,15,60.8,23.6,95.1,23.6c35.1,0,68.1-8.9,97-24.6
			C6493.6,762.4,6407.2,846.4,6301.6,846.4z M5905.8,657.9c28.5,15.1,61,23.7,95.4,23.7c34.9,0,67.8-8.8,96.6-24.3
			c2.3,70,40.1,131.2,95.9,166.1c-27.5,14.7-58.8,23-92,23C5996.1,846.4,5909.7,762.5,5905.8,657.9z M5805.2,477.6
			c0-70.1,37-131.8,92.5-166.4c2.1,70.1,39.7,131.3,95.4,166.4c-55.7,35.1-93.3,96.3-95.4,166.4
			C5842.2,609.4,5805.2,547.8,5805.2,477.6z M6101.6,109c33.2,0,64.6,8.3,92,23c-55.8,34.9-93.5,96.1-95.9,166
			c-28.8-15.5-61.7-24.3-96.6-24.3c-34.4,0-66.9,8.6-95.4,23.7C5909.8,192.8,5996.1,109,6101.6,109z M6497.5,298.9
			c-28.9-15.7-61.9-24.6-97-24.6c-34.3,0-66.6,8.5-95,23.5c-2.4-69.9-40.2-131-95.9-165.9c27.5-14.7,58.8-23,92-23
			C6407.6,109,6494.3,193.6,6497.5,298.9z M6009,477.7c27.6-14.9,59.1-23.3,92.6-23.3c31.4,0,61,7.4,87.3,20.6
			c1.4,0.9,2.8,1.8,4.2,2.7c-1.4,0.9-2.8,1.8-4.2,2.7c0,0-15.1,10.2-23.7,18.4c-41,36.9-67,90.2-67.6,149.4
			c-28.5,16.2-61.4,25.4-96.5,25.4c-34.7,0-67.3-9.1-95.5-24.9c0.6-70.6,38.7-132.4,95.2-166.4L6009,477.7z M6105.8,643.3
			c2.3-65,36.4-122,87.2-156c1.2-0.6,2.5-1.3,3.7-1.9c0,1.3,0.1,2.6,0.2,3.9c0,0,0.9,17.8,4,30.5c11.9,57.2,47.9,105.8,96.8,134.5
			c-1.4,69.9-39.6,131-95.9,164.5c-56.8-33.8-95.1-95.5-96-166.1L6105.8,643.3z M6297.5,645c-52.8-32.8-89-89.9-92.7-155.6
			c0.1-1.6,0.2-3.2,0.2-4.8c1.7,0.9,3.5,1.8,5.3,2.7c0,0,9,5.4,27.7,11.4c20,6.6,41.4,10.2,63.6,10.2c36.6,0,71-9.7,100.7-26.7
			c56.5,34,94.6,95.7,95.2,166.2c-28.6,16.4-61.8,25.8-97.1,25.8c-34.4,0-66.8-8.9-94.9-24.6L6297.5,645z M6394.2,477.7
			c-27.6,14.9-59.1,23.3-92.6,23.3c-31.4,0-61-7.4-87.3-20.6c-1.4-0.9-2.8-1.8-4.2-2.7c1.4-0.9,2.8-1.8,4.2-2.7
			c0,0,20-14.3,23.7-18.4c41.1-37,67.1-90.3,67.6-149.7c28.1-15.6,60.5-24.6,94.9-24.6c35.3,0,68.4,9.4,97.1,25.8
			c-1.1,70-39,131.2-95.2,165L6394.2,477.7z M6200.9,436.1c-11.8-56.7-47.1-104.8-95.3-133.6c0.9-70.5,39.2-132.2,96-166
			c56.7,33.8,95,95.3,96,165.8l-0.1,9.4c-2.2,65.2-36.3,122.3-87.2,156.4c-1.8,0.9-3.5,1.8-5.3,2.7c0-1.4-0.1-2.8-0.2-4.2
			C6204.9,466.5,6204.1,449.3,6200.9,436.1z M6165.2,456.5c-20-6.6-41.4-10.2-63.6-10.2c-36.6,0-71,9.7-100.7,26.7
			c-56.6-34.1-94.7-95.9-95.2-166.5c28.3-15.9,60.9-24.9,95.5-24.9c35,0,68,9.3,96.5,25.4l8.1,4.9c52,32.9,87.5,89.6,91.1,154.6
			c-0.1,1.1-0.1,2.3-0.2,3.4c-1.2-0.7-2.5-1.3-3.8-1.9C6192.9,468,6180.8,461.7,6165.2,456.5z M6566.1,323.5
			c10.9,25.8,19,52.5,24.2,79.9c-16.6-41.8-46.6-76.9-84.6-99.8c-0.3-46-16-88.5-42.1-122.5c6,5.3,11.9,10.9,17.7,16.6
			C6517.6,234,6546.1,276.3,6566.1,323.5z M6329.5,102.9c-9.1-1.3-18.4-1.9-27.9-1.9c-36.3,0-70.4,9.5-100,26.2
			c-29.6-16.7-63.7-26.2-100-26.2c-10,0-19.8,0.7-29.4,2.1c41.3-14.3,84.6-21.5,128.9-21.5C6245.3,81.6,6288.4,88.8,6329.5,102.9z
			 M5836.3,323.5c19.9-47.2,48.5-89.5,84.9-125.9c6.6-6.6,13.5-13,20.5-19.1c-27,34-43.3,76.9-44,123.4
			c-37.7,22.3-67.6,56.3-84.7,97C5818.2,373.2,5825.9,347.9,5836.3,323.5z M5836.3,631.8c-10.3-24.5-18.1-49.7-23.3-75.5
			c17.1,40.7,47,74.8,84.7,97c0.7,46.4,16.9,89.2,43.8,123.2c-6.9-6-13.7-12.3-20.2-18.9C5884.8,721.3,5856.2,678.9,5836.3,631.8z
			 M6072.7,852.3c9.5,1.3,19.1,2.1,28.9,2.1c36.3,0,70.4-9.5,100-26.2c29.6,16.7,63.7,26.2,100,26.2c9.3,0,18.5-0.6,27.5-1.9
			c-41,14-83.9,21.1-127.9,21.1C6157,873.6,6113.9,866.5,6072.7,852.3z M6566.1,631.8c-19.9,47.2-48.5,89.5-84.9,125.9
			c-5.7,5.7-11.5,11.1-17.5,16.4c25.7-33.7,41.3-75.5,41.8-121c37.7-22.8,67.5-57.4,84.2-98.6
			C6584.5,580.9,6576.6,606.7,6566.1,631.8z"/>
	</defs>
	<clipPath id="SVGID_14_">
		<use xlink:href="#SVGID_35_"  style="overflow:visible;"/>
	</clipPath>
</g>
</svg>
