<?xml version="1.0" encoding="utf-8"?>
<!-- Generator: Adobe Illustrator 22.1.0, SVG Export Plug-In . SVG Version: 6.00 Build 0)  -->
<svg version="1.1" xmlns="http://www.w3.org/2000/svg" xmlns:xlink="http://www.w3.org/1999/xlink" x="0px" y="0px"
	 viewBox="0 0 1111 1111" style="enable-background:new 0 0 1111 1111;" xml:space="preserve">
<style type="text/css">
	.st0{display:none;}
	.st1{display:inline;}
	.st2{fill:url(#SVGID_1_);}
	.st3{fill:url(#SVGID_2_);}
	.st4{fill:url(#SVGID_3_);}
	.st5{fill:url(#SVGID_4_);}
	.st6{fill:url(#SVGID_5_);}
	.st7{fill:url(#SVGID_6_);}
	.st8{display:inline;fill:none;}
	.st9{display:inline;fill:none;stroke:#FFFFFF;stroke-width:2.126;stroke-miterlimit:10;}
	.st10{fill:url(#SVGID_7_);}
	.st11{fill:url(#SVGID_8_);}
	.st12{fill:url(#SVGID_9_);}
	.st13{fill:url(#SVGID_10_);}
	.st14{fill:url(#SVGID_11_);}
	.st15{fill:url(#SVGID_12_);}
	.st16{fill:#958757;}
	.st17{opacity:0.48;}
	.st18{fill:none;}
	.st19{fill:#09D1AA;}
	.st20{fill:#2B2B2B;}
	.st21{fill:url(#SVGID_13_);}
	.st22{fill:url(#SVGID_14_);}
	.st23{fill:url(#SVGID_15_);}
	.st24{fill:url(#SVGID_16_);}
	.st25{fill:url(#SVGID_17_);}
	.st26{fill:url(#SVGID_18_);}
	.st27{fill:url(#SVGID_19_);}
	.st28{fill:url(#SVGID_20_);}
	.st29{fill:url(#SVGID_21_);}
	.st30{fill:url(#SVGID_22_);}
	.st31{fill:url(#SVGID_23_);}
	.st32{fill:url(#SVGID_24_);}
	.st33{fill:url(#SVGID_25_);}
	.st34{fill:url(#SVGID_26_);}
	.st35{fill:url(#SVGID_27_);}
	.st36{fill:url(#SVGID_28_);}
	.st37{fill:url(#SVGID_29_);}
	.st38{fill:url(#SVGID_30_);}
	.st39{fill:url(#SVGID_31_);}
	.st40{fill:#FFFFFF;}
	.st41{fill:url(#SVGID_32_);}
	.st42{clip-path:url(#SVGID_34_);}
	.st43{opacity:0.48;clip-path:url(#SVGID_36_);}
	.st44{fill:url(#SVGID_37_);}
	.st45{fill:url(#SVGID_38_);}
	.st46{fill:url(#SVGID_39_);}
	.st47{fill:url(#SVGID_40_);}
	.st48{fill:url(#SVGID_41_);}
	.st49{fill:url(#SVGID_42_);}
	.st50{fill:url(#SVGID_43_);}
	.st51{fill:url(#SVGID_44_);}
	.st52{fill:url(#SVGID_45_);}
	.st53{fill:url(#SVGID_46_);}
	.st54{fill:url(#SVGID_47_);}
	.st55{fill:url(#SVGID_48_);}
	.st56{fill:url(#SVGID_49_);}
	.st57{fill:url(#SVGID_50_);}
	.st58{fill:url(#SVGID_51_);}
	.st59{fill:url(#SVGID_52_);}
	.st60{fill:url(#SVGID_53_);}
	.st61{fill:url(#SVGID_54_);}
</style>
<g id="Layer_13">
</g>
<g id="mandala">
	<g id="ROUND_BG">
	</g>
	<g id="OG" class="st0">
	</g>
	<g id="Layer_6_copy">
	</g>
	<g id="gradient">
	</g>
	<g id="GREEN" class="st0">
	</g>
	<g id="Layer_8" class="st0">
	</g>
	<g id="Layer_9">
	</g>
</g>
<g id="mandala_copy">
	<g id="ROUND_BG_copy">
	</g>
	<g id="OG_copy" class="st0">
	</g>
	<g id="Layer_6_copy_2">
	</g>
	<g id="gradient_copy">
	</g>
	<g id="GREEN_copy" class="st0">
	</g>
	<g id="Layer_8_copy" class="st0">
	</g>
	<g id="Layer_9_copy">
	</g>
</g>
<g id="Layer_7">
</g>
<g id="Layer_20">
</g>
<g id="Layer_19">
	<rect class="st20" width="1111" height="1111"/>
	<path class="st16" d="M930.9,335.5c-20.3-48.1-49.5-91.3-86.6-128.4c-37.1-37.1-80.3-66.2-128.4-86.6
		c-49.8-21.1-102.7-31.8-157.3-31.8s-107.4,10.7-157.3,31.8c-48.1,20.3-91.3,49.5-128.4,86.6c-37.1,37.1-66.2,80.3-86.6,128.4
		c-21.1,49.8-31.8,102.7-31.8,157.3s10.7,107.4,31.8,157.3c20.3,48.1,49.5,91.3,86.6,128.4c37.1,37.1,80.3,66.2,128.4,86.6
		c49.8,21.1,102.7,31.8,157.3,31.8s107.4-10.7,157.3-31.8c48.1-20.3,91.3-49.5,128.4-86.6c37.1-37.1,66.2-80.3,86.6-128.4
		c21.1-49.8,31.8-102.7,31.8-157.3S952,385.3,930.9,335.5z M863,658.9c-2.2-69.9-39.8-131-95.4-166.1
		c55.3-34.8,92.7-95.5,95.4-164.8c54.7,34.8,91.1,96,91.1,165.5C954,562.9,917.7,624,863,658.9z M659.1,861.5
		c-33.2,0-64.6-8.3-92-23c55.4-34.7,93-95.3,95.8-164.6c28.4,15,60.8,23.6,95.1,23.6c35.1,0,68.1-8.9,97-24.6
		C851.1,777.5,764.7,861.5,659.1,861.5z M263.3,673c28.5,15.1,61,23.7,95.4,23.7c34.9,0,67.8-8.8,96.6-24.3
		c2.3,70,40.1,131.2,95.9,166.1c-27.5,14.7-58.8,23-92,23C353.5,861.5,267.2,777.6,263.3,673z M162.7,492.7
		c0-70.1,37-131.8,92.5-166.4c2.1,70.1,39.7,131.3,95.4,166.4c-55.7,35.1-93.3,96.3-95.4,166.4C199.7,624.5,162.7,562.9,162.7,492.7
		z M459.1,124.1c33.2,0,64.6,8.3,92,23c-55.8,34.9-93.5,96.1-95.9,166c-28.8-15.5-61.7-24.3-96.6-24.3c-34.4,0-66.9,8.6-95.4,23.7
		C267.3,207.9,353.6,124.1,459.1,124.1z M855,314c-28.9-15.7-61.9-24.6-97-24.6c-34.3,0-66.6,8.5-95,23.5
		c-2.4-69.9-40.2-131-95.9-165.9c27.5-14.7,58.8-23,92-23C765.1,124.1,851.8,208.7,855,314z M366.5,492.8
		c27.6-14.9,59.1-23.3,92.6-23.3c31.4,0,61,7.4,87.3,20.6c1.4,0.9,2.8,1.8,4.2,2.7c-1.4,0.9-2.8,1.8-4.2,2.7
		c0,0-15.1,10.2-23.7,18.4c-41,36.9-67,90.2-67.6,149.4c-28.5,16.2-61.4,25.4-96.5,25.4c-34.7,0-67.3-9.1-95.5-24.9
		c0.6-70.6,38.7-132.4,95.2-166.4L366.5,492.8z M463.2,658.4c2.3-65,36.4-122,87.2-156c1.2-0.6,2.5-1.3,3.7-1.9
		c0,1.3,0.1,2.6,0.2,3.9c0,0,0.9,17.8,4,30.5c11.9,57.2,47.9,105.8,96.8,134.5c-1.4,69.9-39.6,131-95.9,164.5
		c-56.8-33.8-95.1-95.5-96-166.1L463.2,658.4z M655,660.1c-52.8-32.8-89-89.9-92.7-155.6c0.1-1.6,0.2-3.2,0.2-4.8
		c1.7,0.9,3.5,1.8,5.3,2.7c0,0,9,5.4,27.7,11.4c20,6.6,41.4,10.2,63.6,10.2c36.6,0,71-9.7,100.7-26.7c56.5,34,94.6,95.7,95.2,166.2
		c-28.6,16.4-61.8,25.8-97.1,25.8c-34.4,0-66.8-8.9-94.9-24.6L655,660.1z M751.7,492.8c-27.6,14.9-59.1,23.3-92.6,23.3
		c-31.4,0-61-7.4-87.3-20.6c-1.4-0.9-2.8-1.8-4.2-2.7c1.4-0.9,2.8-1.8,4.2-2.7c0,0,20-14.3,23.7-18.4c41.1-37,67.1-90.3,67.6-149.7
		c28.1-15.6,60.5-24.6,94.9-24.6c35.3,0,68.4,9.4,97.1,25.8c-1.1,70-39,131.2-95.2,165L751.7,492.8z M558.4,451.2
		c-11.8-56.7-47.1-104.8-95.3-133.6c0.9-70.5,39.2-132.2,96-166c56.7,33.8,95,95.3,96,165.8l-0.1,9.4
		c-2.2,65.2-36.3,122.3-87.2,156.4c-1.8,0.9-3.5,1.8-5.3,2.7c0-1.4-0.1-2.8-0.2-4.2C562.4,481.7,561.6,464.5,558.4,451.2z
		 M522.7,471.7c-20-6.6-41.4-10.2-63.6-10.2c-36.6,0-71,9.7-100.7,26.7c-56.6-34.1-94.7-95.9-95.2-166.5
		c28.3-15.9,60.9-24.9,95.5-24.9c35,0,68,9.3,96.5,25.4l8.1,4.9c52,32.9,87.5,89.6,91.1,154.6c-0.1,1.1-0.1,2.3-0.2,3.4
		c-1.2-0.7-2.5-1.3-3.8-1.9C550.4,483.1,538.3,476.8,522.7,471.7z M923.5,338.6c10.9,25.8,19,52.5,24.2,79.9
		c-16.6-41.8-46.6-76.9-84.6-99.8c-0.3-46-16-88.5-42.1-122.5c6,5.3,11.9,10.9,17.7,16.6C875,249.1,903.6,291.5,923.5,338.6z
		 M687,118c-9.1-1.3-18.4-1.9-27.9-1.9c-36.3,0-70.4,9.5-100,26.2c-29.6-16.7-63.7-26.2-100-26.2c-10,0-19.8,0.7-29.4,2.1
		C471,104,514.3,96.7,558.7,96.7C602.8,96.7,645.9,103.9,687,118z M193.8,338.6c19.9-47.2,48.5-89.5,84.9-125.9
		c6.6-6.6,13.5-13,20.5-19.1c-27,34-43.3,76.9-44,123.4c-37.7,22.3-67.6,56.3-84.7,97C175.6,388.3,183.4,363.1,193.8,338.6z
		 M193.8,646.9c-10.3-24.5-18.1-49.7-23.3-75.5c17.1,40.7,47,74.8,84.7,97c0.7,46.4,16.9,89.2,43.8,123.2
		c-6.9-6-13.7-12.3-20.2-18.9C242.3,736.4,213.7,694,193.8,646.9z M430.2,867.4c9.5,1.3,19.1,2.1,28.9,2.1c36.3,0,70.4-9.5,100-26.2
		c29.6,16.7,63.7,26.2,100,26.2c9.3,0,18.5-0.6,27.5-1.9c-41,14-83.9,21.1-127.9,21.1C514.5,888.7,471.4,881.6,430.2,867.4z
		 M923.5,646.9c-19.9,47.2-48.5,89.5-84.9,125.9c-5.7,5.7-11.5,11.1-17.5,16.4c25.7-33.7,41.3-75.5,41.8-121
		c37.7-22.8,67.5-57.4,84.2-98.6C942,596,934.1,621.9,923.5,646.9z"/>
	<g class="st17">
		<linearGradient id="SVGID_1_" gradientUnits="userSpaceOnUse" x1="494.0807" y1="130.866" x2="558.9652" y2="130.866">
			<stop  offset="0" style="stop-color:#000000;stop-opacity:0"/>
			<stop  offset="1" style="stop-color:#000000"/>
		</linearGradient>
		<polygon class="st2" points="551,147.1 559,142.3 557.4,130.3 499.3,114.6 494.1,134.9 		"/>
		<path class="st18" d="M930.8,335.5c-20.3-48.1-49.5-91.3-86.6-128.4c-37.1-37.1-80.3-66.2-128.4-86.6
			C666,99.4,613.1,88.7,558.5,88.7s-107.4,10.7-157.3,31.8c-48.1,20.3-91.3,49.5-128.4,86.6c-37.1,37.1-66.2,80.3-86.6,128.4
			c-21.1,49.8-31.8,102.7-31.8,157.3s10.7,107.4,31.8,157.3c20.3,48.1,49.5,91.3,86.6,128.4c37.1,37.1,80.3,66.2,128.4,86.6
			c49.8,21.1,102.7,31.8,157.3,31.8S666,886.1,715.8,865c48.1-20.3,91.3-49.5,128.4-86.6c37.1-37.1,66.2-80.3,86.6-128.4
			c21.1-49.8,31.8-102.7,31.8-157.3S951.8,385.3,930.8,335.5z M862.8,658.9c-2.2-69.9-39.8-131-95.4-166.1
			c55.3-34.8,92.7-95.5,95.4-164.8c54.7,34.8,91.1,96,91.1,165.5C953.9,562.9,917.5,624,862.8,658.9z M659,861.5
			c-33.2,0-64.6-8.3-92-23c55.4-34.7,93-95.3,95.8-164.6c28.4,15,60.8,23.6,95.1,23.6c35.1,0,68.1-8.9,97-24.6
			C850.9,777.5,764.6,861.5,659,861.5z M263.1,673c28.5,15.1,61,23.7,95.4,23.7c34.9,0,67.8-8.8,96.6-24.3
			c2.3,70,40.1,131.2,95.9,166.1c-27.5,14.7-58.8,23-92,23C353.4,861.5,267.1,777.6,263.1,673z M162.5,492.7
			c0-70.1,37-131.8,92.5-166.4c2.1,70.1,39.7,131.3,95.4,166.4c-55.7,35.1-93.3,96.3-95.4,166.4
			C199.6,624.5,162.5,562.9,162.5,492.7z M459,124.1c33.2,0,64.6,8.3,92,23c-55.8,34.9-93.5,96.1-95.9,166
			c-28.8-15.5-61.7-24.3-96.6-24.3c-34.4,0-66.9,8.6-95.4,23.7C267.1,207.9,353.4,124.1,459,124.1z M854.9,314
			c-28.9-15.7-61.9-24.6-97-24.6c-34.3,0-66.6,8.5-95,23.5c-2.4-69.9-40.2-131-95.9-165.9c27.5-14.7,58.8-23,92-23
			C765,124.1,851.6,208.7,854.9,314z M366.4,492.8c27.6-14.9,59.1-23.3,92.6-23.3c31.4,0,61,7.4,87.3,20.6c1.4,0.9,2.8,1.8,4.2,2.7
			c-1.4,0.9-2.8,1.8-4.2,2.7c0,0-15.1,10.2-23.7,18.4c-41,36.9-67,90.2-67.6,149.4c-28.5,16.2-61.4,25.4-96.5,25.4
			c-34.7,0-67.3-9.1-95.5-24.9c0.6-70.6,38.7-132.4,95.2-166.4L366.4,492.8z M463.1,658.4c2.3-65,36.4-122,87.2-156
			c1.2-0.6,2.5-1.3,3.7-1.9c0,1.3,0.1,2.6,0.2,3.9c0,0,0.9,17.8,4,30.5c11.9,57.2,47.9,105.8,96.8,134.5
			c-1.4,69.9-39.6,131-95.9,164.5c-56.8-33.8-95.1-95.5-96-166.1L463.1,658.4z M654.9,660.1c-52.8-32.8-89-89.9-92.7-155.6
			c0.1-1.6,0.2-3.2,0.2-4.8c1.7,0.9,3.5,1.8,5.3,2.7c0,0,9,5.4,27.7,11.4c20,6.6,41.4,10.2,63.6,10.2c36.6,0,71-9.7,100.7-26.7
			c56.5,34,94.6,95.7,95.2,166.2c-28.6,16.4-61.8,25.8-97.1,25.8c-34.4,0-66.8-8.9-94.9-24.6L654.9,660.1z M751.6,492.8
			c-27.6,14.9-59.1,23.3-92.6,23.3c-31.4,0-61-7.4-87.3-20.6c-1.4-0.9-2.8-1.8-4.2-2.7c1.4-0.9,2.8-1.8,4.2-2.7
			c0,0,20-14.3,23.7-18.4c41.1-37,67.1-90.3,67.6-149.7c28.1-15.6,60.5-24.6,94.9-24.6c35.3,0,68.4,9.4,97.1,25.8
			c-1.1,70-39,131.2-95.2,165L751.6,492.8z M558.3,451.2c-11.8-56.7-47.1-104.8-95.3-133.6c0.9-70.5,39.2-132.2,96-166
			c56.7,33.8,95,95.3,96,165.8l-0.1,9.4c-2.2,65.2-36.3,122.3-87.2,156.4c-1.8,0.9-3.5,1.8-5.3,2.7c0-1.4-0.1-2.8-0.2-4.2
			C562.2,481.7,561.5,464.5,558.3,451.2z M522.6,471.7c-20-6.6-41.4-10.2-63.6-10.2c-36.6,0-71,9.7-100.7,26.7
			c-56.6-34.1-94.7-95.9-95.2-166.5c28.3-15.9,60.9-24.9,95.5-24.9c35,0,68,9.3,96.5,25.4l8.1,4.9c52,32.9,87.5,89.6,91.1,154.6
			c-0.1,1.1-0.1,2.3-0.2,3.4c-1.2-0.7-2.5-1.3-3.8-1.9C550.3,483.1,538.2,476.8,522.6,471.7z M923.4,338.6
			c10.9,25.8,19,52.5,24.2,79.9c-16.6-41.8-46.6-76.9-84.6-99.8c-0.3-46-16-88.5-42.1-122.5c6,5.3,11.9,10.9,17.7,16.6
			C874.9,249.1,903.5,291.5,923.4,338.6z M686.9,118c-9.1-1.3-18.4-1.9-27.9-1.9c-36.3,0-70.4,9.5-100,26.2
			c-29.6-16.7-63.7-26.2-100-26.2c-10,0-19.8,0.7-29.4,2.1c41.3-14.3,84.6-21.5,128.9-21.5C602.7,96.7,645.7,103.9,686.9,118z
			 M193.6,338.6c19.9-47.2,48.5-89.5,84.9-125.9c6.6-6.6,13.5-13,20.5-19.1c-27,34-43.3,76.9-44,123.4c-37.7,22.3-67.6,56.3-84.7,97
			C175.5,388.3,183.3,363.1,193.6,338.6z M193.6,646.9c-10.3-24.5-18.1-49.7-23.3-75.5c17.1,40.7,47,74.8,84.7,97
			c0.7,46.4,16.9,89.2,43.8,123.2c-6.9-6-13.7-12.3-20.2-18.9C242.1,736.4,213.6,694,193.6,646.9z M430,867.4
			c9.5,1.3,19.1,2.1,28.9,2.1c36.3,0,70.4-9.5,100-26.2c29.6,16.7,63.7,26.2,100,26.2c9.3,0,18.5-0.6,27.5-1.9
			c-41,14-83.9,21.1-127.9,21.1C514.3,888.7,471.2,881.6,430,867.4z M923.4,646.9c-19.9,47.2-48.5,89.5-84.9,125.9
			c-5.7,5.7-11.5,11.1-17.5,16.4c25.7-33.7,41.3-75.5,41.8-121c37.7-22.8,67.5-57.4,84.2-98.6C941.9,596,934,621.9,923.4,646.9z"/>
		
			<linearGradient id="SVGID_2_" gradientUnits="userSpaceOnUse" x1="-3418.8633" y1="-5925.4253" x2="-3473.0488" y2="-5956.7095" gradientTransform="matrix(0.3767 0.9263 -0.9263 0.3767 -3349.2803 5785.1895)">
			<stop  offset="0" style="stop-color:#000000;stop-opacity:0"/>
			<stop  offset="1" style="stop-color:#000000"/>
		</linearGradient>
		<path class="st3" d="M864.8,369.9c0,0,2-37.7-2-42l-7.9-4.8c0,0-8.4,31.2-12.2,46.2C842.7,369.4,847.9,406.1,864.8,369.9z"/>
		<linearGradient id="SVGID_3_" gradientUnits="userSpaceOnUse" x1="337.8426" y1="318.6501" x2="278.696" y2="284.5018">
			<stop  offset="0" style="stop-color:#000000;stop-opacity:0"/>
			<stop  offset="1" style="stop-color:#000000"/>
		</linearGradient>
		<path class="st4" d="M263.1,312.5l-0.1,9.2c0,0,52.2-14.3,72-15.5c19.8-1.2,28-32.9,3.5-28C263.9,293.3,263.1,312.5,263.1,312.5z"
			/>
		
			<linearGradient id="SVGID_4_" gradientUnits="userSpaceOnUse" x1="-11520.2715" y1="-4313.2153" x2="-11574.1592" y2="-4344.3276" gradientTransform="matrix(-0.7071 0.7071 -0.7071 -0.7071 -10996.0312 5448.0859)">
			<stop  offset="0" style="stop-color:#000000;stop-opacity:0"/>
			<stop  offset="1" style="stop-color:#000000"/>
		</linearGradient>
		<path class="st5" d="M255.1,326.4L255,317c0,0-25.5,5.4-47,27.6c-13.8,14.2-0.7,36.6,14,16.3C242.9,331.8,255.1,326.4,255.1,326.4
			z"/>
		
			<linearGradient id="SVGID_5_" gradientUnits="userSpaceOnUse" x1="-1567.394" y1="5490.4033" x2="-1601.6025" y2="5470.6528" gradientTransform="matrix(0.7084 -0.7058 0.7058 0.7084 -2479.5962 -4377.2603)">
			<stop  offset="0" style="stop-color:#000000;stop-opacity:0"/>
			<stop  offset="1" style="stop-color:#000000"/>
		</linearGradient>
		<path class="st6" d="M255.1,659.1l7.9,4.7c0,0,7.4-34.5,15.5-52.6c7-15.5-10.8-42.4-16.5-18C252.5,633.7,255.1,659.1,255.1,659.1z
			"/>
		
			<linearGradient id="SVGID_6_" gradientUnits="userSpaceOnUse" x1="-6531.9761" y1="-6661.1143" x2="-6575.9565" y2="-6686.5063" gradientTransform="matrix(-1.853902e-03 1 -1 -1.853902e-03 -6424.1362 7243.1938)">
			<stop  offset="0" style="stop-color:#000000;stop-opacity:0"/>
			<stop  offset="1" style="stop-color:#000000"/>
		</linearGradient>
		<path class="st7" d="M263.1,673l-8.1-4.6c-7.2,11.7-1.8,17.1-1,45.8c0.6,19.8,22.5,27.7,18.5,3C266.8,681.8,263.1,673,263.1,673z"
			/>
		
			<linearGradient id="SVGID_7_" gradientUnits="userSpaceOnUse" x1="-12806.4336" y1="2230.1794" x2="-12746.124" y2="2230.1794" gradientTransform="matrix(-0.9593 -0.2825 0.2825 -0.9593 -12300.8311 -1300.1072)">
			<stop  offset="0" style="stop-color:#000000;stop-opacity:0"/>
			<stop  offset="1" style="stop-color:#000000"/>
		</linearGradient>
		<polygon class="st10" points="566.9,147.1 559,151.6 599.5,191.1 616.2,170.7 		"/>
		
			<linearGradient id="SVGID_8_" gradientUnits="userSpaceOnUse" x1="-6649.7471" y1="-6667.1655" x2="-6594.8413" y2="-6667.1655" gradientTransform="matrix(-5.129634e-03 1 -1 -5.129634e-03 -5845.8169 6879.1431)">
			<stop  offset="0" style="stop-color:#000000;stop-opacity:0"/>
			<stop  offset="1" style="stop-color:#000000"/>
		</linearGradient>
		<polygon class="st11" points="854.9,314 862.9,318.6 865.7,263.7 845,264.7 		"/>
		
			<linearGradient id="SVGID_9_" gradientUnits="userSpaceOnUse" x1="-166.6921" y1="-2540.6577" x2="-213.2938" y2="-2567.5632" gradientTransform="matrix(0.9203 0.3912 -0.3912 0.9203 -232.8736 3277.4587)">
			<stop  offset="0" style="stop-color:#000000;stop-opacity:0"/>
			<stop  offset="1" style="stop-color:#000000"/>
		</linearGradient>
		<path class="st12" d="M566.9,838.5l-8,4.7c8,11.2,20.3,17.7,43.1,25c20.3,6.5,25.5-15,4.5-22C571.3,834.5,566.9,838.5,566.9,838.5
			z"/>
		
			<linearGradient id="SVGID_10_" gradientUnits="userSpaceOnUse" x1="-12114.3291" y1="3859.6096" x2="-12161.3428" y2="3832.4663" gradientTransform="matrix(-0.8503 -0.5263 0.5263 -0.8503 -11814.3447 -2298.8728)">
			<stop  offset="0" style="stop-color:#000000;stop-opacity:0"/>
			<stop  offset="1" style="stop-color:#000000"/>
		</linearGradient>
		<path class="st13" d="M551,838.5l8-4.5c-6.2-12.3-16.4-15.3-30.4-29.8c-14.8-15.3-32.2-0.3-18,11C539.5,838.4,551,838.5,551,838.5
			z"/>
		
			<linearGradient id="SVGID_11_" gradientUnits="userSpaceOnUse" x1="-10368.5127" y1="-4757.2056" x2="-10411.5713" y2="-4782.0659" gradientTransform="matrix(-0.561 0.8278 -0.8278 -0.561 -9126.4756 6631.3501)">
			<stop  offset="0" style="stop-color:#000000;stop-opacity:0"/>
			<stop  offset="1" style="stop-color:#000000"/>
		</linearGradient>
		<path class="st14" d="M662.8,673.9l-7.9-4.4c0,0-7.1,32.6-15.1,59.9c-5.5,19,13,18.2,18,2C667.5,700.4,662.8,673.9,662.8,673.9z"
			/>
		
			<linearGradient id="SVGID_12_" gradientUnits="userSpaceOnUse" x1="-3529.186" y1="-5217.459" x2="-3572.4023" y2="-5242.4097" gradientTransform="matrix(0.4787 0.878 -0.878 0.4787 -2101.2537 6139.3428)">
			<stop  offset="0" style="stop-color:#000000;stop-opacity:0"/>
			<stop  offset="1" style="stop-color:#000000"/>
		</linearGradient>
		<path class="st15" d="M767.4,492.8l-7.7,4.6c0,0,25.8,21.8,46.4,41.4c14.4,13.6,22.1-3.2,10-15.1
			C793.1,501,767.4,492.8,767.4,492.8z"/>
		
			<linearGradient id="SVGID_13_" gradientUnits="userSpaceOnUse" x1="-128.398" y1="907.1503" x2="-172.721" y2="881.5604" gradientTransform="matrix(0.9995 -3.052263e-02 3.052263e-02 0.9995 818.3351 -591.6632)">
			<stop  offset="0" style="stop-color:#000000;stop-opacity:0"/>
			<stop  offset="1" style="stop-color:#000000"/>
		</linearGradient>
		<path class="st21" d="M662.8,313l0.1,9c0,0,29.5-9.3,57.1-16.2c14-3.5,10.1-20.9-6-15.5C683.3,300.6,662.8,313,662.8,313z"/>
		
			<linearGradient id="SVGID_14_" gradientUnits="userSpaceOnUse" x1="-5149.855" y1="7262.7778" x2="-5201.3931" y2="7233.0225" gradientTransform="matrix(0.2887 -0.9574 0.9574 0.2887 -4980.269 -6767.0996)">
			<stop  offset="0" style="stop-color:#000000;stop-opacity:0"/>
			<stop  offset="1" style="stop-color:#000000"/>
		</linearGradient>
		<path class="st22" d="M455.1,313.1l7.9,4.5c0,0,5.5-31.4,13-58.8c4-14.5-11.3-22-15.5-5.5C451.5,288.7,455.1,313.1,455.1,313.1z"
			/>
		
			<linearGradient id="SVGID_15_" gradientUnits="userSpaceOnUse" x1="-11919.7793" y1="5840.0122" x2="-11971.9531" y2="5809.8892" gradientTransform="matrix(-0.6676 -0.7446 0.7446 -0.6676 -11984.3555 -4539.0728)">
			<stop  offset="0" style="stop-color:#000000;stop-opacity:0"/>
			<stop  offset="1" style="stop-color:#000000"/>
		</linearGradient>
		<path class="st23" d="M350.5,492.8l7.7-4.6c0,0-24.8-21.3-44.3-42c-10.3-11-24.7-1.8-12.8,10.4
			C326.8,482.6,350.5,492.8,350.5,492.8z"/>
		
			<linearGradient id="SVGID_16_" gradientUnits="userSpaceOnUse" x1="-10016.7783" y1="-4662.167" x2="-10068.874" y2="-4692.2441" gradientTransform="matrix(-0.6362 0.7715 -0.7715 -0.6362 -9169.3613 5451.3379)">
			<stop  offset="0" style="stop-color:#000000;stop-opacity:0"/>
			<stop  offset="1" style="stop-color:#000000"/>
		</linearGradient>
		<path class="st24" d="M823,692.2c0,0,30-13.8,31.8-19.3l0.1-9.2c0,0-32.4,6.9-44.2,10.2C810.8,673.8,782.1,703.9,823,692.2z"/>
		
			<linearGradient id="SVGID_17_" gradientUnits="userSpaceOnUse" x1="-12263.6807" y1="-2979.9739" x2="-12209.7158" y2="-2979.9739" gradientTransform="matrix(-0.8824 0.4705 -0.4705 -0.8824 -11317.8711 3774.0381)">
			<stop  offset="0" style="stop-color:#000000;stop-opacity:0"/>
			<stop  offset="1" style="stop-color:#000000"/>
		</linearGradient>
		<polygon class="st25" points="862.8,658.9 862.9,668.2 911.3,644.3 899.1,624.1 		"/>
		
			<linearGradient id="SVGID_18_" gradientUnits="userSpaceOnUse" x1="-14178.0977" y1="-1345.6211" x2="-14237.2578" y2="-1379.7775" gradientTransform="matrix(-0.9549 0.2968 -0.2968 -0.9549 -13553.6445 3597.1716)">
			<stop  offset="0" style="stop-color:#000000;stop-opacity:0"/>
			<stop  offset="1" style="stop-color:#000000"/>
		</linearGradient>
		<path class="st26" d="M455.1,672.4l-0.1-9.1c0,0-29.1,15.3-57.5,17.4c-19.5,1.5-25.1,24.2-2.5,18
			C430.4,689.1,455.1,672.4,455.1,672.4z"/>
	</g>
	<radialGradient id="SVGID_19_" cx="571.5335" cy="494.5291" r="195.6521" gradientUnits="userSpaceOnUse">
		<stop  offset="0" style="stop-color:#FFFFFF"/>
		<stop  offset="1" style="stop-color:#09D1AA"/>
	</radialGradient>
	<path class="st27" d="M514.2,503.2c2.4-2.2,5.3-4.6,8.6-7.1c-47.7-18.1-101-15.4-146.4,7.5l-8,4.3c-3.2,1.8-6.3,3.7-9.4,5.7
		c38.5,19.3,78,27.1,118.8,21.8c-19.4,26.7-26.4,51.7-31,71.3c0.2,0,0.3-0.1,0.5-0.1C459.4,566.7,482.5,530.4,514.2,503.2z
		 M573.1,460.5c39.7-32.1,64.1-79.6,67.1-130.3l0.3-9.1c0-3.7-0.1-7.3-0.2-11c-36,23.5-62.7,53.8-78.6,91.8
		c-13.3-30.2-31.4-48.8-46.1-62.6c-0.1,0.2-0.1,0.3-0.2,0.4c28.5,30.4,48.2,68.6,55.8,109.7C571.9,452.6,572.6,456.4,573.1,460.5z
		 M406.9,451.7c0.1,0.1,0.2,0.2,0.3,0.4c40.4-10.4,83.3-9.3,123.1,3.8c3.1,0.9,6.7,2.2,10.6,3.7c-9.1-50.2-39-94.5-82-121.4
		l-7.8-4.6c-3.2-1.8-6.5-3.5-9.8-5.1c3.3,42.9,17.1,80.8,42.8,113C451.1,438.6,426.1,445.5,406.9,451.7z M541.9,527.1
		c-38.9,33-62.3,81-64.1,131.8l-0.1,9.1c0,3.7,0.2,7.3,0.5,11c35.5-24.3,61.5-55.2,76.5-93.5c14,29.9,32.5,48.1,47.5,61.6
		c0.1-0.2,0.1-0.3,0.2-0.5c-29.2-29.7-49.7-67.5-58.3-108.5C543.3,534.9,542.6,531.2,541.9,527.1z M641.2,450.1
		c19.2-26.8,26.1-51.9,30.6-71.5c-0.2,0-0.3,0.1-0.5,0.1c-11.7,40-34.6,76.4-66.2,103.8c-2.4,2.2-5.3,4.6-8.6,7.2
		c47.8,17.9,101.1,14.8,146.3-8.4l8-4.4c3.2-1.8,6.3-3.8,9.4-5.8C721.6,452.1,682,444.5,641.2,450.1z M713.6,532.6
		c-0.1-0.1-0.2-0.2-0.3-0.4c-40.5,9.9-83.4,8.2-123-5.4c-3.1-1-6.7-2.3-10.5-3.8c8.4,50.4,37.7,95,80.4,122.5l7.8,4.8
		c3.2,1.8,6.4,3.6,9.7,5.2c-2.8-42.9-16-81.1-41.2-113.6C669.2,545.2,694.4,538.6,713.6,532.6z"/>
	<g>
		<g>
			<path class="st20" d="M540,1051.1c-0.6-0.1-1.2-0.1-1.7-0.1h-4.8c-0.5,0-1.1,0-1.7,0.1l-4.2,0.6l-1.3-4.1
				c-0.4-1.3-0.9-2.9-1.6-4.7c-0.7-1.9-1.5-3.9-2.3-6l-2.6-6.5c-0.5-1.1-0.9-2.2-1.3-3.2c-0.8,0-1.7,0-2.5,0c-2,0-3.9,0-5.9,0
				c-1.8,0-3.6,0-5.4,0c-0.7,0-1.4,0-2.2,0c-1.4,3.5-2.7,6.9-3.9,10.2c-1.5,4.1-2.7,7.5-3.4,10.1l-1.2,4.1l-4.2-0.5
				c-0.8-0.1-1.7-0.1-2.7-0.1c-1,0-1.9,0-2.7,0.1l-8.9,1.1l3.8-8.1c4.8-10.4,9.6-20.9,14.2-31.3c4.6-10.3,9.3-21,13.9-31.6l1.3-3
				h8.3c0,0,4.3,10.3,6,14.4c1.7,4,3.4,8.1,5.1,12.3c1.7,4.1,3.5,8.2,5.2,12.3c1.7,4.1,3.4,7.9,4.9,11.3c1.5,3.5,2.9,6.6,4.1,9.4
				c1.2,2.6,2.1,4.6,2.8,6l4.7,8.8L540,1051.1z M508.4,1013.3c0.7,0,1.5,0,2.2,0c0.8,0,1.7,0,2.5,0l-2.4-5.4L508.4,1013.3z
				 M1044.9,1051.1c-0.6-0.1-1.2-0.1-1.7-0.1h-4.8c-0.5,0-1.1,0-1.7,0.1l-4.2,0.6l-1.3-4.1c-0.4-1.3-0.9-2.9-1.6-4.7
				c-0.7-1.9-1.5-3.9-2.3-6l-2.6-6.5c-0.5-1.1-0.9-2.2-1.3-3.2c-0.8,0-1.7,0-2.5,0c-2,0-3.9,0-5.9,0c-1.8,0-3.6,0-5.4,0
				c-0.7,0-1.4,0-2.2,0c-1.4,3.5-2.7,6.9-3.9,10.2c-1.5,4.1-2.7,7.5-3.4,10.1l-1.2,4.1l-4.2-0.5c-0.8-0.1-1.7-0.1-2.7-0.1
				c-1,0-1.9,0-2.7,0.1l-8.9,1.1l3.8-8.1c4.8-10.4,9.6-20.9,14.2-31.3c4.6-10.4,9.3-21,13.9-31.6l1.3-3h8.3c0,0,4.3,10.3,6,14.4
				c1.7,4,3.4,8.1,5.1,12.3c1.7,4.1,3.5,8.2,5.2,12.3c1.7,4.1,3.4,7.9,4.9,11.3c1.5,3.5,2.9,6.6,4.1,9.4c1.2,2.6,2.1,4.6,2.8,6
				l4.7,8.7L1044.9,1051.1z M1013.3,1013.3c0.7,0,1.5,0,2.2,0c0.8,0,1.7,0,2.5,0l-2.4-5.4L1013.3,1013.3z M271.7,1051.1
				c-0.6-0.1-1.2-0.1-1.7-0.1h-4.8c-0.5,0-1.1,0-1.7,0.1l-4.2,0.6l-1.3-4.1c-0.4-1.3-0.9-2.9-1.6-4.7c-0.7-1.9-1.5-3.9-2.3-6
				l-2.6-6.5c-0.5-1.1-0.9-2.2-1.3-3.2c-0.8,0-1.7,0-2.5,0c-2,0-3.9,0-5.9,0c-1.8,0-3.6,0-5.4,0c-0.7,0-1.4,0-2.2,0
				c-1.4,3.5-2.7,6.9-3.9,10.2c-1.5,4.1-2.7,7.5-3.4,10.1l-1.2,4.1l-4.2-0.5c-0.8-0.1-1.7-0.1-2.7-0.1c-1,0-1.9,0-2.7,0.1l-8.9,1.1
				l3.8-8.1c4.8-10.4,9.6-20.9,14.2-31.3c4.6-10.4,9.3-21,13.9-31.6l1.3-3h8.3c0,0,4.3,10.3,6,14.4c1.7,4,3.4,8.1,5.1,12.3
				c1.7,4.1,3.5,8.2,5.2,12.3c1.7,4.1,3.4,7.9,4.9,11.3c1.5,3.5,2.9,6.6,4.1,9.4c1.2,2.6,2.1,4.6,2.8,6l4.7,8.7L271.7,1051.1z
				 M240.1,1013.3c0.7,0,1.5,0,2.2,0c0.8,0,1.7,0,2.5,0l-2.4-5.4L240.1,1013.3z M401.1,1052.3l-1.5-1.7
				c-6.8-7.9-14.2-16.1-21.9-24.4c-5-5.4-10-10.7-15-16c0,1.8,0,3.7,0,5.9c0,1.2,0,2.8,0,4.6l0.1,5.9c0,2,0.1,4.1,0.1,6.1
				c0.1,2.1,0.1,4,0.2,5.8c0.1,1.8,0.1,3.3,0.2,4.7c0.1,1.7,0.1,2.2,0.1,2.3l0.8,6.4l-6.4-0.8c-0.7-0.1-1.6-0.1-2.5-0.1
				c-1,0-1.9,0-2.7,0.1l-6.8,0.8l1.3-6.8c0-0.2,0.1-0.8,0.3-2.8c0.1-1.5,0.3-3.4,0.4-5.6c0.1-2.3,0.3-4.7,0.4-7.4
				c0.1-2.6,0.3-5.3,0.4-7.8c0.1-2.6,0.2-5.2,0.2-7.7c0.1-2.6,0.1-4.7,0.1-6.6c0-5.7,0-10.7,0-14.8c0-4.1-0.1-7.1-0.2-9l-0.3-5.3
				h8.9l1.5,1.6c3.7,4,7.6,8.2,11.8,12.7c4.2,4.5,8.3,9,12.4,13.4c4.1,4.4,8,8.6,11.7,12.5c0.3,0.4,0.7,0.7,1,1.1
				c0-6.2,0-12.3-0.1-18.2c-0.1-5.9-0.3-11.5-0.6-16.7l-0.4-6.8l6.6,1.7c1,0.3,1.6,0.3,1.8,0.3c0,0,0.5,0,1.7-0.3l6.8-1.7l-0.6,7
				c-0.1,1.2-0.2,3.2-0.4,5.8c-0.2,2.6-0.3,5.4-0.4,8.4c-0.2,3-0.3,5.9-0.4,8.8c-0.1,2.8-0.2,5-0.2,6.7v5.4c0,2,0,4.1,0,6.3l0.1,6.7
				c0,2.2,0.1,4.3,0.1,6.3c0,2,0,3.7,0,5.2v8H401.1z M138.8,1051.1c-0.4-0.1-0.9-0.1-1.3-0.1h-4.2c-0.4,0-0.8,0-1.3,0.1l-5.4,0.9
				l-0.4-5.4c-0.7-8-1.3-15.7-2-23.2c-0.2-2.4-0.4-4.8-0.7-7.3c-1.6,3-3.2,5.9-4.7,8.8c-3.9,7.3-7.7,15.1-11.2,23.1l-1.3,3h-7.2
				l-1.4-2.9c-3.5-7.4-7.3-15-11.2-22.6c-1.5-2.9-3-5.8-4.5-8.7c-0.3,2.9-0.6,5.8-0.9,8.6c-0.4,4.1-0.8,8.1-1.1,11.9
				c-0.3,3.6-0.4,6.6-0.4,8.8v5.7l-5.6-0.7c-0.7-0.1-1.6-0.1-2.5-0.1s-1.8,0-2.5,0.1l-6.6,0.8l1.1-6.6c0.8-4.9,1.6-10,2.4-15.4
				c0.8-5.3,1.6-10.8,2.4-16.2c0.8-5.4,1.5-10.8,2.1-16.1c0.6-5.2,1.2-10.3,1.7-15l0.5-4.5h9.2l1.4,2.8c4.1,8.4,8.3,16.8,12.5,24.7
				c2.8,5.4,5.8,10.9,8.8,16.5c0.7-1.3,1.4-2.6,2.2-4.1c1.5-2.7,3.1-5.7,4.8-8.9c1.7-3.2,3.5-6.5,5.2-9.8c1.8-3.3,3.5-6.6,5.3-9.8
				c1.7-3.2,3.4-6.1,4.9-8.9l1.4-2.6h8.6l0.5,4.4c0.7,5.8,1.3,11.4,1.8,16.7c0.6,5.3,1.2,10.6,1.8,15.8c0.6,5.2,1.2,10.3,1.8,15.4
				c0.6,5,1.2,10,2,14.9l1,6.8L138.8,1051.1z M629.2,1048c-1.4-3.5-3.1-7.8-5-12.8c-2-4.9-4.1-10.2-6.3-15.7
				c-2.2-5.5-4.6-11.2-6.9-16.9c-2.4-5.7-4.6-11.2-6.8-16.4l-3.4-8.1l8.7,1.3c0.8,0.1,1.6,0.2,2.3,0.3c0.6,0.1,1.2,0.1,1.7,0.1
				c0.5,0,1.1,0,1.7-0.1c0.7-0.1,1.5-0.2,2.3-0.3l4.1-0.6l1.3,4c1.3,3.9,2.7,8,4.3,12.3c1.6,4.3,3.3,8.7,5,13.2
				c1.8,4.5,3.6,9,5.4,13.6c0.4,0.9,0.7,1.8,1.1,2.7c0.9-2.1,1.7-4.3,2.6-6.6c1.3-3.2,2.6-6.6,3.8-9.9c1.3-3.4,2.5-6.7,3.7-9.8
				c1.1-3,2.2-5.9,3.2-8.7c0.9-2.6,1.7-5,2.4-6.9l1.4-4.3l4.4,1c1.2,0.3,1.9,0.3,2.2,0.3s1,0,2.2-0.3l9.8-2.2l-4.1,9.1
				c-4.7,10.4-9.2,20.8-13.5,30.9c-4.3,10.1-8.4,20.5-12.4,30.6l-1.4,3.6l-3.9-0.5c-0.7-0.1-1.5-0.1-2.3-0.1c-1.2,0-1.8,0.1-2.2,0.1
				l-4,0.6L629.2,1048z M777.6,1051.1c-2.6-0.1-5.2-0.2-7.8-0.2h-16.3c-2.6,0-5.3,0.1-8,0.2l-5.5,0.2l0.3-5.5
				c0.2-3.8,0.3-7.6,0.5-11.4c0.1-3.8,0.2-7.6,0.2-11.5v-15.5c0-3.8-0.1-7.7-0.2-11.5c-0.2-3.8-0.3-7.7-0.5-11.5l-0.3-5.5l5.5,0.2
				c2.7,0.1,5.3,0.2,8,0.3c2.6,0.1,5.3,0.1,7.9,0.1c2.6,0,5.3,0,7.8-0.1c2.6-0.1,5.3-0.2,8-0.3l6.4-0.3l-1.2,6.3
				c-0.1,0.6-0.2,1.2-0.2,1.7s0.1,1.1,0.2,1.7l1.3,6.4l-6.5-0.4c-1.9-0.1-3.7-0.2-5.3-0.4c-1.6-0.1-3.2-0.2-5-0.4
				c-1.7-0.1-3.6-0.2-5.7-0.3c-0.8,0-1.6-0.1-2.5-0.1c0,0.2,0,0.5,0,0.7c-0.1,1.6-0.1,3.6-0.1,5.7c0,2.3,0,4.6,0,6.8c0,0,0,0,0,0.1
				c0.7,0,1.4,0,2,0c2-0.1,3.9-0.1,5.6-0.2c1.7-0.1,3.3-0.2,4.8-0.3c1.4-0.1,2.8-0.2,4-0.3l6.7-0.6l-1.3,6.6
				c-0.1,0.6-0.2,1.2-0.2,1.8c0,0.6,0.1,1.1,0.2,1.7l1.3,6.7l-6.8-0.8c-1.4-0.2-3.2-0.3-5.2-0.4c-2-0.1-4-0.2-6-0.2
				c-1.8,0-3.6-0.1-5.2-0.1v8c0,3.4,0,6.2,0,8.4c0,0,0,0.1,0,0.1h1.4c2.2,0,4.4,0,6.5-0.1c2.1-0.1,4.1-0.2,6-0.3
				c1.7-0.1,3.2-0.3,4.4-0.6l8.1-1.7l-2.3,8c0,0,0,0.1,0,0.3c0,0.4,0,0.8,0,1.1c0,0.7,0.1,0.9,0.1,0.9l2,6.7L777.6,1051.1z
				 M855.2,1045.9c0.2-3.7,0.3-7.5,0.5-11.3c0.1-3.8,0.2-7.7,0.2-11.5v-15.5c0-3.9-0.1-7.7-0.2-11.5c-0.2-3.8-0.3-7.7-0.5-11.6
				L855,979l5.5,0.3c2.3,0.1,4.5,0.2,6.7,0.3c2.2,0.1,4.4,0.1,6.6,0.1c2.2,0,4.3-0.1,6.5-0.2c2.4-0.2,4.8-0.2,7.1-0.2
				c5.8,0,11,0.8,15.3,2.4c4.5,1.6,8.2,4.1,11.1,7.2c2.9,3.1,5.1,6.9,6.4,11.3c1.2,4.1,1.9,8.8,1.9,13.9c0,6.8-1.2,12.6-3.6,17.4
				c-2.4,4.7-5.5,8.7-9.3,11.6c-3.7,2.9-7.9,5-12.4,6.2c-4.3,1.2-8.5,1.7-12.4,1.7c-2.1,0-4.1,0-6.2-0.1c-1.9-0.1-3.9-0.1-5.9-0.1
				h-6c-1.9,0-3.8,0.1-5.7,0.2l-5.6,0.3L855.2,1045.9z M874.3,1037.9c2,0.1,4.2,0.2,6.3,0.2c2.9,0,5.8-0.3,8.8-1
				c2.6-0.6,4.8-1.7,6.8-3.4c2-1.6,3.7-4,5-7c1.4-3.1,2.1-7.3,2.1-12.5c0-4.6-0.5-8.3-1.6-11.1c-1-2.6-2.3-4.6-3.9-6
				c-1.6-1.4-3.6-2.4-6-3c-2.7-0.7-5.8-1-9.1-1c-2.6,0-5,0.1-7.2,0.3c-0.7,0.1-1.3,0.1-1.9,0.2c-0.1,1.5-0.1,3.1-0.2,4.7
				c-0.1,3.1-0.1,6.3-0.1,9.4v15.5c0,5,0.1,9.9,0.3,14.7C873.9,1037.8,874.1,1037.8,874.3,1037.9z"/>
		</g>
		<path class="st40" d="M265.3,1030.4c-1.5-3.5-3.2-7.3-4.9-11.4c-1.7-4.1-3.5-8.2-5.2-12.3c-1.7-4.1-3.5-8.2-5.1-12.3
			c-1.7-4-3.2-7.8-4.7-11.3h-1.7c-4.7,10.7-9.3,21.3-14,31.7c-4.6,10.4-9.4,20.8-14.2,31.3c1-0.1,2.1-0.2,3.3-0.2
			c1.2,0,2.3,0.1,3.3,0.2c0.8-2.8,1.9-6.3,3.5-10.5c1.6-4.2,3.3-8.7,5.2-13.4c1.9-0.1,3.7-0.1,5.5-0.1c1.8,0,3.6,0,5.5,0
			c2,0,4,0,5.9,0c2,0,3.9,0.1,5.8,0.1c0.8,2,1.6,4.1,2.5,6.3c0.9,2.2,1.8,4.4,2.7,6.5c0.9,2.1,1.7,4.2,2.4,6.1c0.7,2,1.3,3.6,1.7,5
			c0.8-0.1,1.6-0.2,2.4-0.2h4.8c0.7,0,1.5,0.1,2.4,0.2c-0.8-1.4-1.8-3.5-3-6.3C268.2,1037.1,266.8,1033.9,265.3,1030.4z
			 M247.3,1018.3c-1.7,0-3.4,0-5,0c-1.6,0-3.2,0-4.9-0.1c-1.7-0.1-3.3-0.1-4.9-0.1l9.8-22.9l10,22.9
			C250.7,1018.2,249,1018.2,247.3,1018.3z M910.2,992.3c-2.4-2.5-5.5-4.5-9.2-5.9c-3.8-1.4-8.3-2.1-13.5-2.1c-2.3,0-4.5,0.1-6.8,0.2
			c-2.2,0.2-4.5,0.2-6.8,0.2c-2.3,0-4.5,0-6.8-0.1s-4.5-0.2-6.8-0.3c0.2,4,0.3,7.8,0.5,11.7c0.1,3.8,0.2,7.7,0.2,11.7v15.5
			c0,4-0.1,7.9-0.2,11.7c-0.2,3.8-0.3,7.6-0.5,11.3c2-0.1,4-0.2,6-0.2h6c2,0,4,0,6,0.1c2,0.1,4,0.1,6,0.1c3.5,0,7.2-0.5,11.1-1.6
			c3.9-1,7.4-2.8,10.6-5.4c3.2-2.5,5.8-5.8,7.9-9.9c2.1-4.1,3.1-9.2,3.1-15.2c0-4.6-0.6-8.8-1.7-12.5
			C914.3,997.9,912.6,994.8,910.2,992.3z M905.8,1028.6c-1.7,3.8-3.8,6.7-6.4,8.9s-5.6,3.6-8.9,4.4c-3.3,0.8-6.6,1.2-9.9,1.2
			c-2.3,0-4.5-0.1-6.7-0.2c-2.2-0.1-3.9-0.4-5.1-0.7c-0.4-6.2-0.5-12.6-0.5-19.1v-15.5c0-3.2,0-6.4,0.1-9.6s0.2-6.2,0.4-9
			c1.9-0.2,4-0.5,6.3-0.6c2.3-0.2,4.9-0.3,7.6-0.3c3.7,0,7.1,0.4,10.3,1.1c3.1,0.8,5.8,2.1,8.1,4.1c2.2,2,4,4.6,5.3,8
			c1.3,3.4,1.9,7.7,1.9,12.9C908.3,1020,907.4,1024.9,905.8,1028.6z M135.9,1015.7c-0.6-5.2-1.2-10.5-1.8-15.8
			c-0.6-5.4-1.2-10.9-1.8-16.7h-1.2c-1.5,2.8-3.1,5.7-4.9,8.9c-1.7,3.2-3.5,6.4-5.3,9.7c-1.8,3.3-3.5,6.6-5.2,9.8
			c-1.7,3.2-3.3,6.2-4.8,9c-1.5,2.8-2.8,5.2-4,7.3c-1.1,2.1-2,3.8-2.6,4.9c-4.6-8.5-9-16.7-13.3-24.8c-4.2-8-8.4-16.3-12.6-24.8H77
			c-0.5,4.8-1,9.9-1.7,15.2s-1.4,10.7-2.2,16.2c-0.8,5.5-1.6,10.9-2.4,16.3c-0.8,5.4-1.7,10.5-2.4,15.4c1-0.1,2-0.2,3.1-0.2
			s2.2,0.1,3.2,0.2c0-2.4,0.1-5.5,0.5-9.2c0.3-3.7,0.7-7.7,1.1-12c0.4-4.2,0.9-8.5,1.4-12.9c0.5-4.3,1-8.4,1.4-12.1h0.2
			c4,7.9,7.9,15.7,11.8,23.3c3.9,7.6,7.7,15.2,11.3,22.7h0.8c3.6-8.2,7.4-16,11.4-23.4c4-7.5,8.1-15,12.2-22.5h0.2
			c1,7.8,1.8,15.5,2.4,23c0.7,7.5,1.3,15.2,2,23.2c0.7-0.1,1.4-0.2,2.1-0.2h4.2c0.7,0,1.4,0.1,2.1,0.2c-0.7-5-1.4-10-2-15.1
			C137.1,1026,136.5,1020.9,135.9,1015.7z M777.9,1041c-1.4,0.3-3.1,0.5-5.1,0.7c-2,0.2-4,0.3-6.2,0.4c-2.2,0.1-4.4,0.1-6.7,0.1
			h-6.3c-0.1-1.1-0.1-2.8-0.1-5c0-2.2,0-5,0-8.5v-8.9c0-1,0-1.8,0-2.4c0-0.6,0-1.2,0-1.8c1.1,0,2.5,0,4.4,0c1.8,0,3.8,0.1,5.9,0.1
			c2.1,0,4.1,0.1,6.2,0.2c2.1,0.1,3.9,0.3,5.4,0.5c-0.2-0.9-0.3-1.8-0.3-2.7c0-1,0.1-1.9,0.3-2.8c-1.3,0.1-2.7,0.2-4.2,0.3
			c-1.5,0.1-3.1,0.2-4.8,0.3c-1.7,0.1-3.7,0.2-5.8,0.2c-2.1,0.1-4.5,0.1-7.1,0.1c0-1.1,0-2.8,0-5c0-2.2,0-4.5,0-6.8
			c0-2.2,0-4.2,0.1-5.9c0.1-1.7,0.2-3.6,0.2-5.5c2.9,0,5.5,0,7.6,0.1c2.1,0.1,4,0.2,5.8,0.3c1.8,0.1,3.4,0.2,5,0.4
			c1.6,0.1,3.3,0.2,5.3,0.4c-0.2-0.9-0.3-1.8-0.3-2.7c0-0.9,0.1-1.8,0.3-2.7c-2.7,0.1-5.4,0.2-8,0.3c-2.6,0.1-5.3,0.1-8,0.1
			c-2.7,0-5.4,0-8.1-0.1c-2.7-0.1-5.4-0.2-8.1-0.3c0.2,3.8,0.3,7.7,0.5,11.5c0.1,3.8,0.2,7.7,0.2,11.7v15.5c0,4-0.1,7.8-0.2,11.7
			c-0.2,3.8-0.3,7.6-0.5,11.5c2.8-0.1,5.5-0.2,8.2-0.2h16.3c2.7,0,5.4,0.1,8.1,0.2c-0.2-0.6-0.3-1.4-0.3-2.3c0-0.4,0-0.9,0-1.4
			C777.7,1041.9,777.7,1041.4,777.9,1041z M399.9,984.3c0.3,5.3,0.5,10.9,0.6,16.9c0.1,6,0.1,12.1,0.1,18.4v12.2
			c-2.8-2.8-6-6.1-9.7-10c-3.7-3.9-7.6-8.1-11.7-12.5c-4.1-4.4-8.2-8.9-12.4-13.4c-4.2-4.5-8.1-8.8-11.7-12.7h-1.4
			c0.1,2,0.2,5.1,0.2,9.3c0,4.1,0,9.1,0,14.9c0,2,0,4.2-0.1,6.8c-0.1,2.5-0.1,5.1-0.2,7.7c-0.1,2.6-0.2,5.3-0.4,7.9
			c-0.2,2.6-0.3,5.1-0.4,7.3c-0.1,2.2-0.3,4.2-0.4,5.8c-0.2,1.6-0.3,2.7-0.4,3.3c1-0.1,2.1-0.2,3.3-0.2c1.1,0,2.2,0.1,3.1,0.2
			c-0.1-0.5-0.1-1.4-0.2-2.7c-0.1-1.3-0.1-2.9-0.2-4.7c-0.1-1.8-0.1-3.7-0.2-5.9c-0.1-2.1-0.1-4.2-0.1-6.2c0-2-0.1-4-0.1-5.9
			c0-1.9,0-3.4,0-4.7c0-4.9,0-8.7,0.1-11.5c0.1-2.8,0.1-5.1,0.2-6.8c7.8,8.3,15.6,16.6,23.4,25c7.8,8.4,15.2,16.5,22.1,24.5h1.3v-3
			c0-1.4,0-3.1,0-5.1c0-1.9-0.1-4-0.1-6.3c0-2.2-0.1-4.5-0.1-6.7c0-2.2,0-4.3,0-6.4v-5.4c0-1.7,0.1-4.1,0.2-6.9
			c0.1-2.9,0.3-5.8,0.4-8.8c0.1-3,0.3-5.8,0.4-8.5c0.1-2.6,0.3-4.6,0.4-5.9c-1.2,0.3-2.2,0.4-2.9,0.4
			C402.1,984.8,401.1,984.6,399.9,984.3z M659.1,984.3c-0.7,2-1.5,4.3-2.4,7c-1,2.7-2,5.6-3.2,8.7c-1.2,3.1-2.4,6.4-3.6,9.8
			c-1.3,3.4-2.5,6.7-3.8,10c-1.3,3.3-2.6,6.4-3.8,9.5c-1.3,3-2.4,5.8-3.5,8.2c-1.9-4.6-3.8-9.1-5.7-13.8c-1.9-4.6-3.7-9.2-5.4-13.7
			c-1.8-4.5-3.5-8.9-5-13.3c-1.6-4.3-3-8.5-4.4-12.5c-0.8,0.1-1.7,0.2-2.4,0.3c-0.8,0.1-1.5,0.1-2.2,0.1s-1.5,0-2.2-0.1
			c-0.8-0.1-1.6-0.2-2.4-0.3c2.2,5.2,4.4,10.6,6.8,16.4c2.4,5.8,4.7,11.4,6.9,16.9c2.2,5.5,4.4,10.8,6.3,15.8c2,5,3.7,9.2,5,12.8
			c0.8-0.1,1.8-0.2,3-0.2c1,0,2,0.1,3,0.2c4-10.3,8.1-20.5,12.4-30.8c4.3-10.3,8.8-20.6,13.5-31.1c-1.3,0.3-2.4,0.4-3.3,0.4
			S660.4,984.6,659.1,984.3z M1042.6,1039.8c-1.2-2.8-2.6-5.9-4.1-9.4s-3.2-7.3-4.9-11.4c-1.7-4.1-3.5-8.2-5.2-12.3
			c-1.7-4.1-3.5-8.2-5.1-12.3c-1.7-4-3.2-7.8-4.7-11.3h-1.7c-4.7,10.7-9.3,21.3-14,31.7c-4.6,10.4-9.4,20.8-14.2,31.3
			c1-0.1,2.1-0.2,3.3-0.2c1.2,0,2.3,0.1,3.3,0.2c0.8-2.8,1.9-6.3,3.5-10.5c1.6-4.2,3.3-8.7,5.2-13.4c1.9-0.1,3.7-0.1,5.5-0.1
			c1.8,0,3.6,0,5.5,0c2,0,4,0,5.9,0c2,0,3.9,0.1,5.8,0.1c0.8,2,1.6,4.1,2.5,6.3c0.9,2.2,1.8,4.4,2.7,6.5c0.9,2.1,1.7,4.2,2.4,6.1
			c0.7,2,1.3,3.6,1.7,5c0.8-0.1,1.6-0.2,2.4-0.2h4.8c0.7,0,1.5,0.1,2.4,0.2C1044.8,1044.7,1043.8,1042.6,1042.6,1039.8z
			 M1020.5,1018.3c-1.7,0-3.4,0-5,0c-1.6,0-3.2,0-4.9-0.1c-1.7-0.1-3.3-0.1-4.9-0.1l9.8-22.9l10,22.9
			C1023.9,1018.2,1022.2,1018.2,1020.5,1018.3z M533.6,1030.4c-1.5-3.5-3.2-7.3-4.9-11.4c-1.7-4.1-3.5-8.2-5.2-12.3
			c-1.7-4.1-3.5-8.2-5.1-12.3c-1.7-4-3.2-7.8-4.7-11.3h-1.7c-4.7,10.7-9.3,21.3-14,31.7c-4.6,10.4-9.4,20.8-14.2,31.3
			c1-0.1,2.1-0.2,3.3-0.2c1.2,0,2.3,0.1,3.3,0.2c0.8-2.8,1.9-6.3,3.5-10.5c1.6-4.2,3.3-8.7,5.2-13.4c1.9-0.1,3.7-0.1,5.5-0.1
			c1.8,0,3.6,0,5.5,0c2,0,4,0,5.9,0c2,0,3.9,0.1,5.8,0.1c0.8,2,1.6,4.1,2.5,6.3c0.9,2.2,1.8,4.4,2.7,6.5c0.9,2.1,1.7,4.2,2.4,6.1
			c0.7,2,1.3,3.6,1.7,5c0.8-0.1,1.6-0.2,2.4-0.2h4.8c0.7,0,1.5,0.1,2.4,0.2c-0.8-1.4-1.8-3.5-3-6.3
			C536.5,1037.1,535.1,1033.9,533.6,1030.4z M515.6,1018.3c-1.7,0-3.4,0-5,0c-1.6,0-3.2,0-4.9-0.1c-1.7-0.1-3.3-0.1-4.9-0.1
			l9.8-22.9l10,22.9C519,1018.2,517.3,1018.2,515.6,1018.3z"/>
	</g>
</g>
<g id="Layer_21">
</g>
<g id="Layer_22">
</g>
<g id="Layer_23">
</g>
<g id="Layer_24">
	<defs>
		<rect id="SVGID_33_" x="-14442.8" y="1131" width="1111" height="1111"/>
	</defs>
	<clipPath id="SVGID_20_">
		<use xlink:href="#SVGID_33_"  style="overflow:visible;"/>
	</clipPath>
</g>
<g id="Layer_25">
</g>
<g id="Layer_26">
	<defs>
		<path id="SVGID_35_" d="M-212.6,320.4c-20.3-48.1-49.5-91.3-86.6-128.4c-37.1-37.1-80.3-66.2-128.4-86.6
			c-49.8-21.1-102.7-31.8-157.3-31.8s-107.4,10.7-157.3,31.8c-48.1,20.3-91.3,49.5-128.4,86.6c-37.1,37.1-66.2,80.3-86.6,128.4
			c-21.1,49.8-31.8,102.7-31.8,157.3s10.7,107.4,31.8,157.3c20.3,48.1,49.5,91.3,86.6,128.4c37.1,37.1,80.3,66.2,128.4,86.6
			c49.8,21.1,102.7,31.8,157.3,31.8s107.4-10.7,157.3-31.8c48.1-20.3,91.3-49.5,128.4-86.6c37.1-37.1,66.2-80.3,86.6-128.4
			c21.1-49.8,31.8-102.7,31.8-157.3S-191.5,370.2-212.6,320.4z M-280.5,643.7c-2.2-69.9-39.8-131-95.4-166.1
			c55.3-34.8,92.7-95.5,95.4-164.8c54.7,34.8,91.1,96,91.1,165.5C-189.5,547.8-225.8,608.9-280.5,643.7z M-484.4,846.4
			c-33.2,0-64.6-8.3-92-23c55.4-34.7,93-95.3,95.8-164.6c28.4,15,60.8,23.6,95.1,23.6c35.1,0,68.1-8.9,97-24.6
			C-292.4,762.4-378.8,846.4-484.4,846.4z M-880.2,657.9c28.5,15.1,61,23.7,95.4,23.7c34.9,0,67.8-8.8,96.6-24.3
			c2.3,70,40.1,131.2,95.9,166.1c-27.5,14.7-58.8,23-92,23C-789.9,846.4-876.3,762.5-880.2,657.9z M-980.8,477.6
			c0-70.1,37-131.8,92.5-166.4c2.1,70.1,39.7,131.3,95.4,166.4c-55.7,35.1-93.3,96.3-95.4,166.4
			C-943.8,609.4-980.8,547.8-980.8,477.6z M-684.4,109c33.2,0,64.6,8.3,92,23c-55.8,34.9-93.5,96.1-95.9,166
			c-28.8-15.5-61.7-24.3-96.6-24.3c-34.4,0-66.9,8.6-95.4,23.7C-876.2,192.8-789.9,109-684.4,109z M-288.5,298.9
			c-28.9-15.7-61.9-24.6-97-24.6c-34.3,0-66.6,8.5-95,23.5c-2.4-69.9-40.2-131-95.9-165.9c27.5-14.7,58.8-23,92-23
			C-378.4,109-291.7,193.6-288.5,298.9z M-777,477.7c27.6-14.9,59.1-23.3,92.6-23.3c31.4,0,61,7.4,87.3,20.6
			c1.4,0.9,2.8,1.8,4.2,2.7c-1.4,0.9-2.8,1.8-4.2,2.7c0,0-15.1,10.2-23.7,18.4c-41,36.9-67,90.2-67.6,149.4
			c-28.5,16.2-61.4,25.4-96.5,25.4c-34.7,0-67.3-9.1-95.5-24.9c0.6-70.6,38.7-132.4,95.2-166.4L-777,477.7z M-680.2,643.3
			c2.3-65,36.4-122,87.2-156c1.2-0.6,2.5-1.3,3.7-1.9c0,1.3,0.1,2.6,0.2,3.9c0,0,0.9,17.8,4,30.5c11.9,57.2,47.9,105.8,96.8,134.5
			c-1.4,69.9-39.6,131-95.9,164.5c-56.8-33.8-95.1-95.5-96-166.1L-680.2,643.3z M-488.5,645c-52.8-32.8-89-89.9-92.7-155.6
			c0.1-1.6,0.2-3.2,0.2-4.8c1.7,0.9,3.5,1.8,5.3,2.7c0,0,9,5.4,27.7,11.4c20,6.6,41.4,10.2,63.6,10.2c36.6,0,71-9.7,100.7-26.7
			c56.5,34,94.6,95.7,95.2,166.2c-28.6,16.4-61.8,25.8-97.1,25.8c-34.4,0-66.8-8.9-94.9-24.6L-488.5,645z M-391.8,477.7
			c-27.6,14.9-59.1,23.3-92.6,23.3c-31.4,0-61-7.4-87.3-20.6c-1.4-0.9-2.8-1.8-4.2-2.7c1.4-0.9,2.8-1.8,4.2-2.7
			c0,0,20-14.3,23.7-18.4c41.1-37,67.1-90.3,67.6-149.7c28.1-15.6,60.5-24.6,94.9-24.6c35.3,0,68.4,9.4,97.1,25.8
			c-1.1,70-39,131.2-95.2,165L-391.8,477.7z M-585.1,436.1c-11.8-56.7-47.1-104.8-95.3-133.6c0.9-70.5,39.2-132.2,96-166
			c56.7,33.8,95,95.3,96,165.8l-0.1,9.4c-2.2,65.2-36.3,122.3-87.2,156.4c-1.8,0.9-3.5,1.8-5.3,2.7c0-1.4-0.1-2.8-0.2-4.2
			C-581.1,466.5-581.9,449.3-585.1,436.1z M-620.8,456.5c-20-6.6-41.4-10.2-63.6-10.2c-36.6,0-71,9.7-100.7,26.7
			c-56.6-34.1-94.7-95.9-95.2-166.5c28.3-15.9,60.9-24.9,95.5-24.9c35,0,68,9.3,96.5,25.4l8.1,4.9c52,32.9,87.5,89.6,91.1,154.6
			c-0.1,1.1-0.1,2.3-0.2,3.4c-1.2-0.7-2.5-1.3-3.8-1.9C-593.1,468-605.2,461.7-620.8,456.5z M-219.9,323.5
			c10.9,25.8,19,52.5,24.2,79.9c-16.6-41.8-46.6-76.9-84.6-99.8c-0.3-46-16-88.5-42.1-122.5c6,5.3,11.9,10.9,17.7,16.6
			C-268.4,234-239.9,276.3-219.9,323.5z M-456.5,102.9c-9.1-1.3-18.4-1.9-27.9-1.9c-36.3,0-70.4,9.5-100,26.2
			c-29.6-16.7-63.7-26.2-100-26.2c-10,0-19.8,0.7-29.4,2.1c41.3-14.3,84.6-21.5,128.9-21.5C-540.7,81.6-497.6,88.8-456.5,102.9z
			 M-949.7,323.5c19.9-47.2,48.5-89.5,84.9-125.9c6.6-6.6,13.5-13,20.5-19.1c-27,34-43.3,76.9-44,123.4
			c-37.7,22.3-67.6,56.3-84.7,97C-967.8,373.2-960.1,347.9-949.7,323.5z M-949.7,631.8c-10.3-24.5-18.1-49.7-23.3-75.5
			c17.1,40.7,47,74.8,84.7,97c0.7,46.4,16.9,89.2,43.8,123.2c-6.9-6-13.7-12.3-20.2-18.9C-901.2,721.3-929.8,678.9-949.7,631.8z
			 M-713.3,852.3c9.5,1.3,19.1,2.1,28.9,2.1c36.3,0,70.4-9.5,100-26.2c29.6,16.7,63.7,26.2,100,26.2c9.3,0,18.5-0.6,27.5-1.9
			c-41,14-83.9,21.1-127.9,21.1C-629,873.6-672.1,866.5-713.3,852.3z M-219.9,631.8c-19.9,47.2-48.5,89.5-84.9,125.9
			c-5.7,5.7-11.5,11.1-17.5,16.4c25.7-33.7,41.3-75.5,41.8-121c37.7-22.8,67.5-57.4,84.2-98.6C-201.5,580.9-209.4,606.7-219.9,631.8
			z"/>
	</defs>
	<clipPath id="SVGID_21_">
		<use xlink:href="#SVGID_35_"  style="overflow:visible;"/>
	</clipPath>
</g>
</svg>
