<?xml version="1.0" encoding="utf-8"?>
<!-- Generator: Adobe Illustrator 22.1.0, SVG Export Plug-In . SVG Version: 6.00 Build 0)  -->
<svg version="1.1" xmlns="http://www.w3.org/2000/svg" xmlns:xlink="http://www.w3.org/1999/xlink" x="0px" y="0px"
	 viewBox="0 0 1111 1111" style="enable-background:new 0 0 1111 1111;" xml:space="preserve">
<style type="text/css">
	.st0{display:none;}
	.st1{display:inline;}
	.st2{fill:url(#SVGID_1_);}
	.st3{fill:url(#SVGID_2_);}
	.st4{fill:url(#SVGID_3_);}
	.st5{fill:url(#SVGID_4_);}
	.st6{fill:url(#SVGID_5_);}
	.st7{fill:url(#SVGID_6_);}
	.st8{display:inline;fill:none;}
	.st9{display:inline;fill:none;stroke:#FFFFFF;stroke-width:2.126;stroke-miterlimit:10;}
	.st10{fill:url(#SVGID_7_);}
	.st11{fill:url(#SVGID_8_);}
	.st12{fill:url(#SVGID_9_);}
	.st13{fill:url(#SVGID_10_);}
	.st14{fill:url(#SVGID_11_);}
	.st15{fill:url(#SVGID_12_);}
	.st16{fill:#958757;}
	.st17{opacity:0.48;}
	.st18{fill:none;}
	.st19{fill:#09D1AA;}
	.st20{fill:#2B2B2B;}
	.st21{fill:url(#SVGID_13_);}
	.st22{fill:url(#SVGID_14_);}
	.st23{fill:url(#SVGID_15_);}
	.st24{fill:url(#SVGID_16_);}
	.st25{fill:url(#SVGID_17_);}
	.st26{fill:url(#SVGID_18_);}
	.st27{fill:url(#SVGID_19_);}
	.st28{fill:url(#SVGID_20_);}
	.st29{fill:url(#SVGID_21_);}
	.st30{fill:url(#SVGID_22_);}
	.st31{fill:url(#SVGID_23_);}
	.st32{fill:url(#SVGID_24_);}
	.st33{fill:url(#SVGID_25_);}
	.st34{fill:url(#SVGID_26_);}
	.st35{fill:url(#SVGID_27_);}
	.st36{fill:url(#SVGID_28_);}
	.st37{fill:url(#SVGID_29_);}
	.st38{fill:url(#SVGID_30_);}
	.st39{fill:url(#SVGID_31_);}
	.st40{fill:#FFFFFF;}
	.st41{fill:url(#SVGID_32_);}
	.st42{clip-path:url(#SVGID_34_);}
	.st43{opacity:0.48;clip-path:url(#SVGID_36_);}
	.st44{fill:url(#SVGID_37_);}
	.st45{fill:url(#SVGID_38_);}
	.st46{fill:url(#SVGID_39_);}
	.st47{fill:url(#SVGID_40_);}
	.st48{fill:url(#SVGID_41_);}
	.st49{fill:url(#SVGID_42_);}
	.st50{fill:url(#SVGID_43_);}
	.st51{fill:url(#SVGID_44_);}
	.st52{fill:url(#SVGID_45_);}
	.st53{fill:url(#SVGID_46_);}
	.st54{fill:url(#SVGID_47_);}
	.st55{fill:url(#SVGID_48_);}
	.st56{fill:url(#SVGID_49_);}
	.st57{fill:url(#SVGID_50_);}
	.st58{fill:url(#SVGID_51_);}
	.st59{fill:url(#SVGID_52_);}
	.st60{fill:url(#SVGID_53_);}
	.st61{fill:url(#SVGID_54_);}
</style>
<g id="Layer_13">
</g>
<g id="mandala">
	<g id="ROUND_BG">
	</g>
	<g id="OG" class="st0">
	</g>
	<g id="Layer_6_copy">
	</g>
	<g id="gradient">
	</g>
	<g id="GREEN" class="st0">
	</g>
	<g id="Layer_8" class="st0">
	</g>
	<g id="Layer_9">
	</g>
</g>
<g id="mandala_copy">
	<g id="ROUND_BG_copy">
	</g>
	<g id="OG_copy" class="st0">
	</g>
	<g id="Layer_6_copy_2">
	</g>
	<g id="gradient_copy">
	</g>
	<g id="GREEN_copy" class="st0">
	</g>
	<g id="Layer_8_copy" class="st0">
	</g>
	<g id="Layer_9_copy">
	</g>
</g>
<g id="Layer_7">
</g>
<g id="Layer_20">
</g>
<g id="Layer_19">
</g>
<g id="Layer_21">
</g>
<g id="Layer_22">
	<rect class="st20" width="1111" height="1111"/>
	<g>
		<path class="st16" d="M918.4,398.2c-20.3-48.1-49.5-91.3-86.6-128.4c-37.1-37.1-80.3-66.2-128.4-86.6
			c-49.8-21.1-102.7-31.8-157.3-31.8s-107.4,10.7-157.3,31.8c-48.1,20.3-91.3,49.5-128.4,86.6c-37.1,37.1-66.2,80.3-86.6,128.4
			c-21.1,49.8-31.8,102.7-31.8,157.3s10.7,107.4,31.8,157.3c20.3,48.1,49.5,91.3,86.6,128.4c37.1,37.1,80.3,66.2,128.4,86.6
			c49.8,21.1,102.7,31.8,157.3,31.8s107.4-10.7,157.3-31.8c48.1-20.3,91.3-49.5,128.4-86.6c37.1-37.1,66.2-80.3,86.6-128.4
			c21.1-49.8,31.8-102.7,31.8-157.3S939.5,448.1,918.4,398.2z M850.5,721.6c-2.2-69.9-39.8-131-95.4-166.1
			c55.3-34.8,92.7-95.5,95.4-164.8c54.7,34.8,91.1,96,91.1,165.5C941.5,625.6,905.2,686.8,850.5,721.6z M646.6,924.2
			c-33.2,0-64.6-8.3-92-23c55.4-34.7,93-95.3,95.8-164.6c28.4,15,60.8,23.6,95.1,23.6c35.1,0,68.1-8.9,97-24.6
			C838.6,840.3,752.2,924.2,646.6,924.2z M250.8,735.8c28.5,15.1,61,23.7,95.4,23.7c34.9,0,67.8-8.8,96.6-24.3
			c2.3,70,40.1,131.2,95.9,166.1c-27.5,14.7-58.8,23-92,23C341.1,924.2,254.7,840.4,250.8,735.8z M150.2,555.5
			c0-70.1,37-131.8,92.5-166.4c2.1,70.1,39.7,131.3,95.4,166.4c-55.7,35.1-93.3,96.3-95.4,166.4
			C187.2,687.3,150.2,625.6,150.2,555.5z M446.6,186.8c33.2,0,64.6,8.3,92,23c-55.8,34.9-93.5,96.1-95.9,166
			c-28.8-15.5-61.7-24.3-96.6-24.3c-34.4,0-66.9,8.6-95.4,23.7C254.8,270.7,341.1,186.8,446.6,186.8z M842.5,376.7
			c-28.9-15.7-61.9-24.6-97-24.6c-34.3,0-66.6,8.5-95,23.5c-2.4-69.9-40.2-131-95.9-165.9c27.5-14.7,58.8-23,92-23
			C752.6,186.8,839.3,271.5,842.5,376.7z M354,555.5c27.6-14.9,59.1-23.3,92.6-23.3c31.4,0,61,7.4,87.3,20.6
			c1.4,0.9,2.8,1.8,4.2,2.7c-1.4,0.9-2.8,1.8-4.2,2.7c0,0-15.1,10.2-23.7,18.4c-41,36.9-67,90.2-67.6,149.4
			c-28.5,16.2-61.4,25.4-96.5,25.4c-34.7,0-67.3-9.1-95.5-24.9c0.6-70.6,38.7-132.4,95.2-166.4L354,555.5z M450.8,721.2
			c2.3-65,36.4-122,87.2-156c1.2-0.6,2.5-1.3,3.7-1.9c0,1.3,0.1,2.6,0.2,3.9c0,0,0.9,17.8,4,30.5c11.9,57.2,47.9,105.8,96.8,134.5
			c-1.4,69.9-39.6,131-95.9,164.5c-56.8-33.8-95.1-95.5-96-166.1L450.8,721.2z M642.5,722.9c-52.8-32.8-89-89.9-92.7-155.6
			c0.1-1.6,0.2-3.2,0.2-4.8c1.7,0.9,3.5,1.8,5.3,2.7c0,0,9,5.4,27.7,11.4c20,6.6,41.4,10.2,63.6,10.2c36.6,0,71-9.7,100.7-26.7
			c56.5,34,94.6,95.7,95.2,166.2c-28.6,16.4-61.8,25.8-97.1,25.8c-34.4,0-66.8-8.9-94.9-24.6L642.5,722.9z M739.2,555.5
			c-27.6,14.9-59.1,23.3-92.6,23.3c-31.4,0-61-7.4-87.3-20.6c-1.4-0.9-2.8-1.8-4.2-2.7c1.4-0.9,2.8-1.8,4.2-2.7
			c0,0,20-14.3,23.7-18.4c41.1-37,67.1-90.3,67.6-149.7c28.1-15.6,60.5-24.6,94.9-24.6c35.3,0,68.4,9.4,97.1,25.8
			c-1.1,70-39,131.2-95.2,165L739.2,555.5z M545.9,513.9c-11.8-56.7-47.1-104.8-95.3-133.6c0.9-70.5,39.2-132.2,96-166
			c56.7,33.8,95,95.3,96,165.8l-0.1,9.4c-2.2,65.2-36.3,122.3-87.2,156.4c-1.8,0.9-3.5,1.8-5.3,2.7c0-1.4-0.1-2.8-0.2-4.2
			C549.9,544.4,549.1,527.2,545.9,513.9z M510.2,534.4c-20-6.6-41.4-10.2-63.6-10.2c-36.6,0-71,9.7-100.7,26.7
			c-56.6-34.1-94.7-95.9-95.2-166.5c28.3-15.9,60.9-24.9,95.5-24.9c35,0,68,9.3,96.5,25.4l8.1,4.9c52,32.9,87.5,89.6,91.1,154.6
			c-0.1,1.1-0.1,2.3-0.2,3.4c-1.2-0.7-2.5-1.3-3.8-1.9C537.9,545.9,525.8,539.6,510.2,534.4z M911.1,401.4
			c10.9,25.8,19,52.5,24.2,79.9c-16.6-41.8-46.6-76.9-84.6-99.8c-0.3-46-16-88.5-42.1-122.5c6,5.3,11.9,10.9,17.7,16.6
			C862.6,311.9,891.1,354.2,911.1,401.4z M674.5,180.8c-9.1-1.3-18.4-1.9-27.9-1.9c-36.3,0-70.4,9.5-100,26.2
			c-29.6-16.7-63.7-26.2-100-26.2c-10,0-19.8,0.7-29.4,2.1c41.3-14.3,84.6-21.5,128.9-21.5C590.3,159.5,633.4,166.6,674.5,180.8z
			 M181.3,401.4c19.9-47.2,48.5-89.5,84.9-125.9c6.6-6.6,13.5-13,20.5-19.1c-27,34-43.3,76.9-44,123.4c-37.7,22.3-67.6,56.3-84.7,97
			C163.2,451,170.9,425.8,181.3,401.4z M181.3,709.6c-10.3-24.5-18.1-49.7-23.3-75.5c17.1,40.7,47,74.8,84.7,97
			c0.7,46.4,16.9,89.2,43.8,123.2c-6.9-6-13.7-12.3-20.2-18.9C229.8,799.1,201.2,756.8,181.3,709.6z M417.7,930.2
			c9.5,1.3,19.1,2.1,28.9,2.1c36.3,0,70.4-9.5,100-26.2c29.6,16.7,63.7,26.2,100,26.2c9.3,0,18.5-0.6,27.5-1.9
			c-41,14-83.9,21.1-127.9,21.1C502,951.5,458.9,944.3,417.7,930.2z M911.1,709.6c-19.9,47.2-48.5,89.5-84.9,125.9
			c-5.7,5.7-11.5,11.1-17.5,16.4c25.7-33.7,41.3-75.5,41.8-121c37.7-22.8,67.5-57.4,84.2-98.6C929.5,658.8,921.6,684.6,911.1,709.6z
			"/>
		<g>
			<path class="st19" d="M502.9,402.5c28.5,30.4,48.2,68.6,55.8,109.7c0.7,3.2,1.3,6.9,1.8,11.1c39.7-32.1,64.1-79.6,67.1-130.3
				l0.3-9.1c0-3.7-0.1-7.3-0.2-11c-36,23.5-62.7,53.8-78.6,91.8c-13.3-30.2-31.4-48.8-46.1-62.6C503.1,402.2,503,402.3,502.9,402.5z
				"/>
			<path class="st19" d="M658.8,441.4c-11.7,40-34.6,76.4-66.2,103.8c-2.4,2.2-5.3,4.6-8.6,7.2c47.8,17.9,101.1,14.8,146.3-8.4
				l8-4.4c3.2-1.8,6.3-3.8,9.4-5.8c-38.6-19.1-78.2-26.7-119-21.1c19.2-26.8,26.1-51.9,30.6-71.5C659.1,441.4,659,441.4,658.8,441.4
				z"/>
			<g>
				<path class="st19" d="M589.8,709.3c-29.2-29.7-49.7-67.5-58.3-108.5c-0.8-3.2-1.5-6.9-2.1-11c-38.9,33-62.3,81-64.1,131.8
					l-0.1,9.1c0,3.7,0.2,7.3,0.5,11c35.5-24.3,61.5-55.2,76.5-93.5c14,29.9,32.5,48.1,47.5,61.6
					C589.7,709.6,589.7,709.5,589.8,709.3z"/>
			</g>
			<path class="st19" d="M700.8,595c-40.5,9.9-83.4,8.2-123-5.4c-3.1-1-6.7-2.3-10.5-3.8c8.4,50.4,37.7,95,80.4,122.5l7.8,4.8
				c3.2,1.8,6.4,3.6,9.7,5.2c-2.8-42.9-16-81.1-41.2-113.6c32.8,3.2,58-3.3,77.2-9.3C701,595.3,700.9,595.1,700.8,595z"/>
			<path class="st19" d="M391.8,516.3c40.4-10.4,83.3-9.3,123.1,3.8c3.1,0.9,6.7,2.2,10.6,3.7c-9.1-50.2-39-94.5-82-121.4l-7.8-4.6
				c-3.2-1.8-6.5-3.5-9.8-5.1c3.3,42.9,17.1,80.8,42.8,113c-32.9-2.8-57.9,4.1-77.1,10.3C391.6,516,391.7,516.2,391.8,516.3z"/>
			<path class="st19" d="M435,669.3c11.9-39.9,35.1-76.2,66.8-103.4c2.4-2.2,5.3-4.6,8.6-7.1c-47.7-18.1-101-15.4-146.4,7.5l-8,4.3
				c-3.2,1.8-6.3,3.7-9.4,5.7c38.5,19.3,78,27.1,118.8,21.8c-19.4,26.7-26.4,51.7-31,71.3C434.6,669.4,434.8,669.3,435,669.3z"/>
		</g>
	</g>
</g>
<g id="Layer_23">
</g>
<g id="Layer_24">
	<defs>
		<rect id="SVGID_33_" x="-2262" width="1111" height="1111"/>
	</defs>
	<clipPath id="SVGID_1_">
		<use xlink:href="#SVGID_33_"  style="overflow:visible;"/>
	</clipPath>
</g>
<g id="Layer_25">
</g>
<g id="Layer_26">
	<defs>
		<path id="SVGID_35_" d="M11968.2-810.6c-20.3-48.1-49.5-91.3-86.6-128.4c-37.1-37.1-80.3-66.2-128.4-86.6
			c-49.8-21.1-102.7-31.8-157.3-31.8s-107.4,10.7-157.3,31.8c-48.1,20.3-91.3,49.5-128.4,86.6c-37.1,37.1-66.2,80.3-86.6,128.4
			c-21.1,49.8-31.8,102.7-31.8,157.3s10.7,107.4,31.8,157.3c20.3,48.1,49.5,91.3,86.6,128.4c37.1,37.1,80.3,66.2,128.4,86.6
			c49.8,21.1,102.7,31.8,157.3,31.8s107.4-10.7,157.3-31.8c48.1-20.3,91.3-49.5,128.4-86.6c37.1-37.1,66.2-80.3,86.6-128.4
			c21.1-49.8,31.8-102.7,31.8-157.3S11989.3-760.8,11968.2-810.6z M11900.3-487.3c-2.2-69.9-39.8-131-95.4-166.1
			c55.3-34.8,92.7-95.5,95.4-164.8c54.7,34.8,91.1,96,91.1,165.5C11991.3-583.2,11955-522.1,11900.3-487.3z M11696.4-284.6
			c-33.2,0-64.6-8.3-92-23c55.4-34.7,93-95.3,95.8-164.6c28.4,15,60.8,23.6,95.1,23.6c35.1,0,68.1-8.9,97-24.6
			C11888.4-368.6,11802-284.6,11696.4-284.6z M11300.6-473.1c28.5,15.1,61,23.7,95.4,23.7c34.9,0,67.8-8.8,96.6-24.3
			c2.3,70,40.1,131.2,95.9,166.1c-27.5,14.7-58.8,23-92,23C11390.9-284.6,11304.5-368.5,11300.6-473.1z M11200-653.4
			c0-70.1,37-131.8,92.5-166.4c2.1,70.1,39.7,131.3,95.4,166.4c-55.7,35.1-93.3,96.3-95.4,166.4
			C11237-521.6,11200-583.2,11200-653.4z M11496.4-1022c33.2,0,64.6,8.3,92,23c-55.8,34.9-93.5,96.1-95.9,166
			c-28.8-15.5-61.7-24.3-96.6-24.3c-34.4,0-66.9,8.6-95.4,23.7C11304.6-938.2,11390.9-1022,11496.4-1022z M11892.3-832.1
			c-28.9-15.7-61.9-24.6-97-24.6c-34.3,0-66.6,8.5-95,23.5c-2.4-69.9-40.2-131-95.9-165.9c27.5-14.7,58.8-23,92-23
			C11802.4-1022,11889.1-937.4,11892.3-832.1z M11403.8-653.3c27.6-14.9,59.1-23.3,92.6-23.3c31.4,0,61,7.4,87.3,20.6
			c1.4,0.9,2.8,1.8,4.2,2.7c-1.4,0.9-2.8,1.8-4.2,2.7c0,0-15.1,10.2-23.7,18.4c-41,36.9-67,90.2-67.6,149.4
			c-28.5,16.2-61.4,25.4-96.5,25.4c-34.7,0-67.3-9.1-95.5-24.9c0.6-70.6,38.7-132.4,95.2-166.4L11403.8-653.3z M11500.6-487.7
			c2.3-65,36.4-122,87.2-156c1.2-0.6,2.5-1.3,3.7-1.9c0,1.3,0.1,2.6,0.2,3.9c0,0,0.9,17.8,4,30.5c11.9,57.2,47.9,105.8,96.8,134.5
			c-1.4,69.9-39.6,131-96,164.5c-56.8-33.8-95.1-95.5-96-166.1L11500.6-487.7z M11692.3-486c-52.8-32.8-89-89.9-92.7-155.6
			c0.1-1.6,0.2-3.2,0.2-4.8c1.7,0.9,3.5,1.8,5.3,2.7c0,0,9,5.4,27.7,11.4c20,6.6,41.4,10.2,63.6,10.2c36.6,0,71-9.7,100.7-26.7
			c56.5,34,94.6,95.7,95.2,166.2c-28.6,16.4-61.8,25.8-97.1,25.8c-34.4,0-66.8-8.9-94.9-24.6L11692.3-486z M11789-653.3
			c-27.6,14.9-59.1,23.3-92.6,23.3c-31.4,0-61-7.4-87.3-20.6c-1.4-0.9-2.8-1.8-4.2-2.7c1.4-0.9,2.8-1.8,4.2-2.7
			c0,0,20-14.3,23.7-18.4c41.1-37,67.1-90.3,67.6-149.7c28.1-15.6,60.5-24.6,94.9-24.6c35.3,0,68.4,9.4,97.1,25.8
			c-1.1,70-39,131.2-95.2,165L11789-653.3z M11595.7-694.9c-11.8-56.7-47.1-104.8-95.3-133.6c0.9-70.5,39.2-132.2,96-166
			c56.7,33.8,95,95.3,96,165.8l-0.1,9.4c-2.2,65.2-36.3,122.3-87.2,156.4c-1.8,0.9-3.5,1.8-5.3,2.7c0-1.4-0.1-2.8-0.2-4.2
			C11599.7-664.5,11598.9-681.7,11595.7-694.9z M11560-674.5c-20-6.6-41.4-10.2-63.6-10.2c-36.6,0-71,9.7-100.7,26.7
			c-56.6-34.1-94.7-95.9-95.2-166.5c28.3-15.9,60.9-24.9,95.5-24.9c35,0,68,9.3,96.5,25.4l8.1,4.9c52,32.9,87.5,89.6,91.1,154.6
			c-0.1,1.1-0.1,2.3-0.2,3.4c-1.2-0.7-2.5-1.3-3.8-1.9C11587.7-663,11575.6-669.3,11560-674.5z M11960.9-807.5
			c10.9,25.8,19,52.5,24.2,79.9c-16.6-41.8-46.6-76.9-84.6-99.8c-0.3-46-16-88.5-42.1-122.5c6,5.3,11.9,10.9,17.7,16.6
			C11912.4-897,11940.9-854.7,11960.9-807.5z M11724.3-1028.1c-9.1-1.3-18.4-1.9-27.9-1.9c-36.3,0-70.4,9.5-100,26.2
			c-29.6-16.7-63.7-26.2-100-26.2c-10,0-19.8,0.7-29.4,2.1c41.3-14.3,84.6-21.5,128.9-21.5
			C11640.1-1049.4,11683.2-1042.2,11724.3-1028.1z M11231.1-807.5c19.9-47.2,48.5-89.5,84.9-125.9c6.6-6.6,13.5-13,20.5-19.1
			c-27,34-43.3,76.9-44,123.4c-37.7,22.3-67.6,56.3-84.7,97C11213-757.8,11220.8-783.1,11231.1-807.5z M11231.1-499.2
			c-10.3-24.5-18.1-49.7-23.3-75.5c17.1,40.7,47,74.8,84.7,97c0.7,46.4,16.9,89.2,43.8,123.2c-6.9-6-13.7-12.3-20.2-18.9
			C11279.6-409.7,11251-452.1,11231.1-499.2z M11467.5-278.7c9.5,1.3,19.1,2.1,28.9,2.1c36.3,0,70.4-9.5,100-26.2
			c29.6,16.7,63.7,26.2,100,26.2c9.3,0,18.5-0.6,27.5-1.9c-41,14-83.9,21.1-127.9,21.1C11551.8-257.4,11508.7-264.5,11467.5-278.7z
			 M11960.9-499.2c-19.9,47.2-48.5,89.5-84.9,125.9c-5.7,5.7-11.5,11.1-17.5,16.4c25.7-33.7,41.3-75.5,41.8-121
			c37.7-22.8,67.5-57.4,84.2-98.6C11979.3-550.1,11971.4-524.3,11960.9-499.2z"/>
	</defs>
	<clipPath id="SVGID_2_">
		<use xlink:href="#SVGID_35_"  style="overflow:visible;"/>
	</clipPath>
</g>
</svg>
