<?xml version="1.0" encoding="utf-8"?>
<!-- Generator: Adobe Illustrator 22.1.0, SVG Export Plug-In . SVG Version: 6.00 Build 0)  -->
<svg version="1.1" xmlns="http://www.w3.org/2000/svg" xmlns:xlink="http://www.w3.org/1999/xlink" x="0px" y="0px"
	 viewBox="0 0 1111 1111" style="enable-background:new 0 0 1111 1111;" xml:space="preserve">
<style type="text/css">
	.st0{display:none;}
	.st1{display:inline;}
	.st2{fill:url(#SVGID_1_);}
	.st3{fill:url(#SVGID_2_);}
	.st4{fill:url(#SVGID_3_);}
	.st5{fill:url(#SVGID_4_);}
	.st6{fill:url(#SVGID_5_);}
	.st7{fill:url(#SVGID_6_);}
	.st8{display:inline;fill:none;}
	.st9{display:inline;fill:none;stroke:#FFFFFF;stroke-width:2.126;stroke-miterlimit:10;}
	.st10{fill:url(#SVGID_7_);}
	.st11{fill:url(#SVGID_8_);}
	.st12{fill:url(#SVGID_9_);}
	.st13{fill:url(#SVGID_10_);}
	.st14{fill:url(#SVGID_11_);}
	.st15{fill:url(#SVGID_12_);}
	.st16{fill:#958757;}
	.st17{opacity:0.48;}
	.st18{fill:none;}
	.st19{fill:#09D1AA;}
	.st20{fill:#2B2B2B;}
	.st21{fill:url(#SVGID_13_);}
	.st22{fill:url(#SVGID_14_);}
	.st23{fill:url(#SVGID_15_);}
	.st24{fill:url(#SVGID_16_);}
	.st25{fill:url(#SVGID_17_);}
	.st26{fill:url(#SVGID_18_);}
	.st27{fill:url(#SVGID_19_);}
	.st28{fill:url(#SVGID_20_);}
	.st29{fill:url(#SVGID_21_);}
	.st30{fill:url(#SVGID_22_);}
	.st31{fill:url(#SVGID_23_);}
	.st32{fill:url(#SVGID_24_);}
	.st33{fill:url(#SVGID_25_);}
	.st34{fill:url(#SVGID_26_);}
	.st35{fill:url(#SVGID_27_);}
	.st36{fill:url(#SVGID_28_);}
	.st37{fill:url(#SVGID_29_);}
	.st38{fill:url(#SVGID_30_);}
	.st39{fill:url(#SVGID_31_);}
	.st40{fill:#FFFFFF;}
	.st41{fill:url(#SVGID_32_);}
	.st42{clip-path:url(#SVGID_34_);}
	.st43{opacity:0.48;clip-path:url(#SVGID_36_);}
	.st44{fill:url(#SVGID_37_);}
	.st45{fill:url(#SVGID_38_);}
	.st46{fill:url(#SVGID_39_);}
	.st47{fill:url(#SVGID_40_);}
	.st48{fill:url(#SVGID_41_);}
	.st49{fill:url(#SVGID_42_);}
	.st50{fill:url(#SVGID_43_);}
	.st51{fill:url(#SVGID_44_);}
	.st52{fill:url(#SVGID_45_);}
	.st53{fill:url(#SVGID_46_);}
	.st54{fill:url(#SVGID_47_);}
	.st55{fill:url(#SVGID_48_);}
	.st56{fill:url(#SVGID_49_);}
	.st57{fill:url(#SVGID_50_);}
	.st58{fill:url(#SVGID_51_);}
	.st59{fill:url(#SVGID_52_);}
	.st60{fill:url(#SVGID_53_);}
	.st61{fill:url(#SVGID_54_);}
</style>
<g id="Layer_13">
</g>
<g id="mandala">
	<g id="ROUND_BG">
	</g>
	<g id="OG" class="st0">
	</g>
	<g id="Layer_6_copy">
	</g>
	<g id="gradient">
	</g>
	<g id="GREEN" class="st0">
	</g>
	<g id="Layer_8" class="st0">
	</g>
	<g id="Layer_9">
	</g>
</g>
<g id="mandala_copy">
	<g id="ROUND_BG_copy">
	</g>
	<g id="OG_copy" class="st0">
	</g>
	<g id="Layer_6_copy_2">
	</g>
	<g id="gradient_copy">
	</g>
	<g id="GREEN_copy" class="st0">
	</g>
	<g id="Layer_8_copy" class="st0">
	</g>
	<g id="Layer_9_copy">
	</g>
</g>
<g id="Layer_7">
</g>
<g id="Layer_20">
</g>
<g id="Layer_19">
	<path class="st16" d="M918.4,320.4c-20.3-48.1-49.5-91.3-86.6-128.4c-37.1-37.1-80.3-66.2-128.4-86.6
		c-49.8-21.1-102.7-31.8-157.3-31.8s-107.4,10.7-157.3,31.8c-48.1,20.3-91.3,49.5-128.4,86.6c-37.1,37.1-66.2,80.3-86.6,128.4
		c-21.1,49.8-31.8,102.7-31.8,157.3s10.7,107.4,31.8,157.3c20.3,48.1,49.5,91.3,86.6,128.4c37.1,37.1,80.3,66.2,128.4,86.6
		c49.8,21.1,102.7,31.8,157.3,31.8s107.4-10.7,157.3-31.8c48.1-20.3,91.3-49.5,128.4-86.6c37.1-37.1,66.2-80.3,86.6-128.4
		c21.1-49.8,31.8-102.7,31.8-157.3S939.5,370.2,918.4,320.4z M850.5,643.7c-2.2-69.9-39.8-131-95.4-166.1
		c55.3-34.8,92.7-95.5,95.4-164.8c54.7,34.8,91.1,96,91.1,165.5C941.5,547.8,905.2,608.9,850.5,643.7z M646.6,846.4
		c-33.2,0-64.6-8.3-92-23c55.4-34.7,93-95.3,95.8-164.6c28.4,15,60.8,23.6,95.1,23.6c35.1,0,68.1-8.9,97-24.6
		C838.6,762.4,752.2,846.4,646.6,846.4z M250.8,657.9c28.5,15.1,61,23.7,95.4,23.7c34.9,0,67.8-8.8,96.6-24.3
		c2.3,70,40.1,131.2,95.9,166.1c-27.5,14.7-58.8,23-92,23C341.1,846.4,254.7,762.5,250.8,657.9z M150.2,477.6
		c0-70.1,37-131.8,92.5-166.4c2.1,70.1,39.7,131.3,95.4,166.4c-55.7,35.1-93.3,96.3-95.4,166.4C187.2,609.4,150.2,547.8,150.2,477.6
		z M446.6,109c33.2,0,64.6,8.3,92,23c-55.8,34.9-93.5,96.1-95.9,166c-28.8-15.5-61.7-24.3-96.6-24.3c-34.4,0-66.9,8.6-95.4,23.7
		C254.8,192.8,341.1,109,446.6,109z M842.5,298.9c-28.9-15.7-61.9-24.6-97-24.6c-34.3,0-66.6,8.5-95,23.5
		c-2.4-69.9-40.2-131-95.9-165.9c27.5-14.7,58.8-23,92-23C752.6,109,839.3,193.6,842.5,298.9z M354,477.7
		c27.6-14.9,59.1-23.3,92.6-23.3c31.4,0,61,7.4,87.3,20.6c1.4,0.9,2.8,1.8,4.2,2.7c-1.4,0.9-2.8,1.8-4.2,2.7
		c0,0-15.1,10.2-23.7,18.4c-41,36.9-67,90.2-67.6,149.4c-28.5,16.2-61.4,25.4-96.5,25.4c-34.7,0-67.3-9.1-95.5-24.9
		c0.6-70.6,38.7-132.4,95.2-166.4L354,477.7z M450.8,643.3c2.3-65,36.4-122,87.2-156c1.2-0.6,2.5-1.3,3.7-1.9c0,1.3,0.1,2.6,0.2,3.9
		c0,0,0.9,17.8,4,30.5c11.9,57.2,47.9,105.8,96.8,134.5c-1.4,69.9-39.6,131-95.9,164.5c-56.8-33.8-95.1-95.5-96-166.1L450.8,643.3z
		 M642.5,645c-52.8-32.8-89-89.9-92.7-155.6c0.1-1.6,0.2-3.2,0.2-4.8c1.7,0.9,3.5,1.8,5.3,2.7c0,0,9,5.4,27.7,11.4
		c20,6.6,41.4,10.2,63.6,10.2c36.6,0,71-9.7,100.7-26.7c56.5,34,94.6,95.7,95.2,166.2c-28.6,16.4-61.8,25.8-97.1,25.8
		c-34.4,0-66.8-8.9-94.9-24.6L642.5,645z M739.2,477.7c-27.6,14.9-59.1,23.3-92.6,23.3c-31.4,0-61-7.4-87.3-20.6
		c-1.4-0.9-2.8-1.8-4.2-2.7c1.4-0.9,2.8-1.8,4.2-2.7c0,0,20-14.3,23.7-18.4c41.1-37,67.1-90.3,67.6-149.7
		c28.1-15.6,60.5-24.6,94.9-24.6c35.3,0,68.4,9.4,97.1,25.8c-1.1,70-39,131.2-95.2,165L739.2,477.7z M545.9,436.1
		c-11.8-56.7-47.1-104.8-95.3-133.6c0.9-70.5,39.2-132.2,96-166c56.7,33.8,95,95.3,96,165.8l-0.1,9.4
		c-2.2,65.2-36.3,122.3-87.2,156.4c-1.8,0.9-3.5,1.8-5.3,2.7c0-1.4-0.1-2.8-0.2-4.2C549.9,466.5,549.1,449.3,545.9,436.1z
		 M510.2,456.5c-20-6.6-41.4-10.2-63.6-10.2c-36.6,0-71,9.7-100.7,26.7c-56.6-34.1-94.7-95.9-95.2-166.5
		c28.3-15.9,60.9-24.9,95.5-24.9c35,0,68,9.3,96.5,25.4l8.1,4.9c52,32.9,87.5,89.6,91.1,154.6c-0.1,1.1-0.1,2.3-0.2,3.4
		c-1.2-0.7-2.5-1.3-3.8-1.9C537.9,468,525.8,461.7,510.2,456.5z M911.1,323.5c10.9,25.8,19,52.5,24.2,79.9
		c-16.6-41.8-46.6-76.9-84.6-99.8c-0.3-46-16-88.5-42.1-122.5c6,5.3,11.9,10.9,17.7,16.6C862.6,234,891.1,276.3,911.1,323.5z
		 M674.5,102.9c-9.1-1.3-18.4-1.9-27.9-1.9c-36.3,0-70.4,9.5-100,26.2c-29.6-16.7-63.7-26.2-100-26.2c-10,0-19.8,0.7-29.4,2.1
		c41.3-14.3,84.6-21.5,128.9-21.5C590.3,81.6,633.4,88.8,674.5,102.9z M181.3,323.5c19.9-47.2,48.5-89.5,84.9-125.9
		c6.6-6.6,13.5-13,20.5-19.1c-27,34-43.3,76.9-44,123.4c-37.7,22.3-67.6,56.3-84.7,97C163.2,373.2,170.9,347.9,181.3,323.5z
		 M181.3,631.8c-10.3-24.5-18.1-49.7-23.3-75.5c17.1,40.7,47,74.8,84.7,97c0.7,46.4,16.9,89.2,43.8,123.2
		c-6.9-6-13.7-12.3-20.2-18.9C229.8,721.3,201.2,678.9,181.3,631.8z M417.7,852.3c9.5,1.3,19.1,2.1,28.9,2.1
		c36.3,0,70.4-9.5,100-26.2c29.6,16.7,63.7,26.2,100,26.2c9.3,0,18.5-0.6,27.5-1.9c-41,14-83.9,21.1-127.9,21.1
		C502,873.6,458.9,866.5,417.7,852.3z M911.1,631.8c-19.9,47.2-48.5,89.5-84.9,125.9c-5.7,5.7-11.5,11.1-17.5,16.4
		c25.7-33.7,41.3-75.5,41.8-121c37.7-22.8,67.5-57.4,84.2-98.6C929.5,580.9,921.6,606.7,911.1,631.8z"/>
	<radialGradient id="SVGID_1_" cx="547.1462" cy="479.4043" r="192.6421" gradientUnits="userSpaceOnUse">
		<stop  offset="0" style="stop-color:#FFFFFF"/>
		<stop  offset="1" style="stop-color:#09D1AA"/>
	</radialGradient>
	<path class="st2" d="M628.7,435c19.2-26.8,26.1-51.9,30.6-71.5c-0.2,0-0.3,0.1-0.5,0.1c-11.7,40-34.6,76.4-66.2,103.8
		c-2.4,2.2-5.3,4.6-8.6,7.2c47.8,17.9,101.1,14.8,146.3-8.4l8-4.4c3.2-1.8,6.3-3.8,9.4-5.8C709.1,437,669.5,429.4,628.7,435z
		 M391.4,438c0.1,0.1,0.2,0.2,0.3,0.4c40.4-10.4,83.3-9.3,123.1,3.8c3.1,0.9,6.7,2.2,10.6,3.7c-9.1-50.2-39-94.5-82-121.4l-7.8-4.6
		c-3.2-1.8-6.5-3.5-9.8-5.1c3.3,42.9,17.1,80.8,42.8,113C435.6,424.9,410.6,431.8,391.4,438z M560.6,445.4
		c39.7-32.1,64.1-79.6,67.1-130.3l0.3-9.1c0-3.7-0.1-7.3-0.2-11c-36,23.5-62.7,53.8-78.6,91.8c-13.3-30.2-31.4-48.8-46.1-62.6
		c-0.1,0.2-0.1,0.3-0.2,0.4c28.5,30.4,48.2,68.6,55.8,109.7C559.5,437.5,560.1,441.2,560.6,445.4z M501.8,488
		c2.4-2.2,5.3-4.6,8.6-7.1c-47.7-18.1-101-15.4-146.4,7.5l-8,4.3c-3.2,1.8-6.3,3.7-9.4,5.7c38.5,19.3,78,27.1,118.8,21.8
		c-19.4,26.7-26.4,51.7-31,71.3c0.2,0,0.3-0.1,0.5-0.1C446.9,551.5,470,515.3,501.8,488z M529.5,512c-38.9,33-62.3,81-64.1,131.8
		l-0.1,9.1c0,3.7,0.2,7.3,0.5,11c35.5-24.3,61.5-55.2,76.5-93.5c14,29.9,32.5,48.1,47.5,61.6c0.1-0.2,0.1-0.3,0.2-0.5
		c-29.2-29.7-49.7-67.5-58.3-108.5C530.8,519.8,530.1,516.1,529.5,512z M701.1,517.5c-0.1-0.1-0.2-0.2-0.3-0.4
		c-40.5,9.9-83.4,8.2-123-5.4c-3.1-1-6.7-2.3-10.5-3.8c8.4,50.4,37.7,95,80.4,122.5l7.8,4.8c3.2,1.8,6.4,3.6,9.7,5.2
		c-2.8-42.9-16-81.1-41.2-113.6C656.7,530,681.9,523.5,701.1,517.5z"/>
	<g>
		<g>
			<path class="st40" d="M537,1036c-0.6-0.1-1.2-0.1-1.7-0.1h-4.8c-0.5,0-1.1,0-1.7,0.1l-4.2,0.6l-1.3-4.1c-0.4-1.3-0.9-2.9-1.6-4.7
				c-0.7-1.9-1.5-3.9-2.3-6l-2.6-6.5c-0.5-1.1-0.9-2.2-1.3-3.2c-0.8,0-1.7,0-2.5,0c-2,0-3.9,0-5.9,0c-1.8,0-3.6,0-5.4,0
				c-0.7,0-1.4,0-2.2,0c-1.4,3.5-2.7,6.9-3.9,10.2c-1.5,4.1-2.7,7.5-3.4,10.1l-1.2,4.1l-4.2-0.5c-0.8-0.1-1.7-0.1-2.7-0.1
				c-1,0-1.9,0-2.7,0.1l-8.9,1.1l3.8-8.1c4.8-10.4,9.6-20.9,14.2-31.3c4.6-10.3,9.3-21,13.9-31.6l1.3-3h8.3c0,0,4.3,10.3,6,14.4
				c1.7,4,3.4,8.1,5.1,12.3c1.7,4.1,3.5,8.2,5.2,12.3c1.7,4.1,3.4,7.9,4.9,11.3c1.5,3.5,2.9,6.6,4.1,9.4c1.2,2.6,2.1,4.6,2.8,6
				l4.7,8.8L537,1036z M505.3,998.2c0.7,0,1.5,0,2.2,0c0.8,0,1.7,0,2.5,0l-2.4-5.4L505.3,998.2z M1041.9,1036
				c-0.6-0.1-1.2-0.1-1.7-0.1h-4.8c-0.5,0-1.1,0-1.7,0.1l-4.2,0.6l-1.3-4.1c-0.4-1.3-0.9-2.9-1.6-4.7c-0.7-1.9-1.5-3.9-2.3-6
				l-2.6-6.5c-0.5-1.1-0.9-2.2-1.3-3.2c-0.8,0-1.7,0-2.5,0c-2,0-3.9,0-5.9,0c-1.8,0-3.6,0-5.4,0c-0.7,0-1.4,0-2.2,0
				c-1.4,3.5-2.7,6.9-3.9,10.2c-1.5,4.1-2.7,7.5-3.4,10.1l-1.2,4.1l-4.2-0.5c-0.8-0.1-1.7-0.1-2.7-0.1c-1,0-1.9,0-2.7,0.1l-8.9,1.1
				l3.8-8.1c4.8-10.4,9.6-20.9,14.2-31.3c4.6-10.4,9.3-21,13.9-31.6l1.3-3h8.3c0,0,4.3,10.3,6,14.4c1.7,4,3.4,8.1,5.1,12.3
				c1.7,4.1,3.5,8.2,5.2,12.3c1.7,4.1,3.4,7.9,4.9,11.3c1.5,3.5,2.9,6.6,4.1,9.4c1.2,2.6,2.1,4.6,2.8,6l4.7,8.7L1041.9,1036z
				 M1010.2,998.2c0.7,0,1.5,0,2.2,0c0.8,0,1.7,0,2.5,0l-2.4-5.4L1010.2,998.2z M268.7,1036c-0.6-0.1-1.2-0.1-1.7-0.1h-4.8
				c-0.5,0-1.1,0-1.7,0.1l-4.2,0.6l-1.3-4.1c-0.4-1.3-0.9-2.9-1.6-4.7c-0.7-1.9-1.5-3.9-2.3-6l-2.6-6.5c-0.5-1.1-0.9-2.2-1.3-3.2
				c-0.8,0-1.7,0-2.5,0c-2,0-3.9,0-5.9,0c-1.8,0-3.6,0-5.4,0c-0.7,0-1.4,0-2.2,0c-1.4,3.5-2.7,6.9-3.9,10.2
				c-1.5,4.1-2.7,7.5-3.4,10.1l-1.2,4.1l-4.2-0.5c-0.8-0.1-1.7-0.1-2.7-0.1c-1,0-1.9,0-2.7,0.1l-8.9,1.1l3.8-8.1
				c4.8-10.4,9.6-20.9,14.2-31.3c4.6-10.4,9.3-21,13.9-31.6l1.3-3h8.3c0,0,4.3,10.3,6,14.4c1.7,4,3.4,8.1,5.1,12.3
				c1.7,4.1,3.5,8.2,5.2,12.3c1.7,4.1,3.4,7.9,4.9,11.3c1.5,3.5,2.9,6.6,4.1,9.4c1.2,2.6,2.1,4.6,2.8,6l4.7,8.7L268.7,1036z
				 M237,998.2c0.7,0,1.5,0,2.2,0c0.8,0,1.7,0,2.5,0l-2.4-5.4L237,998.2z M398.1,1037.2l-1.5-1.7c-6.8-7.9-14.2-16.1-21.9-24.4
				c-5-5.4-10-10.7-15-16c0,1.8,0,3.7,0,5.9c0,1.2,0,2.8,0,4.6l0.1,5.9c0,2,0.1,4.1,0.1,6.1c0.1,2.1,0.1,4,0.2,5.8
				c0.1,1.8,0.1,3.3,0.2,4.7c0.1,1.7,0.1,2.2,0.1,2.3l0.8,6.4l-6.4-0.8c-0.7-0.1-1.6-0.1-2.5-0.1c-1,0-1.9,0-2.7,0.1l-6.8,0.8
				l1.3-6.8c0-0.2,0.1-0.8,0.3-2.8c0.1-1.5,0.3-3.4,0.4-5.6c0.1-2.3,0.3-4.7,0.4-7.4c0.1-2.6,0.3-5.3,0.4-7.8
				c0.1-2.6,0.2-5.2,0.2-7.7c0.1-2.6,0.1-4.7,0.1-6.6c0-5.7,0-10.7,0-14.8c0-4.1-0.1-7.1-0.2-9l-0.3-5.3h8.9l1.5,1.6
				c3.7,4,7.6,8.2,11.8,12.7c4.2,4.5,8.3,9,12.4,13.4c4.1,4.4,8,8.6,11.7,12.5c0.3,0.4,0.7,0.7,1,1.1c0-6.2,0-12.3-0.1-18.2
				c-0.1-5.9-0.3-11.5-0.6-16.7l-0.4-6.8l6.6,1.7c1,0.3,1.6,0.3,1.8,0.3c0,0,0.5,0,1.7-0.3l6.8-1.7l-0.6,7c-0.1,1.2-0.2,3.2-0.4,5.8
				c-0.2,2.6-0.3,5.4-0.4,8.4c-0.2,3-0.3,5.9-0.4,8.8c-0.1,2.8-0.2,5-0.2,6.7v5.4c0,2,0,4.1,0,6.3l0.1,6.7c0,2.2,0.1,4.3,0.1,6.3
				c0,2,0,3.7,0,5.2v8H398.1z M135.8,1035.9c-0.4-0.1-0.9-0.1-1.3-0.1h-4.2c-0.4,0-0.8,0-1.3,0.1l-5.4,0.9l-0.4-5.4
				c-0.7-8-1.3-15.7-2-23.2c-0.2-2.4-0.4-4.8-0.7-7.3c-1.6,3-3.2,5.9-4.7,8.8c-3.9,7.3-7.7,15.1-11.2,23.1l-1.3,3H96l-1.4-2.9
				c-3.5-7.4-7.3-15-11.2-22.6c-1.5-2.9-3-5.8-4.5-8.7c-0.3,2.9-0.6,5.8-0.9,8.6c-0.4,4.1-0.8,8.1-1.1,11.9
				c-0.3,3.6-0.4,6.6-0.4,8.8v5.7l-5.6-0.7c-0.7-0.1-1.6-0.1-2.5-0.1s-1.8,0-2.5,0.1l-6.6,0.8l1.1-6.6c0.8-4.9,1.6-10,2.4-15.4
				c0.8-5.3,1.6-10.8,2.4-16.2c0.8-5.4,1.5-10.8,2.1-16.1c0.6-5.2,1.2-10.3,1.7-15l0.5-4.5h9.2l1.4,2.8c4.1,8.4,8.3,16.8,12.5,24.7
				c2.8,5.4,5.8,10.9,8.8,16.5c0.7-1.3,1.4-2.6,2.2-4.1c1.5-2.7,3.1-5.7,4.8-8.9c1.7-3.2,3.5-6.5,5.2-9.8c1.8-3.3,3.5-6.6,5.3-9.8
				c1.7-3.2,3.4-6.1,4.9-8.9l1.4-2.6h8.6l0.5,4.4c0.7,5.8,1.3,11.4,1.8,16.7c0.6,5.3,1.2,10.6,1.8,15.8c0.6,5.2,1.2,10.3,1.8,15.4
				c0.6,5,1.2,10,2,14.9l1,6.8L135.8,1035.9z M626.2,1032.8c-1.4-3.5-3.1-7.8-5-12.8c-2-4.9-4.1-10.2-6.3-15.7
				c-2.2-5.5-4.6-11.2-6.9-16.9c-2.4-5.7-4.6-11.2-6.8-16.4l-3.4-8.1l8.7,1.3c0.8,0.1,1.6,0.2,2.3,0.3c0.6,0.1,1.2,0.1,1.7,0.1
				c0.5,0,1.1,0,1.7-0.1c0.7-0.1,1.5-0.2,2.3-0.3l4.1-0.6l1.3,4c1.3,3.9,2.7,8,4.3,12.3c1.6,4.3,3.3,8.7,5,13.2
				c1.8,4.5,3.6,9,5.4,13.6c0.4,0.9,0.7,1.8,1.1,2.7c0.9-2.1,1.7-4.3,2.6-6.6c1.3-3.2,2.6-6.6,3.8-9.9c1.3-3.4,2.5-6.7,3.7-9.8
				c1.1-3,2.2-5.9,3.2-8.7c0.9-2.6,1.7-5,2.4-6.9l1.4-4.3l4.4,1c1.2,0.3,1.9,0.3,2.2,0.3s1,0,2.2-0.3l9.8-2.2l-4.1,9.1
				c-4.7,10.4-9.2,20.8-13.5,30.9c-4.3,10.1-8.4,20.5-12.4,30.6l-1.4,3.6l-3.9-0.5c-0.7-0.1-1.5-0.1-2.3-0.1c-1.2,0-1.8,0.1-2.2,0.1
				l-4,0.6L626.2,1032.8z M774.6,1036c-2.6-0.1-5.2-0.2-7.8-0.2h-16.3c-2.6,0-5.3,0.1-8,0.2l-5.5,0.2l0.3-5.5
				c0.2-3.8,0.3-7.6,0.5-11.4c0.1-3.8,0.2-7.6,0.2-11.5v-15.5c0-3.8-0.1-7.7-0.2-11.5c-0.2-3.8-0.3-7.7-0.5-11.5l-0.3-5.5l5.5,0.2
				c2.7,0.1,5.3,0.2,8,0.3c2.6,0.1,5.3,0.1,7.9,0.1c2.6,0,5.3,0,7.8-0.1c2.6-0.1,5.3-0.2,8-0.3l6.4-0.3l-1.2,6.3
				c-0.1,0.6-0.2,1.2-0.2,1.7s0.1,1.1,0.2,1.7l1.3,6.4l-6.5-0.4c-1.9-0.1-3.7-0.2-5.3-0.4c-1.6-0.1-3.2-0.2-5-0.4
				c-1.7-0.1-3.6-0.2-5.7-0.3c-0.8,0-1.6-0.1-2.5-0.1c0,0.2,0,0.5,0,0.7c-0.1,1.6-0.1,3.6-0.1,5.7c0,2.3,0,4.6,0,6.8c0,0,0,0,0,0.1
				c0.7,0,1.4,0,2,0c2-0.1,3.9-0.1,5.6-0.2c1.7-0.1,3.3-0.2,4.8-0.3c1.4-0.1,2.8-0.2,4-0.3l6.7-0.6l-1.3,6.6
				c-0.1,0.6-0.2,1.2-0.2,1.8c0,0.6,0.1,1.1,0.2,1.7l1.3,6.7l-6.8-0.8c-1.4-0.2-3.2-0.3-5.2-0.4c-2-0.1-4-0.2-6-0.2
				c-1.8,0-3.6-0.1-5.2-0.1v8c0,3.4,0,6.2,0,8.4c0,0,0,0.1,0,0.1h1.4c2.2,0,4.4,0,6.5-0.1c2.1-0.1,4.1-0.2,6-0.3
				c1.7-0.1,3.2-0.3,4.4-0.6l8.1-1.7l-2.3,8c0,0,0,0.1,0,0.3c0,0.4,0,0.8,0,1.1c0,0.7,0.1,0.9,0.1,0.9l2,6.7L774.6,1036z
				 M852.2,1030.8c0.2-3.7,0.3-7.5,0.5-11.3c0.1-3.8,0.2-7.7,0.2-11.5v-15.5c0-3.9-0.1-7.7-0.2-11.5c-0.2-3.8-0.3-7.7-0.5-11.6
				l-0.2-5.5l5.5,0.3c2.3,0.1,4.5,0.2,6.7,0.3c2.2,0.1,4.4,0.1,6.6,0.1c2.2,0,4.3-0.1,6.5-0.2c2.4-0.2,4.8-0.2,7.1-0.2
				c5.8,0,11,0.8,15.3,2.4c4.5,1.6,8.2,4.1,11.1,7.2c2.9,3.1,5.1,6.9,6.4,11.3c1.2,4.1,1.9,8.8,1.9,13.9c0,6.8-1.2,12.6-3.6,17.4
				c-2.4,4.7-5.5,8.7-9.3,11.6c-3.7,2.9-7.9,5-12.4,6.2c-4.3,1.2-8.5,1.7-12.4,1.7c-2.1,0-4.1,0-6.2-0.1c-1.9-0.1-3.9-0.1-5.9-0.1
				h-6c-1.9,0-3.8,0.1-5.7,0.2l-5.6,0.3L852.2,1030.8z M871.3,1022.7c2,0.1,4.2,0.2,6.3,0.2c2.9,0,5.8-0.3,8.8-1
				c2.6-0.6,4.8-1.7,6.8-3.4c2-1.6,3.7-4,5-7c1.4-3.1,2.1-7.3,2.1-12.5c0-4.6-0.5-8.3-1.6-11.1c-1-2.6-2.3-4.6-3.9-6
				c-1.6-1.4-3.6-2.4-6-3c-2.7-0.7-5.8-1-9.1-1c-2.6,0-5,0.1-7.2,0.3c-0.7,0.1-1.3,0.1-1.9,0.2c-0.1,1.5-0.1,3.1-0.2,4.7
				c-0.1,3.1-0.1,6.3-0.1,9.4v15.5c0,5,0.1,9.9,0.3,14.7C870.8,1022.7,871.1,1022.7,871.3,1022.7z"/>
		</g>
		<path class="st20" d="M262.2,1015.3c-1.5-3.5-3.2-7.3-4.9-11.4c-1.7-4.1-3.5-8.2-5.2-12.3c-1.7-4.1-3.5-8.2-5.1-12.3
			c-1.7-4-3.2-7.8-4.7-11.3h-1.7c-4.7,10.7-9.3,21.3-14,31.7c-4.6,10.4-9.4,20.8-14.2,31.3c1-0.1,2.1-0.2,3.3-0.2
			c1.2,0,2.3,0.1,3.3,0.2c0.8-2.8,1.9-6.3,3.5-10.5c1.6-4.2,3.3-8.7,5.2-13.4c1.9-0.1,3.7-0.1,5.5-0.1c1.8,0,3.6,0,5.5,0
			c2,0,4,0,5.9,0c2,0,3.9,0.1,5.8,0.1c0.8,2,1.6,4.1,2.5,6.3c0.9,2.2,1.8,4.4,2.7,6.5c0.9,2.1,1.7,4.2,2.4,6.1c0.7,2,1.3,3.6,1.7,5
			c0.8-0.1,1.6-0.2,2.4-0.2h4.8c0.7,0,1.5,0.1,2.4,0.2c-0.8-1.4-1.8-3.5-3-6.3C265.1,1021.9,263.8,1018.8,262.2,1015.3z
			 M244.3,1003.2c-1.7,0-3.4,0-5,0c-1.6,0-3.2,0-4.9-0.1c-1.7-0.1-3.3-0.1-4.9-0.1l9.8-22.9l10,22.9
			C247.6,1003.1,246,1003.1,244.3,1003.2z M907.1,977.1c-2.4-2.5-5.5-4.5-9.2-5.9c-3.8-1.4-8.3-2.1-13.5-2.1c-2.3,0-4.5,0.1-6.8,0.2
			c-2.2,0.2-4.5,0.2-6.8,0.2c-2.3,0-4.5,0-6.8-0.1s-4.5-0.2-6.8-0.3c0.2,4,0.3,7.8,0.5,11.7c0.1,3.8,0.2,7.7,0.2,11.7v15.5
			c0,4-0.1,7.9-0.2,11.7c-0.2,3.8-0.3,7.6-0.5,11.3c2-0.1,4-0.2,6-0.2h6c2,0,4,0,6,0.1c2,0.1,4,0.1,6,0.1c3.5,0,7.2-0.5,11.1-1.6
			c3.9-1,7.4-2.8,10.6-5.4c3.2-2.5,5.8-5.8,7.9-9.9c2.1-4.1,3.1-9.2,3.1-15.2c0-4.6-0.6-8.8-1.7-12.5
			C911.3,982.8,909.5,979.7,907.1,977.1z M902.8,1013.5c-1.7,3.8-3.8,6.7-6.4,8.9s-5.6,3.6-8.9,4.4c-3.3,0.8-6.6,1.2-9.9,1.2
			c-2.3,0-4.5-0.1-6.7-0.2c-2.2-0.1-3.9-0.4-5.1-0.7c-0.4-6.2-0.5-12.6-0.5-19.1v-15.5c0-3.2,0-6.4,0.1-9.6s0.2-6.2,0.4-9
			c1.9-0.2,4-0.5,6.3-0.6c2.3-0.2,4.9-0.3,7.6-0.3c3.7,0,7.1,0.4,10.3,1.1c3.1,0.8,5.8,2.1,8.1,4.1c2.2,2,4,4.6,5.3,8
			c1.3,3.4,1.9,7.7,1.9,12.9C905.2,1004.9,904.4,1009.8,902.8,1013.5z M132.9,1000.5c-0.6-5.2-1.2-10.5-1.8-15.8
			c-0.6-5.4-1.2-10.9-1.8-16.7h-1.2c-1.5,2.8-3.1,5.7-4.9,8.9c-1.7,3.2-3.5,6.4-5.3,9.7c-1.8,3.3-3.5,6.6-5.2,9.8
			c-1.7,3.2-3.3,6.2-4.8,9c-1.5,2.8-2.8,5.2-4,7.3c-1.1,2.1-2,3.8-2.6,4.9c-4.6-8.5-9-16.7-13.3-24.8c-4.2-8-8.4-16.3-12.6-24.8H74
			c-0.5,4.8-1,9.9-1.7,15.2s-1.4,10.7-2.2,16.2c-0.8,5.5-1.6,10.9-2.4,16.3c-0.8,5.4-1.7,10.5-2.4,15.4c1-0.1,2-0.2,3.1-0.2
			s2.2,0.1,3.2,0.2c0-2.4,0.1-5.5,0.5-9.2c0.3-3.7,0.7-7.7,1.1-12c0.4-4.2,0.9-8.5,1.4-12.9c0.5-4.3,1-8.4,1.4-12.1h0.2
			c4,7.9,7.9,15.7,11.8,23.3c3.9,7.6,7.7,15.2,11.3,22.7h0.8c3.6-8.2,7.4-16,11.4-23.4c4-7.5,8.1-15,12.2-22.5h0.2
			c1,7.8,1.8,15.5,2.4,23c0.7,7.5,1.3,15.2,2,23.2c0.7-0.1,1.4-0.2,2.1-0.2h4.2c0.7,0,1.4,0.1,2.1,0.2c-0.7-5-1.4-10-2-15.1
			C134.1,1010.9,133.5,1005.7,132.9,1000.5z M774.8,1025.9c-1.4,0.3-3.1,0.5-5.1,0.7c-2,0.2-4,0.3-6.2,0.4c-2.2,0.1-4.4,0.1-6.7,0.1
			h-6.3c-0.1-1.1-0.1-2.8-0.1-5c0-2.2,0-5,0-8.5v-8.9c0-1,0-1.8,0-2.4c0-0.6,0-1.2,0-1.8c1.1,0,2.5,0,4.4,0c1.8,0,3.8,0.1,5.9,0.1
			c2.1,0,4.1,0.1,6.2,0.2c2.1,0.1,3.9,0.3,5.4,0.5c-0.2-0.9-0.3-1.8-0.3-2.7c0-1,0.1-1.9,0.3-2.8c-1.3,0.1-2.7,0.2-4.2,0.3
			c-1.5,0.1-3.1,0.2-4.8,0.3c-1.7,0.1-3.7,0.2-5.8,0.2c-2.1,0.1-4.5,0.1-7.1,0.1c0-1.1,0-2.8,0-5c0-2.2,0-4.5,0-6.8
			c0-2.2,0-4.2,0.1-5.9c0.1-1.7,0.2-3.6,0.2-5.5c2.9,0,5.5,0,7.6,0.1c2.1,0.1,4,0.2,5.8,0.3c1.8,0.1,3.4,0.2,5,0.4
			c1.6,0.1,3.3,0.2,5.3,0.4c-0.2-0.9-0.3-1.8-0.3-2.7c0-0.9,0.1-1.8,0.3-2.7c-2.7,0.1-5.4,0.2-8,0.3c-2.6,0.1-5.3,0.1-8,0.1
			c-2.7,0-5.4,0-8.1-0.1c-2.7-0.1-5.4-0.2-8.1-0.3c0.2,3.8,0.3,7.7,0.5,11.5c0.1,3.8,0.2,7.7,0.2,11.7v15.5c0,4-0.1,7.8-0.2,11.7
			c-0.2,3.8-0.3,7.6-0.5,11.5c2.8-0.1,5.5-0.2,8.2-0.2h16.3c2.7,0,5.4,0.1,8.1,0.2c-0.2-0.6-0.3-1.4-0.3-2.3c0-0.4,0-0.9,0-1.4
			C774.6,1026.8,774.7,1026.3,774.8,1025.9z M396.8,969.2c0.3,5.3,0.5,10.9,0.6,16.9c0.1,6,0.1,12.1,0.1,18.4v12.2
			c-2.8-2.8-6-6.1-9.7-10c-3.7-3.9-7.6-8.1-11.7-12.5c-4.1-4.4-8.2-8.9-12.4-13.4c-4.2-4.5-8.1-8.8-11.7-12.7h-1.4
			c0.1,2,0.2,5.1,0.2,9.3c0,4.1,0,9.1,0,14.9c0,2,0,4.2-0.1,6.8c-0.1,2.5-0.1,5.1-0.2,7.7c-0.1,2.6-0.2,5.3-0.4,7.9
			c-0.2,2.6-0.3,5.1-0.4,7.3c-0.1,2.2-0.3,4.2-0.4,5.8c-0.2,1.6-0.3,2.7-0.4,3.3c1-0.1,2.1-0.2,3.3-0.2c1.1,0,2.2,0.1,3.1,0.2
			c-0.1-0.5-0.1-1.4-0.2-2.7c-0.1-1.3-0.1-2.9-0.2-4.7c-0.1-1.8-0.1-3.7-0.2-5.9c-0.1-2.1-0.1-4.2-0.1-6.2c0-2-0.1-4-0.1-5.9
			c0-1.9,0-3.4,0-4.7c0-4.9,0-8.7,0.1-11.5c0.1-2.8,0.1-5.1,0.2-6.8c7.8,8.3,15.6,16.6,23.4,25c7.8,8.4,15.2,16.5,22.1,24.5h1.3v-3
			c0-1.4,0-3.1,0-5.1c0-1.9-0.1-4-0.1-6.3c0-2.2-0.1-4.5-0.1-6.7c0-2.2,0-4.3,0-6.4v-5.4c0-1.7,0.1-4.1,0.2-6.9
			c0.1-2.9,0.3-5.8,0.4-8.8c0.1-3,0.3-5.8,0.4-8.5c0.1-2.6,0.3-4.6,0.4-5.9c-1.2,0.3-2.2,0.4-2.9,0.4
			C399,969.6,398,969.5,396.8,969.2z M656,969.2c-0.7,2-1.5,4.3-2.4,7c-1,2.7-2,5.6-3.2,8.7c-1.2,3.1-2.4,6.4-3.6,9.8
			c-1.3,3.4-2.5,6.7-3.8,10c-1.3,3.3-2.6,6.4-3.8,9.5c-1.3,3-2.4,5.8-3.5,8.2c-1.9-4.6-3.8-9.1-5.7-13.8c-1.9-4.6-3.7-9.2-5.4-13.7
			c-1.8-4.5-3.5-8.9-5-13.3c-1.6-4.3-3-8.5-4.4-12.5c-0.8,0.1-1.7,0.2-2.4,0.3c-0.8,0.1-1.5,0.1-2.2,0.1s-1.5,0-2.2-0.1
			c-0.8-0.1-1.6-0.2-2.4-0.3c2.2,5.2,4.4,10.6,6.8,16.4c2.4,5.8,4.7,11.4,6.9,16.9c2.2,5.5,4.4,10.8,6.3,15.8c2,5,3.7,9.2,5,12.8
			c0.8-0.1,1.8-0.2,3-0.2c1,0,2,0.1,3,0.2c4-10.3,8.1-20.5,12.4-30.8c4.3-10.3,8.8-20.6,13.5-31.1c-1.3,0.3-2.4,0.4-3.3,0.4
			S657.4,969.5,656,969.2z M1039.6,1024.7c-1.2-2.8-2.6-5.9-4.1-9.4s-3.2-7.3-4.9-11.4c-1.7-4.1-3.5-8.2-5.2-12.3
			c-1.7-4.1-3.5-8.2-5.1-12.3c-1.7-4-3.2-7.8-4.7-11.3h-1.7c-4.7,10.7-9.3,21.3-14,31.7c-4.6,10.4-9.4,20.8-14.2,31.3
			c1-0.1,2.1-0.2,3.3-0.2c1.2,0,2.3,0.1,3.3,0.2c0.8-2.8,1.9-6.3,3.5-10.5c1.6-4.2,3.3-8.7,5.2-13.4c1.9-0.1,3.7-0.1,5.5-0.1
			c1.8,0,3.6,0,5.5,0c2,0,4,0,5.9,0c2,0,3.9,0.1,5.8,0.1c0.8,2,1.6,4.1,2.5,6.3c0.9,2.2,1.8,4.4,2.7,6.5c0.9,2.1,1.7,4.2,2.4,6.1
			c0.7,2,1.3,3.6,1.7,5c0.8-0.1,1.6-0.2,2.4-0.2h4.8c0.7,0,1.5,0.1,2.4,0.2C1041.8,1029.6,1040.8,1027.5,1039.6,1024.7z
			 M1017.5,1003.2c-1.7,0-3.4,0-5,0c-1.6,0-3.2,0-4.9-0.1c-1.7-0.1-3.3-0.1-4.9-0.1l9.8-22.9l10,22.9
			C1020.8,1003.1,1019.2,1003.1,1017.5,1003.2z M530.5,1015.3c-1.5-3.5-3.2-7.3-4.9-11.4c-1.7-4.1-3.5-8.2-5.2-12.3
			c-1.7-4.1-3.5-8.2-5.1-12.3c-1.7-4-3.2-7.8-4.7-11.3h-1.7c-4.7,10.7-9.3,21.3-14,31.7c-4.6,10.4-9.4,20.8-14.2,31.3
			c1-0.1,2.1-0.2,3.3-0.2c1.2,0,2.3,0.1,3.3,0.2c0.8-2.8,1.9-6.3,3.5-10.5c1.6-4.2,3.3-8.7,5.2-13.4c1.9-0.1,3.7-0.1,5.5-0.1
			c1.8,0,3.6,0,5.5,0c2,0,4,0,5.9,0c2,0,3.9,0.1,5.8,0.1c0.8,2,1.6,4.1,2.5,6.3c0.9,2.2,1.8,4.4,2.7,6.5c0.9,2.1,1.7,4.2,2.4,6.1
			c0.7,2,1.3,3.6,1.7,5c0.8-0.1,1.6-0.2,2.4-0.2h4.8c0.7,0,1.5,0.1,2.4,0.2c-0.8-1.4-1.8-3.5-3-6.3
			C533.4,1021.9,532.1,1018.8,530.5,1015.3z M512.6,1003.2c-1.7,0-3.4,0-5,0c-1.6,0-3.2,0-4.9-0.1c-1.7-0.1-3.3-0.1-4.9-0.1
			l9.8-22.9l10,22.9C515.9,1003.1,514.2,1003.1,512.6,1003.2z"/>
	</g>
	<path class="st18" d="M918.4,320.4c-20.3-48.1-49.5-91.3-86.6-128.4c-37.1-37.1-80.3-66.2-128.4-86.6
		c-49.8-21.1-102.7-31.8-157.3-31.8s-107.4,10.7-157.3,31.8c-48.1,20.3-91.3,49.5-128.4,86.6c-37.1,37.1-66.2,80.3-86.6,128.4
		c-21.1,49.8-31.8,102.7-31.8,157.3s10.7,107.4,31.8,157.3c20.3,48.1,49.5,91.3,86.6,128.4c37.1,37.1,80.3,66.2,128.4,86.6
		c49.8,21.1,102.7,31.8,157.3,31.8s107.4-10.7,157.3-31.8c48.1-20.3,91.3-49.5,128.4-86.6c37.1-37.1,66.2-80.3,86.6-128.4
		c21.1-49.8,31.8-102.7,31.8-157.3S939.5,370.2,918.4,320.4z M850.5,643.7c-2.2-69.9-39.8-131-95.4-166.1
		c55.3-34.8,92.7-95.5,95.4-164.8c54.7,34.8,91.1,96,91.1,165.5C941.5,547.8,905.2,608.9,850.5,643.7z M646.6,846.4
		c-33.2,0-64.6-8.3-92-23c55.4-34.7,93-95.3,95.8-164.6c28.4,15,60.8,23.6,95.1,23.6c35.1,0,68.1-8.9,97-24.6
		C838.6,762.4,752.2,846.4,646.6,846.4z M250.8,657.9c28.5,15.1,61,23.7,95.4,23.7c34.9,0,67.8-8.8,96.6-24.3
		c2.3,70,40.1,131.2,95.9,166.1c-27.5,14.7-58.8,23-92,23C341.1,846.4,254.7,762.5,250.8,657.9z M150.2,477.6
		c0-70.1,37-131.8,92.5-166.4c2.1,70.1,39.7,131.3,95.4,166.4c-55.7,35.1-93.3,96.3-95.4,166.4C187.2,609.4,150.2,547.8,150.2,477.6
		z M446.6,109c33.2,0,64.6,8.3,92,23c-55.8,34.9-93.5,96.1-95.9,166c-28.8-15.5-61.7-24.3-96.6-24.3c-34.4,0-66.9,8.6-95.4,23.7
		C254.8,192.8,341.1,109,446.6,109z M842.5,298.9c-28.9-15.7-61.9-24.6-97-24.6c-34.3,0-66.6,8.5-95,23.5
		c-2.4-69.9-40.2-131-95.9-165.9c27.5-14.7,58.8-23,92-23C752.6,109,839.3,193.6,842.5,298.9z M354,477.7
		c27.6-14.9,59.1-23.3,92.6-23.3c31.4,0,61,7.4,87.3,20.6c1.4,0.9,2.8,1.8,4.2,2.7c-1.4,0.9-2.8,1.8-4.2,2.7
		c0,0-15.1,10.2-23.7,18.4c-41,36.9-67,90.2-67.6,149.4c-28.5,16.2-61.4,25.4-96.5,25.4c-34.7,0-67.3-9.1-95.5-24.9
		c0.6-70.6,38.7-132.4,95.2-166.4L354,477.7z M450.8,643.3c2.3-65,36.4-122,87.2-156c1.2-0.6,2.5-1.3,3.7-1.9c0,1.3,0.1,2.6,0.2,3.9
		c0,0,0.9,17.8,4,30.5c11.9,57.2,47.9,105.8,96.8,134.5c-1.4,69.9-39.6,131-95.9,164.5c-56.8-33.8-95.1-95.5-96-166.1L450.8,643.3z
		 M642.5,645c-52.8-32.8-89-89.9-92.7-155.6c0.1-1.6,0.2-3.2,0.2-4.8c1.7,0.9,3.5,1.8,5.3,2.7c0,0,9,5.4,27.7,11.4
		c20,6.6,41.4,10.2,63.6,10.2c36.6,0,71-9.7,100.7-26.7c56.5,34,94.6,95.7,95.2,166.2c-28.6,16.4-61.8,25.8-97.1,25.8
		c-34.4,0-66.8-8.9-94.9-24.6L642.5,645z M739.2,477.7c-27.6,14.9-59.1,23.3-92.6,23.3c-31.4,0-61-7.4-87.3-20.6
		c-1.4-0.9-2.8-1.8-4.2-2.7c1.4-0.9,2.8-1.8,4.2-2.7c0,0,20-14.3,23.7-18.4c41.1-37,67.1-90.3,67.6-149.7
		c28.1-15.6,60.5-24.6,94.9-24.6c35.3,0,68.4,9.4,97.1,25.8c-1.1,70-39,131.2-95.2,165L739.2,477.7z M545.9,436.1
		c-11.8-56.7-47.1-104.8-95.3-133.6c0.9-70.5,39.2-132.2,96-166c56.7,33.8,95,95.3,96,165.8l-0.1,9.4
		c-2.2,65.2-36.3,122.3-87.2,156.4c-1.8,0.9-3.5,1.8-5.3,2.7c0-1.4-0.1-2.8-0.2-4.2C549.9,466.5,549.1,449.3,545.9,436.1z
		 M510.2,456.5c-20-6.6-41.4-10.2-63.6-10.2c-36.6,0-71,9.7-100.7,26.7c-56.6-34.1-94.7-95.9-95.2-166.5
		c28.3-15.9,60.9-24.9,95.5-24.9c35,0,68,9.3,96.5,25.4l8.1,4.9c52,32.9,87.5,89.6,91.1,154.6c-0.1,1.1-0.1,2.3-0.2,3.4
		c-1.2-0.7-2.5-1.3-3.8-1.9C537.9,468,525.8,461.7,510.2,456.5z M911.1,323.5c10.9,25.8,19,52.5,24.2,79.9
		c-16.6-41.8-46.6-76.9-84.6-99.8c-0.3-46-16-88.5-42.1-122.5c6,5.3,11.9,10.9,17.7,16.6C862.6,234,891.1,276.3,911.1,323.5z
		 M674.5,102.9c-9.1-1.3-18.4-1.9-27.9-1.9c-36.3,0-70.4,9.5-100,26.2c-29.6-16.7-63.7-26.2-100-26.2c-10,0-19.8,0.7-29.4,2.1
		c41.3-14.3,84.6-21.5,128.9-21.5C590.3,81.6,633.4,88.8,674.5,102.9z M181.3,323.5c19.9-47.2,48.5-89.5,84.9-125.9
		c6.6-6.6,13.5-13,20.5-19.1c-27,34-43.3,76.9-44,123.4c-37.7,22.3-67.6,56.3-84.7,97C163.2,373.2,170.9,347.9,181.3,323.5z
		 M181.3,631.8c-10.3-24.5-18.1-49.7-23.3-75.5c17.1,40.7,47,74.8,84.7,97c0.7,46.4,16.9,89.2,43.8,123.2
		c-6.9-6-13.7-12.3-20.2-18.9C229.8,721.3,201.2,678.9,181.3,631.8z M417.7,852.3c9.5,1.3,19.1,2.1,28.9,2.1
		c36.3,0,70.4-9.5,100-26.2c29.6,16.7,63.7,26.2,100,26.2c9.3,0,18.5-0.6,27.5-1.9c-41,14-83.9,21.1-127.9,21.1
		C502,873.6,458.9,866.5,417.7,852.3z M911.1,631.8c-19.9,47.2-48.5,89.5-84.9,125.9c-5.7,5.7-11.5,11.1-17.5,16.4
		c25.7-33.7,41.3-75.5,41.8-121c37.7-22.8,67.5-57.4,84.2-98.6C929.5,580.9,921.6,606.7,911.1,631.8z"/>
</g>
<g id="Layer_21">
</g>
<g id="Layer_22">
</g>
<g id="Layer_23">
</g>
<g id="Layer_24">
	<defs>
		<rect id="SVGID_33_" x="-13311.8" y="1131" width="1111" height="1111"/>
	</defs>
	<clipPath id="SVGID_2_">
		<use xlink:href="#SVGID_33_"  style="overflow:visible;"/>
	</clipPath>
</g>
<g id="Layer_25">
	<path class="st18" d="M918.4,320.4c-20.3-48.1-49.5-91.3-86.6-128.4c-37.1-37.1-80.3-66.2-128.4-86.6
		c-49.8-21.1-102.7-31.8-157.3-31.8s-107.4,10.7-157.3,31.8c-48.1,20.3-91.3,49.5-128.4,86.6c-37.1,37.1-66.2,80.3-86.6,128.4
		c-21.1,49.8-31.8,102.7-31.8,157.3s10.7,107.4,31.8,157.3c20.3,48.1,49.5,91.3,86.6,128.4c37.1,37.1,80.3,66.2,128.4,86.6
		c49.8,21.1,102.7,31.8,157.3,31.8s107.4-10.7,157.3-31.8c48.1-20.3,91.3-49.5,128.4-86.6c37.1-37.1,66.2-80.3,86.6-128.4
		c21.1-49.8,31.8-102.7,31.8-157.3S939.5,370.2,918.4,320.4z M850.5,643.7c-2.2-69.9-39.8-131-95.4-166.1
		c55.3-34.8,92.7-95.5,95.4-164.8c54.7,34.8,91.1,96,91.1,165.5C941.5,547.8,905.2,608.9,850.5,643.7z M646.6,846.4
		c-33.2,0-64.6-8.3-92-23c55.4-34.7,93-95.3,95.8-164.6c28.4,15,60.8,23.6,95.1,23.6c35.1,0,68.1-8.9,97-24.6
		C838.6,762.4,752.2,846.4,646.6,846.4z M250.8,657.9c28.5,15.1,61,23.7,95.4,23.7c34.9,0,67.8-8.8,96.6-24.3
		c2.3,70,40.1,131.2,95.9,166.1c-27.5,14.7-58.8,23-92,23C341.1,846.4,254.7,762.5,250.8,657.9z M150.2,477.6
		c0-70.1,37-131.8,92.5-166.4c2.1,70.1,39.7,131.3,95.4,166.4c-55.7,35.1-93.3,96.3-95.4,166.4C187.2,609.4,150.2,547.8,150.2,477.6
		z M446.6,109c33.2,0,64.6,8.3,92,23c-55.8,34.9-93.5,96.1-95.9,166c-28.8-15.5-61.7-24.3-96.6-24.3c-34.4,0-66.9,8.6-95.4,23.7
		C254.8,192.8,341.1,109,446.6,109z M842.5,298.9c-28.9-15.7-61.9-24.6-97-24.6c-34.3,0-66.6,8.5-95,23.5
		c-2.4-69.9-40.2-131-95.9-165.9c27.5-14.7,58.8-23,92-23C752.6,109,839.3,193.6,842.5,298.9z M354,477.7
		c27.6-14.9,59.1-23.3,92.6-23.3c31.4,0,61,7.4,87.3,20.6c1.4,0.9,2.8,1.8,4.2,2.7c-1.4,0.9-2.8,1.8-4.2,2.7
		c0,0-15.1,10.2-23.7,18.4c-41,36.9-67,90.2-67.6,149.4c-28.5,16.2-61.4,25.4-96.5,25.4c-34.7,0-67.3-9.1-95.5-24.9
		c0.6-70.6,38.7-132.4,95.2-166.4L354,477.7z M450.8,643.3c2.3-65,36.4-122,87.2-156c1.2-0.6,2.5-1.3,3.7-1.9c0,1.3,0.1,2.6,0.2,3.9
		c0,0,0.9,17.8,4,30.5c11.9,57.2,47.9,105.8,96.8,134.5c-1.4,69.9-39.6,131-95.9,164.5c-56.8-33.8-95.1-95.5-96-166.1L450.8,643.3z
		 M642.5,645c-52.8-32.8-89-89.9-92.7-155.6c0.1-1.6,0.2-3.2,0.2-4.8c1.7,0.9,3.5,1.8,5.3,2.7c0,0,9,5.4,27.7,11.4
		c20,6.6,41.4,10.2,63.6,10.2c36.6,0,71-9.7,100.7-26.7c56.5,34,94.6,95.7,95.2,166.2c-28.6,16.4-61.8,25.8-97.1,25.8
		c-34.4,0-66.8-8.9-94.9-24.6L642.5,645z M739.2,477.7c-27.6,14.9-59.1,23.3-92.6,23.3c-31.4,0-61-7.4-87.3-20.6
		c-1.4-0.9-2.8-1.8-4.2-2.7c1.4-0.9,2.8-1.8,4.2-2.7c0,0,20-14.3,23.7-18.4c41.1-37,67.1-90.3,67.6-149.7
		c28.1-15.6,60.5-24.6,94.9-24.6c35.3,0,68.4,9.4,97.1,25.8c-1.1,70-39,131.2-95.2,165L739.2,477.7z M545.9,436.1
		c-11.8-56.7-47.1-104.8-95.3-133.6c0.9-70.5,39.2-132.2,96-166c56.7,33.8,95,95.3,96,165.8l-0.1,9.4
		c-2.2,65.2-36.3,122.3-87.2,156.4c-1.8,0.9-3.5,1.8-5.3,2.7c0-1.4-0.1-2.8-0.2-4.2C549.9,466.5,549.1,449.3,545.9,436.1z
		 M510.2,456.5c-20-6.6-41.4-10.2-63.6-10.2c-36.6,0-71,9.7-100.7,26.7c-56.6-34.1-94.7-95.9-95.2-166.5
		c28.3-15.9,60.9-24.9,95.5-24.9c35,0,68,9.3,96.5,25.4l8.1,4.9c52,32.9,87.5,89.6,91.1,154.6c-0.1,1.1-0.1,2.3-0.2,3.4
		c-1.2-0.7-2.5-1.3-3.8-1.9C537.9,468,525.8,461.7,510.2,456.5z M911.1,323.5c10.9,25.8,19,52.5,24.2,79.9
		c-16.6-41.8-46.6-76.9-84.6-99.8c-0.3-46-16-88.5-42.1-122.5c6,5.3,11.9,10.9,17.7,16.6C862.6,234,891.1,276.3,911.1,323.5z
		 M674.5,102.9c-9.1-1.3-18.4-1.9-27.9-1.9c-36.3,0-70.4,9.5-100,26.2c-29.6-16.7-63.7-26.2-100-26.2c-10,0-19.8,0.7-29.4,2.1
		c41.3-14.3,84.6-21.5,128.9-21.5C590.3,81.6,633.4,88.8,674.5,102.9z M181.3,323.5c19.9-47.2,48.5-89.5,84.9-125.9
		c6.6-6.6,13.5-13,20.5-19.1c-27,34-43.3,76.9-44,123.4c-37.7,22.3-67.6,56.3-84.7,97C163.2,373.2,170.9,347.9,181.3,323.5z
		 M181.3,631.8c-10.3-24.5-18.1-49.7-23.3-75.5c17.1,40.7,47,74.8,84.7,97c0.7,46.4,16.9,89.2,43.8,123.2
		c-6.9-6-13.7-12.3-20.2-18.9C229.8,721.3,201.2,678.9,181.3,631.8z M417.7,852.3c9.5,1.3,19.1,2.1,28.9,2.1
		c36.3,0,70.4-9.5,100-26.2c29.6,16.7,63.7,26.2,100,26.2c9.3,0,18.5-0.6,27.5-1.9c-41,14-83.9,21.1-127.9,21.1
		C502,873.6,458.9,866.5,417.7,852.3z M911.1,631.8c-19.9,47.2-48.5,89.5-84.9,125.9c-5.7,5.7-11.5,11.1-17.5,16.4
		c25.7-33.7,41.3-75.5,41.8-121c37.7-22.8,67.5-57.4,84.2-98.6C929.5,580.9,921.6,606.7,911.1,631.8z"/>
</g>
<g id="Layer_26">
	<defs>
		<path id="SVGID_35_" d="M918.4,320.4c-20.3-48.1-49.5-91.3-86.6-128.4c-37.1-37.1-80.3-66.2-128.4-86.6
			c-49.8-21.1-102.7-31.8-157.3-31.8s-107.4,10.7-157.3,31.8c-48.1,20.3-91.3,49.5-128.4,86.6c-37.1,37.1-66.2,80.3-86.6,128.4
			c-21.1,49.8-31.8,102.7-31.8,157.3s10.7,107.4,31.8,157.3c20.3,48.1,49.5,91.3,86.6,128.4c37.1,37.1,80.3,66.2,128.4,86.6
			c49.8,21.1,102.7,31.8,157.3,31.8s107.4-10.7,157.3-31.8c48.1-20.3,91.3-49.5,128.4-86.6c37.1-37.1,66.2-80.3,86.6-128.4
			c21.1-49.8,31.8-102.7,31.8-157.3S939.5,370.2,918.4,320.4z M850.5,643.7c-2.2-69.9-39.8-131-95.4-166.1
			c55.3-34.8,92.7-95.5,95.4-164.8c54.7,34.8,91.1,96,91.1,165.5C941.5,547.8,905.2,608.9,850.5,643.7z M646.6,846.4
			c-33.2,0-64.6-8.3-92-23c55.4-34.7,93-95.3,95.8-164.6c28.4,15,60.8,23.6,95.1,23.6c35.1,0,68.1-8.9,97-24.6
			C838.6,762.4,752.2,846.4,646.6,846.4z M250.8,657.9c28.5,15.1,61,23.7,95.4,23.7c34.9,0,67.8-8.8,96.6-24.3
			c2.3,70,40.1,131.2,95.9,166.1c-27.5,14.7-58.8,23-92,23C341.1,846.4,254.7,762.5,250.8,657.9z M150.2,477.6
			c0-70.1,37-131.8,92.5-166.4c2.1,70.1,39.7,131.3,95.4,166.4c-55.7,35.1-93.3,96.3-95.4,166.4
			C187.2,609.4,150.2,547.8,150.2,477.6z M446.6,109c33.2,0,64.6,8.3,92,23c-55.8,34.9-93.5,96.1-95.9,166
			c-28.8-15.5-61.7-24.3-96.6-24.3c-34.4,0-66.9,8.6-95.4,23.7C254.8,192.8,341.1,109,446.6,109z M842.5,298.9
			c-28.9-15.7-61.9-24.6-97-24.6c-34.3,0-66.6,8.5-95,23.5c-2.4-69.9-40.2-131-95.9-165.9c27.5-14.7,58.8-23,92-23
			C752.6,109,839.3,193.6,842.5,298.9z M354,477.7c27.6-14.9,59.1-23.3,92.6-23.3c31.4,0,61,7.4,87.3,20.6c1.4,0.9,2.8,1.8,4.2,2.7
			c-1.4,0.9-2.8,1.8-4.2,2.7c0,0-15.1,10.2-23.7,18.4c-41,36.9-67,90.2-67.6,149.4c-28.5,16.2-61.4,25.4-96.5,25.4
			c-34.7,0-67.3-9.1-95.5-24.9c0.6-70.6,38.7-132.4,95.2-166.4L354,477.7z M450.8,643.3c2.3-65,36.4-122,87.2-156
			c1.2-0.6,2.5-1.3,3.7-1.9c0,1.3,0.1,2.6,0.2,3.9c0,0,0.9,17.8,4,30.5c11.9,57.2,47.9,105.8,96.8,134.5
			c-1.4,69.9-39.6,131-95.9,164.5c-56.8-33.8-95.1-95.5-96-166.1L450.8,643.3z M642.5,645c-52.8-32.8-89-89.9-92.7-155.6
			c0.1-1.6,0.2-3.2,0.2-4.8c1.7,0.9,3.5,1.8,5.3,2.7c0,0,9,5.4,27.7,11.4c20,6.6,41.4,10.2,63.6,10.2c36.6,0,71-9.7,100.7-26.7
			c56.5,34,94.6,95.7,95.2,166.2c-28.6,16.4-61.8,25.8-97.1,25.8c-34.4,0-66.8-8.9-94.9-24.6L642.5,645z M739.2,477.7
			c-27.6,14.9-59.1,23.3-92.6,23.3c-31.4,0-61-7.4-87.3-20.6c-1.4-0.9-2.8-1.8-4.2-2.7c1.4-0.9,2.8-1.8,4.2-2.7
			c0,0,20-14.3,23.7-18.4c41.1-37,67.1-90.3,67.6-149.7c28.1-15.6,60.5-24.6,94.9-24.6c35.3,0,68.4,9.4,97.1,25.8
			c-1.1,70-39,131.2-95.2,165L739.2,477.7z M545.9,436.1c-11.8-56.7-47.1-104.8-95.3-133.6c0.9-70.5,39.2-132.2,96-166
			c56.7,33.8,95,95.3,96,165.8l-0.1,9.4c-2.2,65.2-36.3,122.3-87.2,156.4c-1.8,0.9-3.5,1.8-5.3,2.7c0-1.4-0.1-2.8-0.2-4.2
			C549.9,466.5,549.1,449.3,545.9,436.1z M510.2,456.5c-20-6.6-41.4-10.2-63.6-10.2c-36.6,0-71,9.7-100.7,26.7
			c-56.6-34.1-94.7-95.9-95.2-166.5c28.3-15.9,60.9-24.9,95.5-24.9c35,0,68,9.3,96.5,25.4l8.1,4.9c52,32.9,87.5,89.6,91.1,154.6
			c-0.1,1.1-0.1,2.3-0.2,3.4c-1.2-0.7-2.5-1.3-3.8-1.9C537.9,468,525.8,461.7,510.2,456.5z M911.1,323.5
			c10.9,25.8,19,52.5,24.2,79.9c-16.6-41.8-46.6-76.9-84.6-99.8c-0.3-46-16-88.5-42.1-122.5c6,5.3,11.9,10.9,17.7,16.6
			C862.6,234,891.1,276.3,911.1,323.5z M674.5,102.9c-9.1-1.3-18.4-1.9-27.9-1.9c-36.3,0-70.4,9.5-100,26.2
			c-29.6-16.7-63.7-26.2-100-26.2c-10,0-19.8,0.7-29.4,2.1c41.3-14.3,84.6-21.5,128.9-21.5C590.3,81.6,633.4,88.8,674.5,102.9z
			 M181.3,323.5c19.9-47.2,48.5-89.5,84.9-125.9c6.6-6.6,13.5-13,20.5-19.1c-27,34-43.3,76.9-44,123.4c-37.7,22.3-67.6,56.3-84.7,97
			C163.2,373.2,170.9,347.9,181.3,323.5z M181.3,631.8c-10.3-24.5-18.1-49.7-23.3-75.5c17.1,40.7,47,74.8,84.7,97
			c0.7,46.4,16.9,89.2,43.8,123.2c-6.9-6-13.7-12.3-20.2-18.9C229.8,721.3,201.2,678.9,181.3,631.8z M417.7,852.3
			c9.5,1.3,19.1,2.1,28.9,2.1c36.3,0,70.4-9.5,100-26.2c29.6,16.7,63.7,26.2,100,26.2c9.3,0,18.5-0.6,27.5-1.9
			c-41,14-83.9,21.1-127.9,21.1C502,873.6,458.9,866.5,417.7,852.3z M911.1,631.8c-19.9,47.2-48.5,89.5-84.9,125.9
			c-5.7,5.7-11.5,11.1-17.5,16.4c25.7-33.7,41.3-75.5,41.8-121c37.7-22.8,67.5-57.4,84.2-98.6C929.5,580.9,921.6,606.7,911.1,631.8z
			"/>
	</defs>
	<clipPath id="SVGID_3_">
		<use xlink:href="#SVGID_35_"  style="overflow:visible;"/>
	</clipPath>
	<g style="opacity:0.48;clip-path:url(#SVGID_3_);">
		<linearGradient id="SVGID_4_" gradientUnits="userSpaceOnUse" x1="481.7271" y1="115.7413" x2="546.6116" y2="115.7413">
			<stop  offset="0" style="stop-color:#000000;stop-opacity:0"/>
			<stop  offset="1" style="stop-color:#000000"/>
		</linearGradient>
		<polygon class="st5" points="538.6,132 546.6,127.2 545.1,115.2 487,99.5 481.7,119.8 		"/>
		<path class="st18" d="M918.4,320.4c-20.3-48.1-49.5-91.3-86.6-128.4c-37.1-37.1-80.3-66.2-128.4-86.6
			c-49.8-21.1-102.7-31.8-157.3-31.8s-107.4,10.7-157.3,31.8c-48.1,20.3-91.3,49.5-128.4,86.6c-37.1,37.1-66.2,80.3-86.6,128.4
			c-21.1,49.8-31.8,102.7-31.8,157.3s10.7,107.4,31.8,157.3c20.3,48.1,49.5,91.3,86.6,128.4c37.1,37.1,80.3,66.2,128.4,86.6
			c49.8,21.1,102.7,31.8,157.3,31.8s107.4-10.7,157.3-31.8c48.1-20.3,91.3-49.5,128.4-86.6c37.1-37.1,66.2-80.3,86.6-128.4
			c21.1-49.8,31.8-102.7,31.8-157.3S939.5,370.2,918.4,320.4z M850.5,643.7c-2.2-69.9-39.8-131-95.4-166.1
			c55.3-34.8,92.7-95.5,95.4-164.8c54.7,34.8,91.1,96,91.1,165.5C941.5,547.8,905.2,608.9,850.5,643.7z M646.6,846.4
			c-33.2,0-64.6-8.3-92-23c55.4-34.7,93-95.3,95.8-164.6c28.4,15,60.8,23.6,95.1,23.6c35.1,0,68.1-8.9,97-24.6
			C838.6,762.4,752.2,846.4,646.6,846.4z M250.8,657.9c28.5,15.1,61,23.7,95.4,23.7c34.9,0,67.8-8.8,96.6-24.3
			c2.3,70,40.1,131.2,95.9,166.1c-27.5,14.7-58.8,23-92,23C341.1,846.4,254.7,762.5,250.8,657.9z M150.2,477.6
			c0-70.1,37-131.8,92.5-166.4c2.1,70.1,39.7,131.3,95.4,166.4c-55.7,35.1-93.3,96.3-95.4,166.4
			C187.2,609.4,150.2,547.8,150.2,477.6z M446.6,109c33.2,0,64.6,8.3,92,23c-55.8,34.9-93.5,96.1-95.9,166
			c-28.8-15.5-61.7-24.3-96.6-24.3c-34.4,0-66.9,8.6-95.4,23.7C254.8,192.8,341.1,109,446.6,109z M842.5,298.9
			c-28.9-15.7-61.9-24.6-97-24.6c-34.3,0-66.6,8.5-95,23.5c-2.4-69.9-40.2-131-95.9-165.9c27.5-14.7,58.8-23,92-23
			C752.6,109,839.3,193.6,842.5,298.9z M354,477.7c27.6-14.9,59.1-23.3,92.6-23.3c31.4,0,61,7.4,87.3,20.6c1.4,0.9,2.8,1.8,4.2,2.7
			c-1.4,0.9-2.8,1.8-4.2,2.7c0,0-15.1,10.2-23.7,18.4c-41,36.9-67,90.2-67.6,149.4c-28.5,16.2-61.4,25.4-96.5,25.4
			c-34.7,0-67.3-9.1-95.5-24.9c0.6-70.6,38.7-132.4,95.2-166.4L354,477.7z M450.8,643.3c2.3-65,36.4-122,87.2-156
			c1.2-0.6,2.5-1.3,3.7-1.9c0,1.3,0.1,2.6,0.2,3.9c0,0,0.9,17.8,4,30.5c11.9,57.2,47.9,105.8,96.8,134.5
			c-1.4,69.9-39.6,131-95.9,164.5c-56.8-33.8-95.1-95.5-96-166.1L450.8,643.3z M642.5,645c-52.8-32.8-89-89.9-92.7-155.6
			c0.1-1.6,0.2-3.2,0.2-4.8c1.7,0.9,3.5,1.8,5.3,2.7c0,0,9,5.4,27.7,11.4c20,6.6,41.4,10.2,63.6,10.2c36.6,0,71-9.7,100.7-26.7
			c56.5,34,94.6,95.7,95.2,166.2c-28.6,16.4-61.8,25.8-97.1,25.8c-34.4,0-66.8-8.9-94.9-24.6L642.5,645z M739.2,477.7
			c-27.6,14.9-59.1,23.3-92.6,23.3c-31.4,0-61-7.4-87.3-20.6c-1.4-0.9-2.8-1.8-4.2-2.7c1.4-0.9,2.8-1.8,4.2-2.7
			c0,0,20-14.3,23.7-18.4c41.1-37,67.1-90.3,67.6-149.7c28.1-15.6,60.5-24.6,94.9-24.6c35.3,0,68.4,9.4,97.1,25.8
			c-1.1,70-39,131.2-95.2,165L739.2,477.7z M545.9,436.1c-11.8-56.7-47.1-104.8-95.3-133.6c0.9-70.5,39.2-132.2,96-166
			c56.7,33.8,95,95.3,96,165.8l-0.1,9.4c-2.2,65.2-36.3,122.3-87.2,156.4c-1.8,0.9-3.5,1.8-5.3,2.7c0-1.4-0.1-2.8-0.2-4.2
			C549.9,466.5,549.1,449.3,545.9,436.1z M510.2,456.5c-20-6.6-41.4-10.2-63.6-10.2c-36.6,0-71,9.7-100.7,26.7
			c-56.6-34.1-94.7-95.9-95.2-166.5c28.3-15.9,60.9-24.9,95.5-24.9c35,0,68,9.3,96.5,25.4l8.1,4.9c52,32.9,87.5,89.6,91.1,154.6
			c-0.1,1.1-0.1,2.3-0.2,3.4c-1.2-0.7-2.5-1.3-3.8-1.9C537.9,468,525.8,461.7,510.2,456.5z M911.1,323.5
			c10.9,25.8,19,52.5,24.2,79.9c-16.6-41.8-46.6-76.9-84.6-99.8c-0.3-46-16-88.5-42.1-122.5c6,5.3,11.9,10.9,17.7,16.6
			C862.6,234,891.1,276.3,911.1,323.5z M674.5,102.9c-9.1-1.3-18.4-1.9-27.9-1.9c-36.3,0-70.4,9.5-100,26.2
			c-29.6-16.7-63.7-26.2-100-26.2c-10,0-19.8,0.7-29.4,2.1c41.3-14.3,84.6-21.5,128.9-21.5C590.3,81.6,633.4,88.8,674.5,102.9z
			 M181.3,323.5c19.9-47.2,48.5-89.5,84.9-125.9c6.6-6.6,13.5-13,20.5-19.1c-27,34-43.3,76.9-44,123.4c-37.7,22.3-67.6,56.3-84.7,97
			C163.2,373.2,170.9,347.9,181.3,323.5z M181.3,631.8c-10.3-24.5-18.1-49.7-23.3-75.5c17.1,40.7,47,74.8,84.7,97
			c0.7,46.4,16.9,89.2,43.8,123.2c-6.9-6-13.7-12.3-20.2-18.9C229.8,721.3,201.2,678.9,181.3,631.8z M417.7,852.3
			c9.5,1.3,19.1,2.1,28.9,2.1c36.3,0,70.4-9.5,100-26.2c29.6,16.7,63.7,26.2,100,26.2c9.3,0,18.5-0.6,27.5-1.9
			c-41,14-83.9,21.1-127.9,21.1C502,873.6,458.9,866.5,417.7,852.3z M911.1,631.8c-19.9,47.2-48.5,89.5-84.9,125.9
			c-5.7,5.7-11.5,11.1-17.5,16.4c25.7-33.7,41.3-75.5,41.8-121c37.7-22.8,67.5-57.4,84.2-98.6C929.5,580.9,921.6,606.7,911.1,631.8z
			"/>
		
			<linearGradient id="SVGID_5_" gradientUnits="userSpaceOnUse" x1="-2732.6218" y1="-4872.0137" x2="-2786.8076" y2="-4903.2979" gradientTransform="matrix(0.3767 0.9263 -0.9263 0.3767 -2644.3745 4737.5229)">
			<stop  offset="0" style="stop-color:#000000;stop-opacity:0"/>
			<stop  offset="1" style="stop-color:#000000"/>
		</linearGradient>
		<path class="st6" d="M852.5,354.8c0,0,2-37.7-2-42l-7.9-4.8c0,0-8.4,31.2-12.2,46.2C830.4,354.3,835.5,391,852.5,354.8z"/>
		<linearGradient id="SVGID_6_" gradientUnits="userSpaceOnUse" x1="325.489" y1="303.5254" x2="266.3424" y2="269.3771">
			<stop  offset="0" style="stop-color:#000000;stop-opacity:0"/>
			<stop  offset="1" style="stop-color:#000000"/>
		</linearGradient>
		<path class="st7" d="M250.8,297.4l-0.1,9.2c0,0,52.2-14.3,72-15.5c19.8-1.2,28-32.9,3.5-28C251.5,278.2,250.8,297.4,250.8,297.4z"
			/>
		
			<linearGradient id="SVGID_7_" gradientUnits="userSpaceOnUse" x1="-9591.4932" y1="-3494.0474" x2="-9645.3809" y2="-3525.1597" gradientTransform="matrix(-0.7071 0.7071 -0.7071 -0.7071 -9065.2939 4648.3481)">
			<stop  offset="0" style="stop-color:#000000;stop-opacity:0"/>
			<stop  offset="1" style="stop-color:#000000"/>
		</linearGradient>
		<path class="st10" d="M242.7,311.2l-0.1-9.3c0,0-25.5,5.4-47,27.6c-13.8,14.2-0.7,36.6,14,16.3
			C230.6,316.7,242.7,311.2,242.7,311.2z"/>
		
			<linearGradient id="SVGID_8_" gradientUnits="userSpaceOnUse" x1="-1235.6897" y1="4672.7158" x2="-1269.8981" y2="4652.9653" gradientTransform="matrix(0.7084 -0.7058 0.7058 0.7084 -2149.8152 -3579.0066)">
			<stop  offset="0" style="stop-color:#000000;stop-opacity:0"/>
			<stop  offset="1" style="stop-color:#000000"/>
		</linearGradient>
		<path class="st11" d="M242.7,644l7.9,4.7c0,0,7.4-34.5,15.5-52.6c7-15.5-10.8-42.4-16.5-18C240.2,618.6,242.7,644,242.7,644z"/>
		
			<linearGradient id="SVGID_9_" gradientUnits="userSpaceOnUse" x1="-5413.981" y1="-5517.7344" x2="-5457.9614" y2="-5543.1265" gradientTransform="matrix(-1.853902e-03 1 -1 -1.853902e-03 -5291.0391 6112.1958)">
			<stop  offset="0" style="stop-color:#000000;stop-opacity:0"/>
			<stop  offset="1" style="stop-color:#000000"/>
		</linearGradient>
		<path class="st12" d="M250.8,657.9l-8.1-4.6c-7.2,11.7-1.8,17.1-1,45.8c0.6,19.8,22.5,27.7,18.5,3
			C254.5,666.7,250.8,657.9,250.8,657.9z"/>
		
			<linearGradient id="SVGID_10_" gradientUnits="userSpaceOnUse" x1="-10574.374" y1="1921.7097" x2="-10514.0645" y2="1921.7097" gradientTransform="matrix(-0.9593 -0.2825 0.2825 -0.9593 -10084.8945 -980.6185)">
			<stop  offset="0" style="stop-color:#000000;stop-opacity:0"/>
			<stop  offset="1" style="stop-color:#000000"/>
		</linearGradient>
		<polygon class="st13" points="554.6,132 546.6,136.5 587.2,176 603.8,155.6 		"/>
		
			<linearGradient id="SVGID_11_" gradientUnits="userSpaceOnUse" x1="-5528.0063" y1="-5523.749" x2="-5473.1011" y2="-5523.749" gradientTransform="matrix(-5.129634e-03 1 -1 -5.129634e-03 -4709.0151 5748.1582)">
			<stop  offset="0" style="stop-color:#000000;stop-opacity:0"/>
			<stop  offset="1" style="stop-color:#000000"/>
		</linearGradient>
		<polygon class="st14" points="842.5,298.9 850.6,303.5 853.4,248.6 832.6,249.5 		"/>
		
			<linearGradient id="SVGID_12_" gradientUnits="userSpaceOnUse" x1="-93.8588" y1="-2107.334" x2="-140.4605" y2="-2134.2395" gradientTransform="matrix(0.9203 0.3912 -0.3912 0.9203 -142.7547 2835.0479)">
			<stop  offset="0" style="stop-color:#000000;stop-opacity:0"/>
			<stop  offset="1" style="stop-color:#000000"/>
		</linearGradient>
		<path class="st15" d="M554.6,823.4l-8,4.7c8,11.2,20.3,17.7,43.1,25c20.3,6.5,25.5-15,4.5-22C559,819.4,554.6,823.4,554.6,823.4z"
			/>
		
			<linearGradient id="SVGID_13_" gradientUnits="userSpaceOnUse" x1="-10003.1572" y1="3270.7551" x2="-10050.1709" y2="3243.6118" gradientTransform="matrix(-0.8503 -0.5263 0.5263 -0.8503 -9721.6377 -1703.6587)">
			<stop  offset="0" style="stop-color:#000000;stop-opacity:0"/>
			<stop  offset="1" style="stop-color:#000000"/>
		</linearGradient>
		<path class="st21" d="M538.6,823.4l8-4.5c-6.2-12.3-16.4-15.3-30.4-29.8c-14.8-15.3-32.2-0.3-18,11
			C527.2,823.2,538.6,823.4,538.6,823.4z"/>
		
			<linearGradient id="SVGID_14_" gradientUnits="userSpaceOnUse" x1="-8608.5645" y1="-3802.2651" x2="-8651.624" y2="-3827.1252" gradientTransform="matrix(-0.561 0.8278 -0.8278 -0.561 -7360.9385 5695.1216)">
			<stop  offset="0" style="stop-color:#000000;stop-opacity:0"/>
			<stop  offset="1" style="stop-color:#000000"/>
		</linearGradient>
		<path class="st22" d="M650.4,658.7l-7.9-4.4c0,0-7.1,32.6-15.1,59.9c-5.5,19,13,18.2,18,2C655.1,685.3,650.4,658.7,650.4,658.7z"
			/>
		
			<linearGradient id="SVGID_15_" gradientUnits="userSpaceOnUse" x1="-2958.7625" y1="-4220.8447" x2="-3001.9788" y2="-4245.7954" gradientTransform="matrix(0.4787 0.878 -0.878 0.4787 -1511.6373 5146.3345)">
			<stop  offset="0" style="stop-color:#000000;stop-opacity:0"/>
			<stop  offset="1" style="stop-color:#000000"/>
		</linearGradient>
		<path class="st23" d="M755.1,477.7l-7.7,4.6c0,0,25.8,21.8,46.4,41.4c14.4,13.6,22.1-3.2,10-15.1
			C780.7,485.8,755.1,477.7,755.1,477.7z"/>
		
			<linearGradient id="SVGID_16_" gradientUnits="userSpaceOnUse" x1="-139.7573" y1="857.1344" x2="-184.0802" y2="831.5445" gradientTransform="matrix(0.9995 -3.052263e-02 3.052263e-02 0.9995 818.8621 -557.1422)">
			<stop  offset="0" style="stop-color:#000000;stop-opacity:0"/>
			<stop  offset="1" style="stop-color:#000000"/>
		</linearGradient>
		<path class="st24" d="M650.5,297.8l0.1,9c0,0,29.5-9.3,57.1-16.2c14-3.5,10.1-20.9-6-15.5C670.9,285.5,650.5,297.8,650.5,297.8z"
			/>
		
			<linearGradient id="SVGID_17_" gradientUnits="userSpaceOnUse" x1="-4334.4072" y1="6163.7271" x2="-4385.9453" y2="6133.9712" gradientTransform="matrix(0.2887 -0.9574 0.9574 0.2887 -4175.7363 -5684.2422)">
			<stop  offset="0" style="stop-color:#000000;stop-opacity:0"/>
			<stop  offset="1" style="stop-color:#000000"/>
		</linearGradient>
		<path class="st25" d="M442.7,298l7.9,4.5c0,0,5.5-31.4,13-58.8c4-14.5-11.3-22-15.5-5.5C439.2,273.6,442.7,298,442.7,298z"/>
		
			<linearGradient id="SVGID_18_" gradientUnits="userSpaceOnUse" x1="-10014.2695" y1="4998.8096" x2="-10066.4443" y2="4968.687" gradientTransform="matrix(-0.6676 -0.7446 0.7446 -0.6676 -10098.3545 -3696.9719)">
			<stop  offset="0" style="stop-color:#000000;stop-opacity:0"/>
			<stop  offset="1" style="stop-color:#000000"/>
		</linearGradient>
		<path class="st26" d="M338.2,477.7l7.7-4.6c0,0-24.8-21.3-44.3-42c-10.3-11-24.7-1.8-12.8,10.4
			C314.5,467.5,338.2,477.7,338.2,477.7z"/>
		
			<linearGradient id="SVGID_19_" gradientUnits="userSpaceOnUse" x1="-8170.0469" y1="-3770.4189" x2="-8222.1416" y2="-3800.4958" gradientTransform="matrix(-0.6362 0.7715 -0.7715 -0.6362 -7318.8203 4578.7437)">
			<stop  offset="0" style="stop-color:#000000;stop-opacity:0"/>
			<stop  offset="1" style="stop-color:#000000"/>
		</linearGradient>
		<path class="st27" d="M810.6,677c0,0,30-13.8,31.8-19.3l0.1-9.2c0,0-32.4,6.9-44.2,10.2C798.4,658.7,769.8,688.8,810.6,677z"/>
		
			<linearGradient id="SVGID_20_" gradientUnits="userSpaceOnUse" x1="-10130.8857" y1="-2428.7083" x2="-10076.9209" y2="-2428.7083" gradientTransform="matrix(-0.8824 0.4705 -0.4705 -0.8824 -9188.8623 3241.9307)">
			<stop  offset="0" style="stop-color:#000000;stop-opacity:0"/>
			<stop  offset="1" style="stop-color:#000000"/>
		</linearGradient>
		<polygon class="st28" points="850.5,643.7 850.6,653.1 899,629.1 886.7,608.9 		"/>
		
			<linearGradient id="SVGID_21_" gradientUnits="userSpaceOnUse" x1="-11959.7695" y1="-991.7791" x2="-12018.9307" y2="-1025.9354" gradientTransform="matrix(-0.9549 0.2968 -0.2968 -0.9549 -11342.624 3261.4397)">
			<stop  offset="0" style="stop-color:#000000;stop-opacity:0"/>
			<stop  offset="1" style="stop-color:#000000"/>
		</linearGradient>
		<path class="st29" d="M442.7,657.3l-0.1-9.1c0,0-29.1,15.3-57.5,17.4c-19.5,1.5-25.1,24.2-2.5,18C418,674,442.7,657.3,442.7,657.3
			z"/>
	</g>
</g>
</svg>
