<?xml version="1.0" encoding="utf-8"?>
<!-- Generator: Adobe Illustrator 22.1.0, SVG Export Plug-In . SVG Version: 6.00 Build 0)  -->
<svg version="1.1" xmlns="http://www.w3.org/2000/svg" xmlns:xlink="http://www.w3.org/1999/xlink" x="0px" y="0px"
	 viewBox="0 0 1111 1111" style="enable-background:new 0 0 1111 1111;" xml:space="preserve">
<style type="text/css">
	.st0{display:none;}
	.st1{display:inline;}
	.st2{fill:url(#SVGID_1_);}
	.st3{fill:url(#SVGID_2_);}
	.st4{fill:url(#SVGID_3_);}
	.st5{fill:url(#SVGID_4_);}
	.st6{fill:url(#SVGID_5_);}
	.st7{fill:url(#SVGID_6_);}
	.st8{display:inline;fill:none;}
	.st9{display:inline;fill:none;stroke:#FFFFFF;stroke-width:2.126;stroke-miterlimit:10;}
	.st10{fill:url(#SVGID_7_);}
	.st11{fill:url(#SVGID_8_);}
	.st12{fill:url(#SVGID_9_);}
	.st13{fill:url(#SVGID_10_);}
	.st14{fill:url(#SVGID_11_);}
	.st15{fill:url(#SVGID_12_);}
	.st16{fill:#958757;}
	.st17{opacity:0.48;}
	.st18{fill:none;}
	.st19{fill:#09D1AA;}
	.st20{font-family:'Optima-Regular';}
	.st21{font-size:60px;}
	.st22{letter-spacing:46;}
	.st23{fill:#2B2B2B;}
	.st24{fill:url(#SVGID_13_);}
	.st25{fill:url(#SVGID_14_);}
	.st26{fill:url(#SVGID_15_);}
	.st27{fill:url(#SVGID_16_);}
	.st28{fill:url(#SVGID_17_);}
	.st29{fill:url(#SVGID_18_);}
	.st30{fill:url(#SVGID_19_);}
	.st31{fill:url(#SVGID_20_);}
	.st32{fill:url(#SVGID_21_);}
	.st33{fill:url(#SVGID_22_);}
	.st34{fill:url(#SVGID_23_);}
	.st35{fill:url(#SVGID_24_);}
	.st36{fill:url(#SVGID_25_);}
	.st37{fill:url(#SVGID_26_);}
	.st38{fill:url(#SVGID_27_);}
	.st39{fill:url(#SVGID_28_);}
	.st40{fill:url(#SVGID_29_);}
	.st41{fill:url(#SVGID_30_);}
	.st42{fill:url(#SVGID_31_);}
	.st43{fill:#FFFFFF;}
	.st44{fill:url(#SVGID_32_);}
	.st45{clip-path:url(#SVGID_34_);}
	.st46{opacity:0.48;clip-path:url(#SVGID_36_);}
	.st47{fill:url(#SVGID_37_);}
	.st48{fill:url(#SVGID_38_);}
	.st49{fill:url(#SVGID_39_);}
	.st50{fill:url(#SVGID_40_);}
	.st51{fill:url(#SVGID_41_);}
	.st52{fill:url(#SVGID_42_);}
	.st53{fill:url(#SVGID_43_);}
	.st54{fill:url(#SVGID_44_);}
	.st55{fill:url(#SVGID_45_);}
	.st56{fill:url(#SVGID_46_);}
	.st57{fill:url(#SVGID_47_);}
	.st58{fill:url(#SVGID_48_);}
	.st59{fill:url(#SVGID_49_);}
	.st60{fill:url(#SVGID_50_);}
	.st61{fill:url(#SVGID_51_);}
	.st62{fill:url(#SVGID_52_);}
	.st63{fill:url(#SVGID_53_);}
	.st64{fill:url(#SVGID_54_);}
</style>
<g id="Layer_13">
</g>
<g id="mandala">
	<g id="ROUND_BG">
	</g>
	<g id="OG" class="st0">
	</g>
	<g id="Layer_6_copy">
	</g>
	<g id="gradient">
	</g>
	<g id="GREEN" class="st0">
	</g>
	<g id="Layer_8" class="st0">
	</g>
	<g id="Layer_9">
	</g>
</g>
<g id="mandala_copy">
	<g id="ROUND_BG_copy">
	</g>
	<g id="OG_copy" class="st0">
	</g>
	<g id="Layer_6_copy_2">
	</g>
	<g id="gradient_copy">
	</g>
	<g id="GREEN_copy" class="st0">
	</g>
	<g id="Layer_8_copy" class="st0">
	</g>
	<g id="Layer_9_copy">
	</g>
</g>
<g id="Layer_7">
</g>
<g id="Layer_20">
</g>
<g id="Layer_19">
	<path class="st16" d="M927.8,307.3c-20.3-48.1-49.5-91.3-86.6-128.4c-37.1-37.1-80.3-66.2-128.4-86.6
		C662.9,71.2,610,60.6,555.5,60.6S448.1,71.2,398.2,92.3c-48.1,20.3-91.3,49.5-128.4,86.6c-37.1,37.1-66.2,80.3-86.6,128.4
		c-21.1,49.8-31.8,102.7-31.8,157.3s10.7,107.4,31.8,157.3c20.3,48.1,49.5,91.3,86.6,128.4c37.1,37.1,80.3,66.2,128.4,86.6
		c49.8,21.1,102.7,31.8,157.3,31.8s107.4-10.7,157.3-31.8c48.1-20.3,91.3-49.5,128.4-86.6c37.1-37.1,66.2-80.3,86.6-128.4
		c21.1-49.8,31.8-102.7,31.8-157.3S948.8,357.1,927.8,307.3z M859.8,630.7c-2.2-69.9-39.8-131-95.4-166.1
		c55.3-34.8,92.7-95.5,95.4-164.8c54.7,34.8,91.1,96,91.1,165.5C950.8,534.7,914.5,595.9,859.8,630.7z M655.9,833.3
		c-33.2,0-64.6-8.3-92-23c55.4-34.7,93-95.3,95.8-164.6c28.4,15,60.8,23.6,95.1,23.6c35.1,0,68.1-8.9,97-24.6
		C847.9,749.4,761.5,833.3,655.9,833.3z M260.1,644.8c28.5,15.1,61,23.7,95.4,23.7c34.9,0,67.8-8.8,96.6-24.3
		c2.3,70,40.1,131.2,95.9,166.1c-27.5,14.7-58.8,23-92,23C350.4,833.3,264.1,749.4,260.1,644.8z M159.5,464.6
		c0-70.1,37-131.8,92.5-166.4c2.1,70.1,39.7,131.3,95.4,166.4c-55.7,35.1-93.3,96.3-95.4,166.4C196.5,596.3,159.5,534.7,159.5,464.6
		z M455.9,95.9c33.2,0,64.6,8.3,92,23c-55.8,34.9-93.5,96.1-95.9,166c-28.8-15.5-61.7-24.3-96.6-24.3c-34.4,0-66.9,8.6-95.4,23.7
		C264.1,179.7,350.4,95.9,455.9,95.9z M851.8,285.8c-28.9-15.7-61.9-24.6-97-24.6c-34.3,0-66.6,8.5-95,23.5
		c-2.4-69.9-40.2-131-95.9-165.9c27.5-14.7,58.8-23,92-23C762,95.9,848.6,180.5,851.8,285.8z M363.3,464.6
		c27.6-14.9,59.1-23.3,92.6-23.3c31.4,0,61,7.4,87.3,20.6c1.4,0.9,2.8,1.8,4.2,2.7c-1.4,0.9-2.8,1.8-4.2,2.7
		c0,0-15.1,10.2-23.7,18.4c-41,36.9-67,90.2-67.6,149.4c-28.5,16.2-61.4,25.4-96.5,25.4c-34.7,0-67.3-9.1-95.5-24.9
		c0.6-70.6,38.7-132.4,95.2-166.4L363.3,464.6z M460.1,630.3c2.3-65,36.4-122,87.2-156c1.2-0.6,2.5-1.3,3.7-1.9
		c0,1.3,0.1,2.6,0.2,3.9c0,0,0.9,17.8,4,30.5C567,564,603,612.6,651.9,641.3c-1.4,69.9-39.6,131-95.9,164.5
		c-56.8-33.8-95.1-95.5-96-166.1L460.1,630.3z M651.9,631.9c-52.8-32.8-89-89.9-92.7-155.6c0.1-1.6,0.2-3.2,0.2-4.8
		c1.7,0.9,3.5,1.8,5.3,2.7c0,0,9,5.4,27.7,11.4c20,6.6,41.4,10.2,63.6,10.2c36.6,0,71-9.7,100.7-26.7c56.5,34,94.6,95.7,95.2,166.2
		c-28.6,16.4-61.8,25.8-97.1,25.8c-34.4,0-66.8-8.9-94.9-24.6L651.9,631.9z M748.5,464.6c-27.6,14.9-59.1,23.3-92.6,23.3
		c-31.4,0-61-7.4-87.3-20.6c-1.4-0.9-2.8-1.8-4.2-2.7c1.4-0.9,2.8-1.8,4.2-2.7c0,0,20-14.3,23.7-18.4c41.1-37,67.1-90.3,67.6-149.7
		c28.1-15.6,60.5-24.6,94.9-24.6c35.3,0,68.4,9.4,97.1,25.8c-1.1,70-39,131.2-95.2,165L748.5,464.6z M555.2,423
		c-11.8-56.7-47.1-104.8-95.3-133.6c0.9-70.5,39.2-132.2,96-166c56.7,33.8,95,95.3,96,165.8l-0.1,9.4
		c-2.2,65.2-36.3,122.3-87.2,156.4c-1.8,0.9-3.5,1.8-5.3,2.7c0-1.4-0.1-2.8-0.2-4.2C559.2,453.5,558.5,436.3,555.2,423z
		 M519.6,443.5c-20-6.6-41.4-10.2-63.6-10.2c-36.6,0-71,9.7-100.7,26.7c-56.6-34.1-94.7-95.9-95.2-166.5
		c28.3-15.9,60.9-24.9,95.5-24.9c35,0,68,9.3,96.5,25.4l8.1,4.9c52,32.9,87.5,89.6,91.1,154.6c-0.1,1.1-0.1,2.3-0.2,3.4
		c-1.2-0.7-2.5-1.3-3.8-1.9C547.3,454.9,535.2,448.6,519.6,443.5z M920.4,310.4c10.9,25.8,19,52.5,24.2,79.9
		c-16.6-41.8-46.6-76.9-84.6-99.8c-0.3-46-16-88.5-42.1-122.5c6,5.3,11.9,10.9,17.7,16.6C871.9,220.9,900.4,263.3,920.4,310.4z
		 M683.8,89.8c-9.1-1.3-18.4-1.9-27.9-1.9c-36.3,0-70.4,9.5-100,26.2c-29.6-16.7-63.7-26.2-100-26.2c-10,0-19.8,0.7-29.4,2.1
		c41.3-14.3,84.6-21.5,128.9-21.5C599.6,68.6,642.7,75.7,683.8,89.8z M190.6,310.4c19.9-47.2,48.5-89.5,84.9-125.9
		c6.6-6.6,13.5-13,20.5-19.1c-27,34-43.3,76.9-44,123.4c-37.7,22.3-67.6,56.3-84.7,97C172.5,360.1,180.3,334.9,190.6,310.4z
		 M190.6,618.7c-10.3-24.5-18.1-49.7-23.3-75.5c17.1,40.7,47,74.8,84.7,97c0.7,46.4,16.9,89.2,43.8,123.2
		c-6.9-6-13.7-12.3-20.2-18.9C239.1,708.2,210.6,665.9,190.6,618.7z M427,839.3c9.5,1.3,19.1,2.1,28.9,2.1c36.3,0,70.4-9.5,100-26.2
		c29.6,16.7,63.7,26.2,100,26.2c9.3,0,18.5-0.6,27.5-1.9c-41,14-83.9,21.1-127.9,21.1C511.3,860.6,468.2,853.4,427,839.3z
		 M920.4,618.7c-19.9,47.2-48.5,89.5-84.9,125.9c-5.7,5.7-11.5,11.1-17.5,16.4c25.7-33.7,41.3-75.5,41.8-121
		c37.7-22.8,67.5-57.4,84.2-98.6C938.9,567.8,931,593.7,920.4,618.7z"/>
	<g class="st17">
		<path class="st18" d="M927.8,307.3c-20.3-48.1-49.5-91.3-86.6-128.4c-37.1-37.1-80.3-66.2-128.4-86.6
			C662.9,71.2,610,60.6,555.5,60.6S448.1,71.2,398.2,92.3c-48.1,20.3-91.3,49.5-128.4,86.6c-37.1,37.1-66.2,80.3-86.6,128.4
			c-21.1,49.8-31.8,102.7-31.8,157.3s10.7,107.4,31.8,157.3c20.3,48.1,49.5,91.3,86.6,128.4c37.1,37.1,80.3,66.2,128.4,86.6
			c49.8,21.1,102.7,31.8,157.3,31.8s107.4-10.7,157.3-31.8c48.1-20.3,91.3-49.5,128.4-86.6c37.1-37.1,66.2-80.3,86.6-128.4
			c21.1-49.8,31.8-102.7,31.8-157.3S948.8,357.1,927.8,307.3z M859.8,630.7c-2.2-69.9-39.8-131-95.4-166.1
			c55.3-34.8,92.7-95.5,95.4-164.8c54.7,34.8,91.1,96,91.1,165.5C950.8,534.7,914.5,595.9,859.8,630.7z M655.9,833.3
			c-33.2,0-64.6-8.3-92-23c55.4-34.7,93-95.3,95.8-164.6c28.4,15,60.8,23.6,95.1,23.6c35.1,0,68.1-8.9,97-24.6
			C847.9,749.4,761.5,833.3,655.9,833.3z M260.1,644.8c28.5,15.1,61,23.7,95.4,23.7c34.9,0,67.8-8.8,96.6-24.3
			c2.3,70,40.1,131.2,95.9,166.1c-27.5,14.7-58.8,23-92,23C350.4,833.3,264.1,749.4,260.1,644.8z M159.5,464.6
			c0-70.1,37-131.8,92.5-166.4c2.1,70.1,39.7,131.3,95.4,166.4c-55.7,35.1-93.3,96.3-95.4,166.4
			C196.5,596.3,159.5,534.7,159.5,464.6z M455.9,95.9c33.2,0,64.6,8.3,92,23c-55.8,34.9-93.5,96.1-95.9,166
			c-28.8-15.5-61.7-24.3-96.6-24.3c-34.4,0-66.9,8.6-95.4,23.7C264.1,179.7,350.4,95.9,455.9,95.9z M851.8,285.8
			c-28.9-15.7-61.9-24.6-97-24.6c-34.3,0-66.6,8.5-95,23.5c-2.4-69.9-40.2-131-95.9-165.9c27.5-14.7,58.8-23,92-23
			C762,95.9,848.6,180.5,851.8,285.8z M363.3,464.6c27.6-14.9,59.1-23.3,92.6-23.3c31.4,0,61,7.4,87.3,20.6c1.4,0.9,2.8,1.8,4.2,2.7
			c-1.4,0.9-2.8,1.8-4.2,2.7c0,0-15.1,10.2-23.7,18.4c-41,36.9-67,90.2-67.6,149.4c-28.5,16.2-61.4,25.4-96.5,25.4
			c-34.7,0-67.3-9.1-95.5-24.9c0.6-70.6,38.7-132.4,95.2-166.4L363.3,464.6z M460.1,630.3c2.3-65,36.4-122,87.2-156
			c1.2-0.6,2.5-1.3,3.7-1.9c0,1.3,0.1,2.6,0.2,3.9c0,0,0.9,17.8,4,30.5C567,564,603,612.6,651.9,641.3
			c-1.4,69.9-39.6,131-95.9,164.5c-56.8-33.8-95.1-95.5-96-166.1L460.1,630.3z M651.9,631.9c-52.8-32.8-89-89.9-92.7-155.6
			c0.1-1.6,0.2-3.2,0.2-4.8c1.7,0.9,3.5,1.8,5.3,2.7c0,0,9,5.4,27.7,11.4c20,6.6,41.4,10.2,63.6,10.2c36.6,0,71-9.7,100.7-26.7
			c56.5,34,94.6,95.7,95.2,166.2c-28.6,16.4-61.8,25.8-97.1,25.8c-34.4,0-66.8-8.9-94.9-24.6L651.9,631.9z M748.5,464.6
			c-27.6,14.9-59.1,23.3-92.6,23.3c-31.4,0-61-7.4-87.3-20.6c-1.4-0.9-2.8-1.8-4.2-2.7c1.4-0.9,2.8-1.8,4.2-2.7
			c0,0,20-14.3,23.7-18.4c41.1-37,67.1-90.3,67.6-149.7c28.1-15.6,60.5-24.6,94.9-24.6c35.3,0,68.4,9.4,97.1,25.8
			c-1.1,70-39,131.2-95.2,165L748.5,464.6z M555.2,423c-11.8-56.7-47.1-104.8-95.3-133.6c0.9-70.5,39.2-132.2,96-166
			c56.7,33.8,95,95.3,96,165.8l-0.1,9.4c-2.2,65.2-36.3,122.3-87.2,156.4c-1.8,0.9-3.5,1.8-5.3,2.7c0-1.4-0.1-2.8-0.2-4.2
			C559.2,453.5,558.5,436.3,555.2,423z M519.6,443.5c-20-6.6-41.4-10.2-63.6-10.2c-36.6,0-71,9.7-100.7,26.7
			c-56.6-34.1-94.7-95.9-95.2-166.5c28.3-15.9,60.9-24.9,95.5-24.9c35,0,68,9.3,96.5,25.4l8.1,4.9c52,32.9,87.5,89.6,91.1,154.6
			c-0.1,1.1-0.1,2.3-0.2,3.4c-1.2-0.7-2.5-1.3-3.8-1.9C547.3,454.9,535.2,448.6,519.6,443.5z M920.4,310.4
			c10.9,25.8,19,52.5,24.2,79.9c-16.6-41.8-46.6-76.9-84.6-99.8c-0.3-46-16-88.5-42.1-122.5c6,5.3,11.9,10.9,17.7,16.6
			C871.9,220.9,900.4,263.3,920.4,310.4z M683.8,89.8c-9.1-1.3-18.4-1.9-27.9-1.9c-36.3,0-70.4,9.5-100,26.2
			c-29.6-16.7-63.7-26.2-100-26.2c-10,0-19.8,0.7-29.4,2.1c41.3-14.3,84.6-21.5,128.9-21.5C599.6,68.6,642.7,75.7,683.8,89.8z
			 M190.6,310.4c19.9-47.2,48.5-89.5,84.9-125.9c6.6-6.6,13.5-13,20.5-19.1c-27,34-43.3,76.9-44,123.4c-37.7,22.3-67.6,56.3-84.7,97
			C172.5,360.1,180.3,334.9,190.6,310.4z M190.6,618.7c-10.3-24.5-18.1-49.7-23.3-75.5c17.1,40.7,47,74.8,84.7,97
			c0.7,46.4,16.9,89.2,43.8,123.2c-6.9-6-13.7-12.3-20.2-18.9C239.1,708.2,210.6,665.9,190.6,618.7z M427,839.3
			c9.5,1.3,19.1,2.1,28.9,2.1c36.3,0,70.4-9.5,100-26.2c29.6,16.7,63.7,26.2,100,26.2c9.3,0,18.5-0.6,27.5-1.9
			c-41,14-83.9,21.1-127.9,21.1C511.3,860.6,468.2,853.4,427,839.3z M920.4,618.7c-19.9,47.2-48.5,89.5-84.9,125.9
			c-5.7,5.7-11.5,11.1-17.5,16.4c25.7-33.7,41.3-75.5,41.8-121c37.7-22.8,67.5-57.4,84.2-98.6C938.9,567.8,931,593.7,920.4,618.7z"
			/>
	</g>
	<text transform="matrix(1 0 0 1 213.7988 1034.3533)" class="st19 st20 st21 st22">MANAVEDA</text>
	<g>
		<path class="st19" d="M512.3,311.5c28.5,30.4,48.2,68.6,55.8,109.7c0.7,3.2,1.3,6.9,1.8,11.1C609.6,400.2,634,352.8,637,302
			l0.3-9.1c0-3.7-0.1-7.3-0.2-11c-36,23.5-62.7,53.8-78.6,91.8c-13.3-30.2-31.4-48.8-46.1-62.6C512.4,311.2,512.3,311.4,512.3,311.5
			z"/>
		<path class="st19" d="M668.1,350.5c-11.7,40-34.6,76.4-66.2,103.8c-2.4,2.2-5.3,4.6-8.6,7.2c47.8,17.9,101.1,14.8,146.3-8.4l8-4.4
			c3.2-1.8,6.3-3.8,9.4-5.8c-38.6-19.1-78.2-26.7-119-21.1c19.2-26.8,26.1-51.9,30.6-71.5C668.4,350.5,668.3,350.5,668.1,350.5z"/>
		<g>
			<path class="st19" d="M599.1,618.4c-29.2-29.7-49.7-67.5-58.3-108.5c-0.8-3.2-1.5-6.9-2.1-11c-38.9,33-62.3,81-64.1,131.8
				l-0.1,9.1c0,3.7,0.2,7.3,0.5,11c35.5-24.3,61.5-55.2,76.5-93.5c14,29.9,32.5,48.1,47.5,61.6C599,618.7,599.1,618.5,599.1,618.4z"
				/>
		</g>
		<path class="st19" d="M710.1,504.1c-40.5,9.9-83.4,8.2-123-5.4c-3.1-1-6.7-2.3-10.5-3.8c8.4,50.4,37.7,95,80.4,122.5l7.8,4.8
			c3.2,1.8,6.4,3.6,9.7,5.2c-2.8-42.9-16-81.1-41.2-113.6c32.8,3.2,58-3.3,77.2-9.3C710.3,504.3,710.2,504.2,710.1,504.1z"/>
		<path class="st19" d="M401.1,425.4c40.4-10.4,83.3-9.3,123.1,3.8c3.1,0.9,6.7,2.2,10.6,3.7c-9.1-50.2-39-94.5-82-121.4l-7.8-4.6
			c-3.2-1.8-6.5-3.5-9.8-5.1c3.3,42.9,17.1,80.8,42.8,113c-32.9-2.8-57.9,4.1-77.1,10.3C400.9,425.1,401,425.2,401.1,425.4z"/>
		<path class="st19" d="M444.3,578.4c11.9-39.9,35.1-76.2,66.8-103.4c2.4-2.2,5.3-4.6,8.6-7.1c-47.7-18.1-101-15.4-146.4,7.5l-8,4.3
			c-3.2,1.8-6.3,3.7-9.4,5.7c38.5,19.3,78,27.1,118.8,21.8c-19.4,26.7-26.4,51.7-31,71.3C444,578.4,444.1,578.4,444.3,578.4z"/>
	</g>
</g>
<g id="Layer_21">
</g>
<g id="Layer_22">
</g>
<g id="Layer_23">
</g>
<g id="Layer_24">
	<defs>
		<rect id="SVGID_33_" x="-9918.8" y="1131" width="1111" height="1111"/>
	</defs>
	<clipPath id="SVGID_1_">
		<use xlink:href="#SVGID_33_"  style="overflow:visible;"/>
	</clipPath>
</g>
<g id="Layer_25">
</g>
<g id="Layer_26">
	<defs>
		<path id="SVGID_35_" d="M4311.4,320.4c-20.3-48.1-49.5-91.3-86.6-128.4c-37.1-37.1-80.3-66.2-128.4-86.6
			c-49.8-21.1-102.7-31.8-157.3-31.8s-107.4,10.7-157.3,31.8c-48.1,20.3-91.3,49.5-128.4,86.6c-37.1,37.1-66.2,80.3-86.6,128.4
			c-21.1,49.8-31.8,102.7-31.8,157.3s10.7,107.4,31.8,157.3c20.3,48.1,49.5,91.3,86.6,128.4c37.1,37.1,80.3,66.2,128.4,86.6
			c49.8,21.1,102.7,31.8,157.3,31.8s107.4-10.7,157.3-31.8c48.1-20.3,91.3-49.5,128.4-86.6c37.1-37.1,66.2-80.3,86.6-128.4
			c21.1-49.8,31.8-102.7,31.8-157.3S4332.5,370.2,4311.4,320.4z M4243.5,643.7c-2.2-69.9-39.8-131-95.4-166.1
			c55.3-34.8,92.7-95.5,95.4-164.8c54.7,34.8,91.1,96,91.1,165.5C4334.5,547.8,4298.2,608.9,4243.5,643.7z M4039.6,846.4
			c-33.2,0-64.6-8.3-92-23c55.4-34.7,93-95.3,95.8-164.6c28.4,15,60.8,23.6,95.1,23.6c35.1,0,68.1-8.9,97-24.6
			C4231.6,762.4,4145.2,846.4,4039.6,846.4z M3643.8,657.9c28.5,15.1,61,23.7,95.4,23.7c34.9,0,67.8-8.8,96.6-24.3
			c2.3,70,40.1,131.2,95.9,166.1c-27.5,14.7-58.8,23-92,23C3734.1,846.4,3647.7,762.5,3643.8,657.9z M3543.2,477.6
			c0-70.1,37-131.8,92.5-166.4c2.1,70.1,39.7,131.3,95.4,166.4c-55.7,35.1-93.3,96.3-95.4,166.4
			C3580.2,609.4,3543.2,547.8,3543.2,477.6z M3839.6,109c33.2,0,64.6,8.3,92,23c-55.8,34.9-93.5,96.1-95.9,166
			c-28.8-15.5-61.7-24.3-96.6-24.3c-34.4,0-66.9,8.6-95.4,23.7C3647.8,192.8,3734.1,109,3839.6,109z M4235.5,298.9
			c-28.9-15.7-61.9-24.6-97-24.6c-34.3,0-66.6,8.5-95,23.5c-2.4-69.9-40.2-131-95.9-165.9c27.5-14.7,58.8-23,92-23
			C4145.6,109,4232.3,193.6,4235.5,298.9z M3747,477.7c27.6-14.9,59.1-23.3,92.6-23.3c31.4,0,61,7.4,87.3,20.6
			c1.4,0.9,2.8,1.8,4.2,2.7c-1.4,0.9-2.8,1.8-4.2,2.7c0,0-15.1,10.2-23.7,18.4c-41,36.9-67,90.2-67.6,149.4
			c-28.5,16.2-61.4,25.4-96.5,25.4c-34.7,0-67.3-9.1-95.5-24.9c0.6-70.6,38.7-132.4,95.2-166.4L3747,477.7z M3843.8,643.3
			c2.3-65,36.4-122,87.2-156c1.2-0.6,2.5-1.3,3.7-1.9c0,1.3,0.1,2.6,0.2,3.9c0,0,0.9,17.8,4,30.5c11.9,57.2,47.9,105.8,96.8,134.5
			c-1.4,69.9-39.6,131-95.9,164.5c-56.8-33.8-95.1-95.5-96-166.1L3843.8,643.3z M4035.5,645c-52.8-32.8-89-89.9-92.7-155.6
			c0.1-1.6,0.2-3.2,0.2-4.8c1.7,0.9,3.5,1.8,5.3,2.7c0,0,9,5.4,27.7,11.4c20,6.6,41.4,10.2,63.6,10.2c36.6,0,71-9.7,100.7-26.7
			c56.5,34,94.6,95.7,95.2,166.2c-28.6,16.4-61.8,25.8-97.1,25.8c-34.4,0-66.8-8.9-94.9-24.6L4035.5,645z M4132.2,477.7
			c-27.6,14.9-59.1,23.3-92.6,23.3c-31.4,0-61-7.4-87.3-20.6c-1.4-0.9-2.8-1.8-4.2-2.7c1.4-0.9,2.8-1.8,4.2-2.7
			c0,0,20-14.3,23.7-18.4c41.1-37,67.1-90.3,67.6-149.7c28.1-15.6,60.5-24.6,94.9-24.6c35.3,0,68.4,9.4,97.1,25.8
			c-1.1,70-39,131.2-95.2,165L4132.2,477.7z M3938.9,436.1c-11.8-56.7-47.1-104.8-95.3-133.6c0.9-70.5,39.2-132.2,96-166
			c56.7,33.8,95,95.3,96,165.8l-0.1,9.4c-2.2,65.2-36.3,122.3-87.2,156.4c-1.8,0.9-3.5,1.8-5.3,2.7c0-1.4-0.1-2.8-0.2-4.2
			C3942.9,466.5,3942.1,449.3,3938.9,436.1z M3903.2,456.5c-20-6.6-41.4-10.2-63.6-10.2c-36.6,0-71,9.7-100.7,26.7
			c-56.6-34.1-94.7-95.9-95.2-166.5c28.3-15.9,60.9-24.9,95.5-24.9c35,0,68,9.3,96.5,25.4l8.1,4.9c52,32.9,87.5,89.6,91.1,154.6
			c-0.1,1.1-0.1,2.3-0.2,3.4c-1.2-0.7-2.5-1.3-3.8-1.9C3930.9,468,3918.8,461.7,3903.2,456.5z M4304.1,323.5
			c10.9,25.8,19,52.5,24.2,79.9c-16.6-41.8-46.6-76.9-84.6-99.8c-0.3-46-16-88.5-42.1-122.5c6,5.3,11.9,10.9,17.7,16.6
			C4255.6,234,4284.1,276.3,4304.1,323.5z M4067.5,102.9c-9.1-1.3-18.4-1.9-27.9-1.9c-36.3,0-70.4,9.5-100,26.2
			c-29.6-16.7-63.7-26.2-100-26.2c-10,0-19.8,0.7-29.4,2.1c41.3-14.3,84.6-21.5,128.9-21.5C3983.3,81.6,4026.4,88.8,4067.5,102.9z
			 M3574.3,323.5c19.9-47.2,48.5-89.5,84.9-125.9c6.6-6.6,13.5-13,20.5-19.1c-27,34-43.3,76.9-44,123.4
			c-37.7,22.3-67.6,56.3-84.7,97C3556.2,373.2,3563.9,347.9,3574.3,323.5z M3574.3,631.8c-10.3-24.5-18.1-49.7-23.3-75.5
			c17.1,40.7,47,74.8,84.7,97c0.7,46.4,16.9,89.2,43.8,123.2c-6.9-6-13.7-12.3-20.2-18.9C3622.8,721.3,3594.2,678.9,3574.3,631.8z
			 M3810.7,852.3c9.5,1.3,19.1,2.1,28.9,2.1c36.3,0,70.4-9.5,100-26.2c29.6,16.7,63.7,26.2,100,26.2c9.3,0,18.5-0.6,27.5-1.9
			c-41,14-83.9,21.1-127.9,21.1C3895,873.6,3851.9,866.5,3810.7,852.3z M4304.1,631.8c-19.9,47.2-48.5,89.5-84.9,125.9
			c-5.7,5.7-11.5,11.1-17.5,16.4c25.7-33.7,41.3-75.5,41.8-121c37.7-22.8,67.5-57.4,84.2-98.6
			C4322.5,580.9,4314.6,606.7,4304.1,631.8z"/>
	</defs>
	<clipPath id="SVGID_2_">
		<use xlink:href="#SVGID_35_"  style="overflow:visible;"/>
	</clipPath>
</g>
</svg>
